<?xml version="1.0" encoding="UTF-8"?>
<svg width="512px" height="501px" viewBox="0 0 512 501" version="1.1" xmlns="http://www.w3.org/2000/svg" xmlns:xlink="http://www.w3.org/1999/xlink">
    <title>an</title>
    <defs>
        <ellipse id="path-1" cx="256" cy="250.467583" rx="256" ry="250.467583"></ellipse>
    </defs>
    <g id="Page-1" stroke="none" stroke-width="1" fill="none" fill-rule="evenodd">
        <g id="an">
            <g id="Path" transform="translate(0.000000, 0.000000)">
                <mask id="mask-2" fill="white">
                    <use xlink:href="#path-1"></use>
                </mask>
                <use id="Mask" fill="#41479B" xlink:href="#path-1"></use>
                <polygon fill="#FFE15A" fill-rule="nonzero" mask="url(#mask-2)" points="-51.3855913 353.931 563.385591 353.931 563.385591 406.931 -51.3855913 406.931"></polygon>
            </g>
            <path d="M215.488531,130.246072 L203.380447,166.549405 L165.112321,166.846425 C161.442106,166.874314 159.920752,171.558301 162.872821,173.737839 L193.658282,196.470302 L182.114954,232.95631 C181.009149,236.455007 184.991722,239.349903 187.977258,237.214987 L219.111334,214.962217 L250.24541,237.214987 C253.230946,239.348508 257.214914,236.455007 256.107714,232.95631 L244.564386,196.470302 L275.349847,173.737839 C278.30331,171.556906 276.780561,166.875709 273.110347,166.846425 L234.842221,166.549405 L222.734137,130.246072 C221.573948,126.764109 216.650115,126.764109 215.488531,130.246072 L215.488531,130.246072 Z M128.26236,63.2534944 L121.255206,84.2665902 L99.1056262,84.4395031 C96.9818658,84.4562366 96.100568,87.1656695 97.8101742,88.4276545 L115.628565,101.585765 L108.947715,122.70484 C108.307658,124.729594 110.612698,126.405733 112.340432,125.170243 L130.359626,112.289629 L148.378819,125.170243 C150.106553,126.405733 152.412987,124.729594 151.771536,122.70484 L145.090686,101.585765 L162.909077,88.4276545 C164.617289,87.1656695 163.737385,84.4548421 161.613625,84.4395031 L139.464045,84.2665902 L132.456891,63.2534944 C131.784762,61.2385019 128.934489,61.2385019 128.26236,63.2534944 L128.26236,63.2534944 Z" id="Shape" fill="#F5F5F5" fill-rule="nonzero"></path>
        </g>
    </g>
</svg>