<?xml version="1.0" encoding="UTF-8"?>
<svg width="512px" height="501px" viewBox="0 0 512 501" version="1.1" xmlns="http://www.w3.org/2000/svg" xmlns:xlink="http://www.w3.org/1999/xlink">
    <title>btc</title>
    <g id="Page-1" stroke="none" stroke-width="1" fill="none" fill-rule="evenodd">
        <g id="btc" transform="translate(0.000000, 0.000000)">
            <ellipse id="Oval" fill="#F7931A" cx="256" cy="250.467583" rx="256" ry="250.467583"></ellipse>
            <path d="M430.087915,208.910045 C437.359016,163.977622 400.295876,139.822499 349.615809,123.709751 L366.055649,62.8427614 L325.904869,53.6091128 L309.899029,112.872464 C299.358288,110.44537 288.521001,108.154458 277.751169,105.885182 L293.871554,46.2323758 L253.755137,37 L237.303843,97.845353 C228.569104,96.0088052 219.994729,94.1938937 211.672354,92.2835275 L211.718173,92.0938909 L156.362099,79.3360559 L145.683904,118.907744 C145.683904,118.907744 175.465761,125.207753 174.837033,125.598481 C191.0936,129.344122 194.042513,139.273953 193.541058,147.145782 L174.814124,216.486601 C175.934125,216.750055 177.386309,217.129329 178.987402,217.721148 L174.756851,216.750055 L148.496635,313.884729 C146.507359,318.443644 141.46608,325.282017 130.101883,322.68565 C130.502793,323.224014 100.927117,315.964368 100.927117,315.964368 L81,358.384424 L133.245524,370.404076 C142.964082,372.651716 152.48664,375.004992 161.850107,377.220813 L145.238448,438.794167 L185.331956,448.027815 L201.794705,387.118826 C212.735083,389.862829 223.367461,392.39556 233.770747,394.780654 L217.377998,455.40328 L257.514778,464.636928 L274.126437,403.189574 C342.572527,415.14559 394.051868,410.32322 415.693351,353.192963 C433.151374,307.183811 414.836804,280.644867 378.823666,263.328117 C405.050791,257.725564 424.804817,241.801179 430.076461,208.910045 L430.087915,208.910045 Z M338.055612,326.122018 C325.652868,371.609351 241.828394,347.029136 214.63654,340.852583 L236.654751,260.217567 C263.83515,266.414485 350.983993,278.683592 338.065794,326.122018 L338.055612,326.122018 Z M353.348723,207.61568 C341.975617,249.758281 271.78207,228.347162 249.000222,223.097155 L269.081339,148.608147 C291.863187,153.858154 365.205466,163.655622 353.348723,207.61568 Z" id="Shape" fill="#FFFFFF" fill-rule="nonzero"></path>
        </g>
    </g>
</svg>