<?xml version="1.0" encoding="UTF-8"?>
<svg width="512px" height="501px" viewBox="0 0 512 501" version="1.1" xmlns="http://www.w3.org/2000/svg" xmlns:xlink="http://www.w3.org/1999/xlink">
    <title>dash</title>
    <g id="Page-1" stroke="none" stroke-width="1" fill="none" fill-rule="evenodd">
        <g id="dash" fill-rule="nonzero">
            <ellipse id="Oval" fill="#2573C2" cx="256" cy="250.467583" rx="256" ry="250.467583"></ellipse>
            <g id="Group" transform="translate(81.000000, 147.000000)" fill="#FFFFFF">
                <path d="M349.512591,32.6986595 C349.153348,26.7053565 347.39387,20.8797733 344.375419,15.6896203 C341.699951,10.341727 336.937815,6.16915309 331.372355,4.02999578 C325.696515,1.202554 319.408987,-0.175799024 313.070845,0.0179347475 L75.5840653,0.0179347475 L58.5666581,50.9910409 L273.739866,50.9910409 L239.759063,155.183673 L24.6398667,155.183673 L7.62322026,206.156779 L246.23435,206.156779 C253.344152,205.95096 260.373813,204.596098 267.050816,202.144718 C273.739866,198.347181 281.391994,194.496394 287.86652,189.14774 C294.187875,184.166708 299.899788,178.457605 304.883928,172.1387 C309.00334,165.948111 312.51566,159.374391 315.372036,152.508965 L346.890374,53.4512239 C349.757692,46.9341574 350.668727,39.7241147 349.512591,32.6986595 Z" id="Path"></path>
                <polygon id="Path" points="143.465034 80.2492661 16.9968676 80.2492661 2.31290745e-23 127.291709 127.750748 127.291709"></polygon>
            </g>
        </g>
    </g>
</svg>