<?xml version="1.0" encoding="UTF-8"?>
<svg width="512px" height="501px" viewBox="0 0 512 501" version="1.1" xmlns="http://www.w3.org/2000/svg" xmlns:xlink="http://www.w3.org/1999/xlink">
    <title>doge</title>
    <g id="Page-1" stroke="none" stroke-width="1" fill="none" fill-rule="evenodd">
        <g id="doge" fill-rule="nonzero">
            <ellipse id="Oval" fill="#C2A633" cx="256" cy="250.467583" rx="256" ry="250.467583"></ellipse>
            <g id="Group" transform="translate(81.000000, 75.000000)" fill="#FFFFFF">
                <path d="M179.658863,115.886288 L154.51505,115.886288 L154.51505,165.252676 L194.074415,165.252676 L194.074415,185.921405 L154.51505,185.921405 L154.51505,235.285268 L180.891472,235.285268 C187.669064,235.285268 236.530936,236.045151 236.455027,177.851505 C236.378763,119.655518 189.064381,115.886288 179.658863,115.886288 Z" id="Path"></path>
                <path d="M175,0 C78.3496656,0 0,78.3496656 0,175 C0,271.650334 78.3496656,350 175,350 C271.650334,350 350,271.650334 350,175 C350,78.3496656 271.650334,0 175,0 Z M118.498997,269.517559 L118.498997,185.262375 L96.1586957,185.262375 L96.1586957,164.62291 L118.497826,164.62291 L118.497826,80.3618729 L172.891806,80.3618729 C185.758696,80.3618729 270.988963,77.6894649 270.988963,176.520569 C270.988963,276.986957 181.87709,269.517559 181.87709,269.517559 L118.498997,269.517559 Z" id="Shape"></path>
            </g>
        </g>
    </g>
</svg>