<?xml version="1.0" encoding="UTF-8"?>
<svg width="512px" height="501px" viewBox="0 0 512 501" version="1.1" xmlns="http://www.w3.org/2000/svg" xmlns:xlink="http://www.w3.org/1999/xlink">
    <title>ld</title>
    <g id="Page-1" stroke="none" stroke-width="1" fill="none" fill-rule="evenodd">
        <g id="ld" transform="translate(0.000000, 0.000000)">
            <ellipse id="Oval" fill="#79CEB8" cx="256" cy="250.467583" rx="256" ry="250.467583"></ellipse>
            <g id="Group" transform="translate(106.000000, 47.000000)" fill="#FFFFFF" fill-rule="nonzero">
                <path d="M0.0416656739,176.900482 C-0.37636816,182.299055 2.46205684,214.476529 3.59742683,233.274447 C4.96778627,256.300938 3.64689829,279.218592 7.49206749,302.361341 C11.1999534,331.417166 23.9301967,360.654798 47.8681993,377.513435 C73.8110327,395.810454 106.970515,403.279408 138.529596,406.70407 C164.921383,409.577125 200.671933,404.57927 226.415644,394.821025 C258.755137,382.589207 273.658415,353.471542 279.503467,337.765591 C287.339747,314.971616 285.869208,286.273222 273.291089,265.720304 C260.409958,244.702354 234.350866,233.023379 210.561278,226.588379 C180.708963,218.522058 147.648423,221.210832 117.797344,229.363728 C96.614902,235.64413 80.9608954,245.691784 61.5186118,262.632048 C53.9160852,269.261224 55.0687702,277.449987 59.4791508,282.343951 C64.6081044,288.029459 71.4549544,289.164829 82.4673013,282.343951 C91.0839928,276.999797 99.7711811,264.335103 112.45319,262.613496 C116.909332,262.159596 118.047175,265.255272 116.175917,268.828348 C115.040547,269.231541 106.186393,292.872715 114.923052,313.53818 C121.836689,328.524322 137.25818,341.390612 153.427926,344.598836 C172.071246,348.294354 195.225126,342.429512 208.090179,328.462483 C219.817388,315.690189 225.380454,293.488634 218.647388,277.516773 C216.541141,272.553549 210.344841,268.248296 204.980898,268.828348 C202.357673,269.112809 199.91873,271.836213 199.384439,274.408729 C198.933012,276.597841 202.810337,278.601435 201.872853,280.623581 C200.420866,287.856309 190.415263,291.785579 183.246849,286.837196 C177.850749,283.596816 176.93429,273.62337 180.140041,268.212429 C184.60113,260.659374 196.243001,258.772037 204.980898,259.505452 C219.849545,260.775632 236.821966,268.22727 244.105401,281.241974 C253.410983,297.882937 251.570645,322.128899 241.614513,338.383984 C230.186606,357.045855 205.866437,366.085528 184.483635,370.681426 C156.972556,374.621828 126.682418,372.984323 103.129056,363.227314 C74.7621215,354.171563 52.5976708,331.250199 46.6165713,304.850992 C41.6867404,283.063761 43.8424592,257.582249 42.7231675,232.656054 C42.0553028,217.819563 41.300863,198.703791 31.5327233,186.074964 C25.701275,178.504594 15.7933784,171.991677 6.255281,172.556888 C2.34579891,172.089383 -0.3268967,173.979192 0.0416656739,176.900482 L0.0416656739,176.900482 Z" id="Path"></path>
                <path d="M48.8366031,28.5021815 C38.7815289,30.7753951 34.0384527,42.2688519 34.0863233,51.1539261 C44.2283366,104.688229 60.4302396,167.108843 74.3626395,208.713104 C78.8398066,214.060969 86.7403987,219.354415 93.4239928,217.350821 C99.6697646,215.479563 102.645473,207.212882 103.864944,200.792724 C95.5760013,137.489044 81.9156946,64.5569813 73.6453033,41.4500993 C70.5211806,32.7109659 57.8601973,26.1263146 48.8378399,28.5009447 L48.8366031,28.5021815 Z M131.912788,0.0833015196 C121.621488,1.01583853 115.124649,13.5148028 113.920019,22.9020123 C116.410907,80.9654276 123.678264,149.300355 131.630801,195.297681 C134.218158,203.251455 141.565907,209.59988 149.303243,207.212882 C157.035632,206.995208 161.464565,198.907861 161.980305,191.253389 C162.716193,123.133663 159.460971,44.0560084 154.533613,18.4273187 C152.659882,8.73585981 141.552302,-1.00383381 131.912788,0.0833015196 L131.912788,0.0833015196 Z M220.848868,24.3428685 C211.546997,23.3571497 203.562303,33.3145177 200.837663,41.4500993 C192.803498,93.5113898 187.173646,155.549837 186.119904,197.852882 C187.022758,205.387385 192.436172,212.322047 199.73816,211.572555 C206.651796,212.740081 212.013265,206.322396 213.833815,199.606645 C226.515824,139.192099 237.592484,68.300734 237.72383,44.6447188 C237.775528,35.7027524 229.622632,25.0787565 220.850105,24.3428685 L220.848868,24.3428685 Z M287.88888,75.0832711 C280.170095,73.310956 272.406787,80.6129435 269.213404,86.9972353 C256.882643,128.747437 245.509154,178.939943 240.079187,213.424024 C240.03019,219.692058 243.854334,225.925462 250.067949,226.071403 C255.749746,227.759616 260.944249,223.066011 263.181596,217.768855 C280.337062,169.651677 297.24517,112.807733 299.885709,93.4631551 C300.887506,86.1438527 295.172316,76.6218335 287.88888,75.0832711 L287.88888,75.0832711 Z" id="Shape"></path>
            </g>
        </g>
    </g>
</svg>