<?xml version="1.0" encoding="UTF-8"?>
<svg width="512px" height="506px" viewBox="0 0 512 506" version="1.1" xmlns="http://www.w3.org/2000/svg" xmlns:xlink="http://www.w3.org/1999/xlink">
    <title>oecs</title>
    <g id="Page-1" stroke="none" stroke-width="1" fill="none" fill-rule="evenodd">
        <g id="oecs" fill-rule="nonzero">
            <path d="M198.479737,32.5479532 C190.336979,33.5496417 175.468597,36.4300732 174.757721,37.1363329 C174.545382,37.3486724 178.501359,37.5240833 183.542114,37.5286994 C247.696341,37.5702441 323.501544,77.6977945 375.533955,139.156232 C411.137751,181.217919 431.928558,223.034953 443.376426,275.635141 L444.382731,280.251217 L446.741546,275.635141 C453.790294,261.828457 464.001055,234.441277 466.299861,223.164203 C467.532353,217.126375 465.829021,212.19179 454.671965,189.466847 C404.509065,87.2576881 295.643525,20.5830837 198.479737,32.5479532 M157.705936,38.3411288 C7.25878108,61.0660717 -9.67760245,258.140212 127.429092,390.649295 C141.651223,404.39597 147.578265,409.058207 135.747262,397.190275 C13.2042872,274.282631 27.0386675,87.2807685 162.105057,40.9445957 L171.937299,37.5702441 L166.938089,37.6348691 C164.186907,37.6717977 160.032438,37.990307 157.705936,38.3411288 M475.116567,254.599682 C472.836225,271.780717 461.268338,304.831823 450.517496,324.87021 C447.567824,330.372572 447.115448,331.923574 446.261474,339.489323 C436.623107,424.614384 371.651835,476.993 285.80205,468.854858 C276.223692,467.945491 266.192959,468.905635 266.183726,470.728985 C266.183726,470.978253 269.539614,471.78145 273.647921,472.515406 C406.438585,496.232806 502.102148,397.287213 478.440141,260.702134 C476.649104,250.36674 475.868987,248.935756 475.116567,254.599682 M153.389905,413.600426 C155.000915,416.199277 185.21775,437.742504 192.589624,441.546151 C198.078138,444.375806 198.512049,442.386277 193.065079,439.381211 C183.906784,434.33584 170.801744,425.957662 161.860404,419.43053 C156.985828,415.871535 153.172949,413.244988 153.389905,413.600426" id="Shape" fill="#041C44"></path>
            <path d="M238.487269,0.646382118 C231.503146,1.20031124 224.232826,1.8834905 222.331002,2.16507117 C213.634315,3.43910819 202.634206,5.42863702 198.479737,6.4764863 C196.997976,6.85038848 193.882125,7.56126421 191.555623,8.05056828 C189.22912,8.54448843 186.630269,9.20920341 185.785527,9.52771266 C184.940785,9.84622191 179.7477,11.5541701 174.245337,13.3267434 C168.742974,15.0947006 162.774388,17.2180956 160.98335,18.0397572 C159.187697,18.8568027 157.433588,19.5307497 157.078149,19.5307497 C156.450364,19.5307497 147.841381,23.4497984 145.214834,24.9315589 C144.476262,25.3470058 143.382251,25.6839793 142.777545,25.6839793 C142.172839,25.6839793 141.558902,25.9470956 141.420419,26.2609889 C141.277321,26.5794981 139.777096,27.5534902 138.087612,28.4259285 C130.720355,32.2249593 124.950259,35.3315785 124.239383,35.8855077 C122.734543,37.057991 113.793203,42.6111307 113.410069,42.6111307 C113.193113,42.6111307 112.274514,43.3035421 111.365147,44.1482841 C110.45578,44.997642 109.260216,45.6900535 108.706288,45.6900535 C108.152358,45.6900535 107.695367,45.9577859 107.695367,46.2901434 C107.695367,46.6225009 106.670598,47.4995553 105.415025,48.2427436 C104.164068,48.9813158 102.69154,50.019933 102.146843,50.5507817 C101.602146,51.0770143 99.9449748,52.3464353 98.4632146,53.3712044 C96.9814538,54.395973 95.2504252,55.7761798 94.6180229,56.4455112 C93.9856206,57.1102257 91.9037702,58.8412543 90.0019468,60.2860865 C85.7320762,63.5311881 62.942508,86.2792113 58.9772988,91.2553414 C57.3847523,93.2541024 55.6491078,95.3313369 55.1274912,95.871418 C54.6058746,96.4068827 53.3318372,98.0594377 52.3024522,99.5411985 C51.2730673,101.022959 49.9990304,102.68013 49.4727977,103.224827 C48.941949,103.769524 47.9033318,105.242052 47.1647597,106.493009 C46.4215714,107.748581 45.5445169,108.773351 45.2121595,108.773351 C44.8798019,108.773351 44.6120695,109.230342 44.6120695,109.784272 C44.6120695,110.3382 43.9196581,111.533764 43.0703001,112.443131 C42.2255581,113.352498 41.5331467,114.30341 41.5331467,114.557294 C41.5331467,114.806562 40.1483239,117.054591 38.4542239,119.547272 C36.76474,122.039954 35.3799172,124.301831 35.3799172,124.578795 C35.3799172,124.851144 34.7290504,125.995931 33.9304693,127.122253 C30.5976622,131.826035 20.3545892,152.986128 16.9340767,162.245977 C15.9923972,164.784819 14.9537801,167.554465 14.6168065,168.399207 C14.284449,169.243949 13.5643411,171.496594 13.0150281,173.398417 C12.4703311,175.304857 11.7825357,177.20668 11.4917229,177.631359 C11.2009101,178.056038 10.7946954,179.26545 10.586972,180.322531 C10.3792486,181.384229 9.34063143,185.534081 8.28354998,189.554684 C5.44927918,200.333222 3.61669696,209.629999 2.37035641,219.559179 C-0.787039726,244.670633 -0.791655811,261.727035 2.36574032,286.109149 C4.40604599,301.905362 10.1761412,325.825869 14.6075744,336.885987 C14.949164,337.730729 15.9923972,340.500375 16.9248446,343.039217 C19.1451772,349.063196 20.3638214,351.902083 23.5304496,358.433831 C24.9706654,361.401968 26.1477648,364.227007 26.1477648,364.716311 C26.1477648,365.205615 26.4062651,365.722615 26.7247743,365.865714 C27.0386675,366.004196 28.645062,368.718449 30.2883851,371.889693 C33.4365491,377.969065 38.3065095,386.273387 39.608243,387.792075 C40.0329219,388.285996 41.4177448,390.441703 42.6871657,392.583563 C43.9565867,394.730038 45.2537041,396.488763 45.5722134,396.497995 C45.8907226,396.502611 46.1492229,397.001147 46.1492229,397.601237 C46.1492229,398.201327 46.4215714,398.806033 46.758545,398.944516 C47.0909024,399.087614 48.5634307,400.934044 50.0267269,403.048207 C51.4900229,405.166986 53.2164356,407.415015 53.8626861,408.052034 C54.508937,408.684436 56.2399656,410.761671 57.7124936,412.658878 C64.8904922,421.951039 88.8479279,445.723831 93.6901914,448.364227 C94.4149154,448.756594 95.176568,449.305907 95.3889078,449.578255 C95.5966311,449.85522 98.1954822,451.867829 101.159003,454.055849 C104.117908,456.243869 106.887553,458.311871 107.312232,458.653461 C111.074334,461.695455 130.286444,473.443369 131.500472,473.443369 C131.87899,473.443369 132.303669,473.706485 132.442151,474.020378 C132.705268,474.60662 146.410397,481.530734 151.741966,483.774148 C153.329896,484.438863 155.753336,485.468248 157.128927,486.054489 C160.757162,487.610107 166.04257,489.581171 170.012395,490.86444 C171.918835,491.482995 174.166864,492.27696 175.016222,492.627782 C175.860964,492.983219 178.108993,493.698711 180.015432,494.220328 C181.921872,494.737328 184.345312,495.443588 185.402393,495.785178 C188.490548,496.777634 204.577574,500.544352 210.019928,501.546041 C249.104244,508.742506 293.41396,506.079028 331.962812,494.211096 C334.921717,493.301729 338.037568,492.378513 338.886926,492.166174 C339.731668,491.953834 341.204196,491.464531 342.155108,491.07678 C345.741799,489.613484 347.426667,488.958001 350.039366,488.002473 C351.521126,487.462392 354.904711,486.045257 357.563571,484.849693 C360.217814,483.65413 362.899754,482.675521 363.522925,482.675521 C364.146095,482.675521 364.658479,482.329316 364.658479,481.909253 C364.658479,481.484574 365.129319,481.138368 365.706329,481.138368 C366.966518,481.138368 376.475634,476.374578 376.840304,475.562148 C376.978787,475.243639 377.758904,474.985139 378.571333,474.985139 C379.383763,474.985139 380.043861,474.722022 380.043861,474.403513 C380.043861,474.080387 381.054782,473.374128 382.291891,472.824815 C383.528999,472.280118 386.654083,470.466 389.243701,468.790364 C391.828704,467.119345 394.27984,465.752986 394.690671,465.752986 C395.096886,465.752986 395.433859,465.448325 395.433859,465.074423 C395.433859,464.705137 396.472477,463.971181 397.741898,463.444948 C399.011318,462.918715 400.049935,462.226304 400.049935,461.903178 C400.049935,461.584669 401.088553,460.892258 402.357974,460.366025 C403.627395,459.839792 404.666012,459.179693 404.666012,458.898113 C404.666012,458.621148 405.690781,457.785638 406.946353,457.04245 C408.19731,456.303878 409.669838,455.265261 410.214535,454.734412 C410.759232,454.20818 412.416404,452.934143 413.898164,451.904758 C415.375309,450.875373 417.050944,449.582871 417.618721,449.033558 C418.181883,448.484245 419.912912,447.094806 421.463913,445.945403 C425.318337,443.097284 449.0542,419.342956 452.797838,414.588398 C454.464242,412.474235 456.006011,410.567795 456.232199,410.360072 C456.45377,410.147732 457.829361,408.416704 459.288041,406.510264 C460.746721,404.608441 462.145392,402.877413 462.399276,402.665073 C462.653161,402.452734 466.045977,397.435058 469.937329,391.508017 C473.833297,385.585591 477.286122,380.392505 477.613864,379.967826 C478.670945,378.601468 490.520413,354.694809 491.914468,351.11735 C492.657656,349.215527 493.723969,346.616676 494.287131,345.347255 C495.607329,342.374502 499.258645,332.182205 500.07569,329.190988 C500.421896,327.921567 501.428201,324.45951 502.314487,321.500605 C511.408157,291.062199 514.417838,251.760927 509.977172,221.484083 C508.241527,209.625383 507.646058,205.964835 506.990573,203.019778 C505.656527,197.055808 502.979202,186.069546 502.305255,183.784589 C500.292646,177.012805 496.839821,166.691258 496.188954,165.523391 C495.782739,164.789435 495.445766,163.718506 495.445766,163.141496 C495.445766,162.569103 494.965694,161.091958 494.379453,159.864082 C493.788595,158.63159 492.717665,156.245078 491.997557,154.550978 C489.320233,148.277731 481.177474,132.084535 478.357052,127.445379 C476.755274,124.809599 475.444308,122.32615 475.444308,121.933784 C475.444308,121.536801 475.171959,121.098274 474.839602,120.955176 C474.507244,120.816694 473.325529,119.141058 472.21767,117.239234 C471.109812,115.332795 469.480337,112.941667 468.594051,111.92613 C467.707764,110.910594 466.98304,109.807351 466.98304,109.47961 C466.98304,109.151869 466.535281,108.427145 465.9952,107.868599 C465.450503,107.310054 464.17185,105.639035 463.147081,104.157274 C462.122312,102.675514 461.079079,101.290691 460.825194,101.082968 C460.575927,100.870628 459.537309,99.4858054 458.517157,98.0040451 C457.50162,96.5222844 456.126029,94.7912558 455.46593,94.1588534 C454.801215,93.5218352 452.710133,91.0983948 450.812926,88.7718925 C446.413805,83.3664675 429.297394,66.2500567 424.275103,62.2340707 C422.165557,60.5399707 419.917527,58.6196828 419.280509,57.9642001 C418.648106,57.3087173 416.917078,55.9377428 415.435318,54.922206 C413.953557,53.9020528 412.568734,52.863436 412.356395,52.6141677 C412.144055,52.3602835 410.759232,51.3216662 409.282088,50.3061297 C407.800327,49.2859768 406.415505,48.2381275 406.203165,47.9703951 C405.653852,47.2779837 392.244151,38.3412602 388.952889,36.4763654 C387.438816,35.6177753 384.983063,34.2283363 383.496686,33.3835944 C371.347174,26.5056409 352.56436,17.9843642 341.961233,14.5453875 C339.84707,13.8575921 337.42363,13.003618 336.578888,12.6435641 C335.72953,12.2835101 332.096678,11.2310448 328.500755,10.3078296 C324.900215,9.37999822 321.16581,8.30906857 320.191818,7.92131818 C319.222442,7.53818383 317.634511,7.21967457 316.665135,7.21967457 C315.700375,7.21967457 314.661758,6.97502254 314.366329,6.67959366 C314.066284,6.3795487 312.884569,6.02872695 311.735166,5.8994768 C310.590379,5.76561057 308.093082,5.34554763 306.186643,4.95779724 C284.509549,0.577140934 259.430407,-1.02002142 238.487269,0.646382118 M345.072468,30.7293506 C420.106787,40.4969678 465.949039,88.5410887 472.573109,164.36014 C472.937779,168.509992 472.056108,167.909903 470.879009,163.206121 C461.434517,125.377376 429.177376,86.4961669 391.0809,67.0163257 C366.394124,54.395973 324.877135,44.5775791 304.649489,46.5763401 L301.958317,46.8440725 L305.803508,48.2796722 C355.200139,66.7162806 408.391185,112.189247 440.689871,163.589255 C450.679059,179.487022 466.747621,212.967422 467.061513,218.539026 C467.176915,220.657805 468.270925,215.667827 470.034267,204.944682 C471.649893,195.121672 473.117806,176.588126 472.656198,171.819719 C472.402314,169.197788 472.411546,169.202404 473.464011,172.355184 C478.200105,186.540386 479.884973,223.750576 476.704497,243.96899 C476.1598,247.449511 475.979773,250.565363 476.302898,250.893104 C476.626023,251.220845 477.586167,255.499948 478.440141,260.406837 C499.32327,380.946435 426.343106,475.802184 312.755319,475.746791 C296.552892,475.737559 266.183726,472.220109 266.183726,470.355214 C266.183726,470.064401 264.364992,470.299821 262.144659,470.876831 C237.997965,477.177775 204.162127,478.807249 178.090529,474.92513 C74.0534036,459.428962 14.0351809,366.424259 39.3589748,259.949846 C42.216326,247.943431 42.1932456,248.663539 40.0652345,239.565253 C16.887916,140.319615 60.4682913,58.6012188 146.54888,39.8876457 C151.755814,38.7567071 163.74838,37.2749466 167.704357,37.2749466 L171.937299,37.2749466 L162.105057,40.6492983 C104.53797,60.3968723 64.6596884,109.059547 54.2550528,172.244398 C51.6792822,187.902129 50.151361,227.637312 52.4363184,219.559179 C56.0322418,206.846505 79.6388557,167.614473 92.00994,153.780093 L94.7611213,150.705787 L92.3099846,154.167844 C72.7516698,181.767363 51.7069785,221.94569 52.7409799,229.723779 C52.8656138,230.693155 53.3826145,234.602971 53.8811506,238.411234 C61.2022471,294.039568 91.3082964,352.326762 135.747262,396.894978 C147.578265,408.76291 141.651223,404.100673 127.429092,390.353998 C91.1928943,355.336444 63.3025621,312.231525 48.0279659,267.644845 C46.4354196,262.99184 44.8936502,258.906612 44.6074534,258.574255 C44.3212567,258.237282 43.2641753,263.430367 42.2671028,270.114445 C27.5741323,368.219913 91.9360829,442.801855 191.172488,442.663373 L195.01768,442.658757 L191.172488,440.438424 C181.598746,434.92683 154.903978,415.751649 153.389905,413.305129 C153.172949,412.949691 156.985828,415.576238 161.860404,419.135233 C170.746351,425.62082 183.902169,434.040543 192.898901,438.998209 C195.543912,440.456888 197.478048,441.87864 197.196468,442.160221 C196.199395,443.157293 218.282704,441.140068 229.638251,439.201316 C313.489275,424.882248 394.995332,366.124214 440.260575,287.369338 L444.401196,280.163643 L442.61939,271.97934 C424.565916,189.097692 369.348413,114.211088 293.963273,70.3814448 C278.739454,61.5324271 254.814331,50.5692459 253.369499,51.7832743 C253.009445,52.0833188 249.431986,53.126552 245.411383,54.1051602 C198.410496,65.5114845 153.172949,91.5184579 114.296355,129.476452 C107.639973,135.980504 104.874944,138.334702 106.989107,135.703539 C133.665411,102.504719 187.174966,64.0943491 229.448992,47.7857521 L236.188463,45.1869012 L225.220666,42.6988361 C210.670794,39.4029577 211.930983,39.6337615 201.706374,38.3597245 C196.75794,37.7411703 188.582869,37.2334019 183.542114,37.2334019 C172.73588,37.2241698 172.657407,36.9795177 182.77123,34.8653548 C206.230129,29.9584659 233.515755,29.8615283 258.871862,34.5976224 C267.14387,36.1440079 266.474539,36.1578562 274.644994,34.2791131 C278.240917,33.4482194 285.340442,32.2203432 290.418126,31.54178 C295.49581,30.8678329 300.513485,30.1846536 301.570566,30.027707 C307.372974,29.1645007 336.698906,29.6399566 345.072468,30.7293506 M254.048062,114.931196 C262.772446,138.66706 269.258033,156.522042 269.258033,156.799007 C269.258033,156.928257 267.790121,156.752846 265.989851,156.406641 C260.492104,155.340327 243.191051,155.612675 236.636223,156.868248 C228.936608,158.340777 229.213572,159.351697 233.32188,144.76028 C235.260632,137.873095 238.962725,124.624956 241.547728,115.31433 C247.1101,95.285176 246.980849,95.6775428 247.548627,97.2331602 C247.779431,97.8701789 250.706023,105.83291 254.048062,114.931196 M341.624259,137.817702 C339.985552,142.364537 338.462247,146.606711 338.236059,147.243729 C338.014488,147.876132 334.672449,157.223686 330.808793,168.016073 C326.945137,178.803843 323.635411,188.082156 323.46,188.631468 C323.266124,189.222326 320.228746,186.697332 316.009653,182.44131 C310.050298,176.426563 297.360705,166.811276 293.607835,165.467998 C292.292253,164.992542 287.763882,168.24226 331.570445,138.237765 C338.549952,133.45551 344.338512,129.545694 344.43545,129.545694 C344.532387,129.545694 343.267583,133.270867 341.624259,137.817702 M180.786317,152.847646 C194.112929,160.482636 205.297682,166.968223 205.634655,167.25442 C205.971628,167.545233 203.372778,169.876351 199.86456,172.433657 C193.679018,176.938948 185.208518,185.164795 180.255468,191.479587 C178.926038,193.173687 177.670466,194.383099 177.462742,194.17076 C177.130384,193.838402 154.834737,145.12495 151.797358,138.094667 L150.66642,135.481967 L153.611476,137.222228 C155.227103,138.182372 167.455089,145.212656 180.786317,152.847646 M264.812752,173.490739 L269.087238,174.344713 L268.357898,177.142055 C267.951684,178.679208 265.939074,186.000305 263.880304,193.404491 C251.98006,236.181669 253.194088,232.844246 251.333809,227.868116 C249.55662,223.118174 238.436492,192.901339 235.025212,183.563017 C233.437282,179.210057 232.292495,175.4895 232.48637,175.295625 C234.660542,173.121452 256.822324,171.884344 264.812752,173.490739 M297.240687,188.174477 C302.373764,192.125838 311.804407,202.359679 311.393577,203.52293 C311.28279,203.841439 307.206795,206.818809 302.341451,210.142384 C297.476107,213.465958 286.836051,220.754743 278.697909,226.335579 C270.559766,231.921031 263.737206,236.48633 263.538714,236.48633 C263.146348,236.48633 267.517772,223.884443 275.715924,201.385687 C278.513266,193.713768 280.798224,187.251262 280.798224,187.020458 C280.798224,186.79427 281.486019,185.007849 282.321529,183.055249 L283.844834,179.505486 L287.897749,181.799676 C290.13193,183.06448 294.332559,185.931064 297.240687,188.174477 M218.813553,184.749349 C220.636902,188.543763 239.045815,229.008287 240.869164,233.222765 L242.281684,236.500178 L240.190601,235.410784 C235.38065,232.899639 191.883364,207.862042 191.24173,207.229639 C188.859834,204.898521 211.704795,182.081256 216.607068,181.89167 C217.059444,181.878149 218.0519,183.161418 218.813553,184.749349 M352.735155,211.490278 C378.765208,213.992191 396.615575,215.792461 397.298754,215.986336 C397.69112,216.097122 388.865183,221.502547 377.68043,227.997366 C366.500294,234.492186 353.889174,241.840979 349.656232,244.329044 L341.961233,248.852799 L341.471929,240.169959 C340.959544,231.187075 338.979248,221.327136 336.237298,214.107593 C335.36486,211.818019 334.653985,209.828491 334.653985,209.685392 C334.653985,209.542294 335.951102,209.620767 337.539032,209.865419 C339.126962,210.110071 345.963371,210.839411 352.735155,211.490278 M321.996703,225.430828 C323.469232,230.430038 324.120099,234.778382 324.443224,241.679416 L324.877135,251.105444 L321.858221,251.105444 C320.20105,251.105444 316.08351,250.782318 312.709158,250.394568 C309.334807,250.002201 298.43625,248.940504 288.493222,248.035753 C278.550194,247.126386 269.447292,246.147778 268.265577,245.861581 C266.340673,245.390741 268.847202,243.742802 292.112226,230.208467 C322.029016,212.801243 318.451557,213.373637 321.996703,225.430828 M166.619579,218.215901 C163.891478,227.71117 162.834397,235.295383 162.825165,245.409206 L162.815932,256.252369 L154.299272,252.22715 C149.613954,250.011433 139.546292,245.196866 131.929766,241.527086 C124.313241,237.857305 115.04416,233.430488 111.332834,231.690227 C103.208541,227.881964 103.259318,227.808107 115.390366,225.721641 C120.680389,224.812274 134.007001,222.39345 145.011727,220.348528 C169.061483,215.87555 167.238133,216.055577 166.619579,218.215901 M207.711889,230.873182 C215.540755,234.649132 225.876149,239.606798 230.676869,241.896372 L239.410485,246.05084 L219.136678,249.739085 C182.766614,256.358538 181.317166,256.58011 180.721692,255.619966 C178.150538,251.460881 179.498432,234.944561 183.514418,221.354833 L184.008338,219.688429 L188.744432,221.848753 C191.347899,223.035084 199.883024,227.097231 207.711889,230.873182 M223.512718,276.064568 C213.061922,288.569518 204.268297,298.803359 203.968252,298.803359 C200.538507,298.803359 183.860624,274.148896 183.860624,269.075828 C183.860624,267.852568 183.126668,268.060292 225.405309,257.295602 C232.389433,255.518412 238.967341,253.792 240.024423,253.459642 C241.081504,253.127285 242.073961,252.961106 242.226291,253.090357 C242.378621,253.224223 233.958899,263.559617 223.512718,276.064568 M271.566071,254.138206 C274.317253,254.585965 282.455395,255.984636 289.647242,257.249441 C296.839088,258.514246 307.054465,260.286819 312.344488,261.186954 C317.634511,262.082473 322.079793,262.931831 322.232123,263.065697 C324.037009,264.713636 313.66007,284.608925 306.602089,293.033263 L304.667953,295.341302 L287.680793,278.41415 C266.793048,257.600263 261.904623,252.176373 264.646573,252.854936 C265.703654,253.118053 268.81489,253.695062 271.566071,254.138206 M277.705452,281.857743 L295.546587,302.999372 L293.432424,304.68424 C287.505382,309.411102 271.427589,315.762823 264.831216,315.98901 L261.1799,316.113644 L260.644435,308.806396 C260.349006,304.785794 259.398094,292.493183 258.530272,281.493073 C257.66245,270.492964 256.951574,260.633025 256.951574,259.589791 C256.951574,257.129423 255.668305,255.753832 277.705452,281.857743 M249.999763,288.546438 L250.069004,317.493851 L244.852838,317.009163 C234.960587,316.090564 213.888199,308.829476 214.760638,306.641456 C215.596147,304.522677 248.854976,258.934309 249.339664,259.234354 C249.662789,259.432845 249.958219,272.625591 249.999763,288.546438 M360.757895,293.619505 C372.768925,305.787482 382.42114,315.915153 382.213417,316.127492 C382.005694,316.335216 378.746744,315.970546 374.97541,315.315063 C371.204076,314.65958 363.273657,313.288606 357.351231,312.268453 C351.424189,311.243684 340.354838,309.332628 332.747545,308.021663 C325.140251,306.706081 318.806995,305.524366 318.677745,305.395116 C318.553111,305.265865 320.081032,303.156319 322.079793,300.700566 C327.208254,294.404238 332.729081,284.885889 335.5772,277.435542 C336.915861,273.936556 338.212979,271.16691 338.466863,271.282313 C338.716131,271.397714 348.746865,281.446912 360.757895,293.619505 M171.600325,283.607236 C175.828651,292.086968 180.449343,298.909529 186.18251,305.168928 C189.289129,308.561744 190.567782,310.463567 189.889219,310.694371 C189.326058,310.888246 181.289469,312.974713 172.034237,315.333528 C162.779004,317.687726 149.147731,321.182096 141.74816,323.097768 C134.343975,325.008823 128.163048,326.449039 128.006102,326.296708 C127.775298,326.065905 167.718205,277.458623 168.262902,277.310314 C168.35984,277.283212 169.860065,280.117483 171.600325,283.607236 M304.571016,330.538883 C305.078784,336.992157 305.803508,346.081211 306.182026,350.734216 C308.351582,377.318199 308.660859,381.980436 308.305422,382.34049 C308.088466,382.557445 298.528572,371.645041 287.066855,358.087625 C266.945379,334.300984 266.294512,333.428546 268.316353,332.990019 C279.570347,330.561963 291.156698,326.116681 298.879394,321.255953 C300.993557,319.926523 302.932309,318.827897 303.186193,318.823245 C303.440077,318.814049 304.063247,324.085608 304.571016,330.538883 M214.746789,326.10745 C221.717065,329.41256 231.383128,332.242215 240.024423,333.497787 C243.620346,334.02402 246.666956,334.527172 246.79159,334.614878 C246.916224,334.702584 241.575424,342.346806 234.923658,351.602038 C228.271893,360.857271 219.889098,372.582105 216.293175,377.659788 C212.697252,382.737472 209.465998,387.224298 209.119792,387.625897 C208.768971,388.027495 208.482774,373.745356 208.482774,355.890373 C208.482774,338.030774 208.61664,323.420893 208.787435,323.420893 C208.953614,323.420893 211.635554,324.630305 214.746789,326.10745 M444.645847,334.790289 C415.679969,389.560033 345.178638,446.374698 282.921618,465.111351 C275.000432,467.497863 275.22662,467.673274 287.570007,468.707275 C372.616595,475.834497 436.263053,424.092899 446.224546,339.734106 C447.323172,330.455793 447.180074,330.008034 444.645847,334.790289" id="Shape" fill="#94D344"></path>
            <path d="M247.142412,0.355437892 C247.880984,0.544697001 249.095012,0.544697001 249.833585,0.355437892 C250.572157,0.161562648 249.967451,2.62400019e-09 248.48569,2.62400019e-09 C247.00393,2.62400019e-09 246.399224,0.161562648 247.142412,0.355437892 M262.527794,0.355437892 C263.266366,0.544697001 264.480394,0.544697001 265.218966,0.355437892 C265.962155,0.161562648 265.352832,2.62400019e-09 263.875688,2.62400019e-09 C262.393928,2.62400019e-09 261.789222,0.161562648 262.527794,0.355437892 M301.187432,30.3460848 C285.714345,32.2802208 270.601311,34.8790716 268.611782,35.9500013 C267.993228,36.2823588 269.853507,37.0532435 273.227859,37.8610569 C276.334478,38.6088612 284.047941,40.9122832 290.362733,42.9849014 C298.930171,45.7960918 303.038479,46.7562357 306.519,46.7700839 C383.616704,47.0285842 454.344224,97.2607251 470.879009,163.501418 C472.056108,168.2052 472.937779,168.80529 472.573109,164.655437 C469.457257,128.996249 460.455909,104.932644 441.308425,81.0767623 C438.294127,77.3192758 435.907616,73.9449245 436.013785,73.5756381 C436.119955,73.2109682 435.773749,72.9986289 435.247516,73.1047983 C434.716668,73.2109682 434.370462,72.8647628 434.476632,72.3339139 C434.582801,71.8030651 434.236596,71.4568592 433.705747,71.563029 C433.179514,71.6691989 432.833309,71.322993 432.939478,70.7967605 C433.045648,70.2659117 432.699443,69.9197058 432.168594,70.0258756 C431.637745,70.1320455 431.291539,69.7858396 431.397709,69.2549907 C431.503879,68.7287583 431.286923,68.3825524 430.917637,68.4887222 C429.763618,68.8164636 420.023697,60.4982943 420.554546,59.6397041 C420.836127,59.1827129 420.693028,59.0488467 420.236037,59.3304273 C419.783661,59.6120078 416.66781,57.9456041 413.311923,55.6329499 C385.260028,36.3100553 338.268372,25.7115443 301.187432,30.3460848 M228.484232,48.3810945 C185.185438,65.7883177 133.406911,103.123142 106.989107,135.998837 C104.874944,138.63 107.639973,136.275801 114.296355,129.77175 C153.172949,91.8137551 198.410496,65.8067822 245.411383,54.400458 C255.197465,52.0231784 255.197465,51.9954821 245.531401,48.7873092 C235.477588,45.44527 235.773016,45.4545022 228.484232,48.3810945 M246.690037,97.5284575 C246.445385,98.1654762 244.13273,106.299002 241.547728,115.609628 C238.962725,124.920254 235.260632,138.168392 233.32188,145.055578 C229.213572,159.646995 228.936608,158.636074 236.636223,157.163546 C243.191051,155.907973 260.492104,155.635624 265.989851,156.701938 C267.790121,157.048144 269.258033,157.223555 269.258033,157.094305 C269.258033,156.81734 262.772446,138.962357 254.048062,115.226494 C250.706023,106.128208 247.779431,98.1654762 247.548627,97.5284575 C247.174725,96.5036889 247.077787,96.5036889 246.690037,97.5284575 M331.570445,138.533062 C287.763882,168.537558 292.292253,165.28784 293.607835,165.763296 C297.360705,167.106574 310.050298,176.721861 316.009653,182.736608 C320.228746,186.99263 323.266124,189.517624 323.46,188.926766 C323.635411,188.377453 326.945137,179.09914 330.808793,168.31137 C334.672449,157.518984 338.014488,148.171429 338.236059,147.539027 C338.462247,146.902008 339.985552,142.659835 341.624259,138.112999 C343.267583,133.566165 344.532387,129.840991 344.43545,129.840991 C344.338512,129.840991 338.549952,133.750807 331.570445,138.533062 M151.797358,138.389964 C154.834737,145.420248 177.130384,194.1337 177.462742,194.466057 C177.670466,194.678397 178.926038,193.468985 180.255468,191.774885 C185.208518,185.460093 193.679018,177.234245 199.86456,172.728955 C203.372778,170.171649 205.971628,167.84053 205.634655,167.549717 C205.297682,167.263521 194.112929,160.777933 180.786317,153.142943 C167.455089,145.507954 155.227103,138.477669 153.611476,137.517526 L150.66642,135.777265 L151.797358,138.389964 Z M472.656198,172.115016 C472.799296,173.573697 472.619269,179.459194 472.263831,185.19236 C462.851652,336.188828 286.328283,472.48771 145.930326,437.165495 C71.4545525,418.428842 29.2866966,349.746244 42.5025227,268.711027 C44.2243191,258.158677 44.2935603,256.847711 43.2918718,253.441047 C41.8885846,248.658792 41.9301293,248.594167 39.248189,260.319 C31.1931361,295.581206 32.2871461,333.950031 42.2117099,364.180714 C74.7227345,463.214013 186.717975,504.375564 300.462708,459.096473 C417.106337,412.663363 494.337908,291.043603 475.767433,183.036653 C474.377994,174.953904 472.189974,167.268137 472.656198,172.115016 M334.653985,209.980689 C334.653985,210.123788 335.36486,212.113316 336.237298,214.402891 C338.979248,221.622434 340.959544,231.482372 341.471929,240.465257 L341.961233,249.148096 L349.656232,244.624341 C353.889174,242.136276 366.500294,234.787483 377.68043,228.292664 C388.865183,221.797844 397.69112,216.392419 397.298754,216.281634 C396.615575,216.087758 378.765208,214.287489 352.735155,211.785575 C345.963371,211.134709 339.126962,210.405368 337.539032,210.160716 C335.951102,209.916064 334.653985,209.837591 334.653985,209.980689 M145.011727,220.643825 C134.007001,222.688747 120.680389,225.107571 115.390366,226.016938 C103.259318,228.103405 103.208541,228.177262 111.332834,231.985525 C115.04416,233.725785 124.313241,238.152602 131.929766,241.822383 C139.546292,245.492164 149.613954,250.306731 154.299272,252.522448 L162.815932,256.547666 L162.825165,245.704503 C162.834397,235.59068 163.891478,228.006467 166.619579,218.511198 C167.238133,216.350874 169.061483,216.170848 145.011727,220.643825 M335.5772,277.730839 C332.729081,285.181187 327.208254,294.699536 322.079793,300.995864 C320.081032,303.451616 318.553111,305.561163 318.677745,305.690413 C318.806995,305.819663 325.140251,307.001379 332.747545,308.31696 C340.354838,309.627926 351.424189,311.538982 357.351231,312.56375 C363.273657,313.583903 371.204076,314.954878 374.97541,315.610361 C378.746744,316.265844 382.005694,316.630514 382.213417,316.42279 C382.545775,316.090432 339.657811,272.126923 338.466863,271.57761 C338.212979,271.462208 336.915861,274.231854 335.5772,277.730839 M147.910622,301.983704 C136.808959,315.361093 127.853771,326.43506 128.006102,326.592006 C128.163048,326.744336 134.343975,325.304121 141.74816,323.393065 C149.147731,321.477393 162.779004,317.983024 172.034237,315.628825 C181.289469,313.27001 189.326058,311.183544 189.889219,310.989668 C190.567782,310.758865 189.289129,308.857041 186.18251,305.464225 C180.449343,299.204826 175.828651,292.382265 171.600325,283.902533 C169.860065,280.41278 168.35984,277.578509 168.262902,277.605611 C168.165965,277.629286 159.00767,288.601699 147.910622,301.983704 M298.879394,321.551251 C291.156698,326.411979 279.570347,330.85726 268.316353,333.285316 C266.294512,333.723844 266.945379,334.596282 287.066855,358.382923 C298.528572,371.940338 308.088466,382.852742 308.305422,382.635787 C308.660859,382.275733 308.351582,377.613496 306.182026,351.029513 C305.803508,346.376509 305.078784,337.287455 304.571016,330.83418 C304.063247,324.380905 303.440077,319.109347 303.186193,319.118543 C302.932309,319.123195 300.993557,320.221821 298.879394,321.551251 M241.227506,333.136744 C232.187162,331.896225 220.454131,327.853945 210.272347,322.480016 C208.441647,321.516333 208.379447,322.603029 208.503634,353.758488 C208.56928,371.511521 208.878226,386.015888 209.18388,385.989148 C209.687599,385.941801 212.447507,382.171521 227.873385,360.412445 C230.574317,356.60473 235.861478,349.176267 239.62059,343.906385 C243.379702,338.636502 246.290818,334.197688 246.09042,334.041539 C245.892944,333.881909 243.70159,333.4773 241.227506,333.136744 M438.095635,430.850703 L435.053641,434.118885 L438.321823,431.076891 C440.122093,429.405871 441.594621,427.933342 441.594621,427.808709 C441.594621,427.227083 440.92529,427.808709 438.095635,430.850703" id="Shape" fill="#FBFBFA"></path>
            <path d="M237.776394,174.159938 C231.452369,175.544761 231.687789,174.713868 235.025212,183.858314 C238.436492,193.196636 249.55662,223.413471 251.333809,228.163414 C252.9679,232.525605 253.18024,232.165551 256.923877,218.700457 C266.280664,185.072342 267.683951,180.008507 268.357898,177.437353 L269.087238,174.64001 L264.812752,173.786036 C259.028808,172.622785 243.841918,172.835125 237.776394,174.159938 M282.321529,183.350546 C281.486019,185.303146 280.798224,187.089568 280.798224,187.315756 C280.798224,187.546559 278.513266,194.009066 275.715924,201.680985 C267.517772,224.17974 263.146348,236.781628 263.538714,236.781628 C263.737206,236.781628 270.559766,232.216329 278.697909,226.630876 C286.836051,221.05004 297.476107,213.761256 302.341451,210.437681 C307.206795,207.114106 311.28279,204.136737 311.393577,203.818228 C312.229086,201.464029 296.635981,187.048023 287.897749,182.094973 L283.844834,179.800783 L282.321529,183.350546 Z M211.557081,185.04003 C203.132742,190.657795 189.46454,205.784676 191.24173,207.524937 C191.883364,208.15734 235.38065,233.194936 240.190601,235.706082 L242.281684,236.795476 L240.869164,233.518062 C239.045815,229.303584 220.636902,188.83906 218.813553,185.044646 C217.119453,181.517964 216.847104,181.517964 211.557081,185.04003 M292.112226,230.503764 C268.847202,244.0381 266.340673,245.686039 268.265577,246.156879 C269.447292,246.443075 278.550194,247.421683 288.493222,248.331051 C298.43625,249.235801 309.334807,250.297499 312.709158,250.689865 C316.08351,251.077616 320.20105,251.400741 321.858221,251.400741 L324.877135,251.400741 L324.443224,241.974714 C324.120099,235.07368 323.469232,230.725336 321.996703,225.726125 C318.451557,213.668934 322.029016,213.096541 292.112226,230.503764 M183.514418,221.65013 C179.498432,235.239858 178.150538,251.756179 180.721692,255.915264 C181.317166,256.875407 182.766614,256.653836 219.136678,250.034382 L239.410485,246.346138 L230.676869,242.191669 C225.876149,239.902095 215.540755,234.944429 207.711889,231.168479 C199.883024,227.392529 191.347899,223.330382 188.744432,222.14405 L184.008338,219.983726 L183.514418,221.65013 Z M240.024423,253.75494 C238.967341,254.087297 232.389433,255.81371 225.405309,257.590899 C183.126668,268.355589 183.860624,268.147865 183.860624,269.371126 C183.860624,274.444193 200.538507,299.098656 203.968252,299.098656 C204.637583,299.098656 242.618658,253.718011 242.226291,253.385654 C242.073961,253.256404 241.081504,253.422582 240.024423,253.75494 M266.709959,257.230846 C268.902595,259.737375 278.337855,269.403438 287.680793,278.709448 L304.667953,295.636599 L306.602089,293.328561 C313.66007,284.904222 324.037009,265.008934 322.232123,263.360995 C322.079793,263.227128 317.634511,262.37777 312.344488,261.482252 C307.054465,260.582116 296.839088,258.809543 289.647242,257.544738 C282.455395,256.279934 274.317253,254.881262 271.566071,254.433503 C268.81489,253.99036 265.703654,253.41335 264.646573,253.150234 C262.970937,252.734787 263.229438,253.251788 266.709959,257.230846 M256.951574,259.885089 C256.951574,260.928322 257.66245,270.788261 258.530272,281.788371 C259.398094,292.78848 260.349006,305.081091 260.644435,309.101693 L261.1799,316.408942 L264.831216,316.284308 C271.427589,316.05812 287.505382,309.706399 293.432424,304.979537 L295.546587,303.29467 L277.705452,282.153041 C255.668305,256.04913 256.951574,257.424721 256.951574,259.885089 M231.88628,282.720818 C222.607967,295.673528 214.903736,306.572083 214.760638,306.936753 C213.888199,309.124774 234.960587,316.385862 244.852838,317.304461 L250.069004,317.789149 L249.999763,288.841735 C249.958219,272.920888 249.662789,259.728143 249.339664,259.529651 C249.016539,259.326544 241.159977,269.763492 231.88628,282.720818" id="Shape" fill="#FAC414"></path>
        </g>
    </g>
</svg>