<?xml version="1.0" encoding="UTF-8"?>
<svg width="512px" height="501px" viewBox="0 0 512 501" version="1.1" xmlns="http://www.w3.org/2000/svg" xmlns:xlink="http://www.w3.org/1999/xlink">
    <title>sh</title>
    <g id="Page-1" stroke="none" stroke-width="1" fill="none" fill-rule="evenodd">
        <g id="sh" transform="translate(0.000000, 0.000000)">
            <ellipse id="Oval" fill="#41479B" cx="256" cy="250.467583" rx="256" ry="250.467583"></ellipse>
            <path d="M330.999255,319.544897 C330.854711,372.184929 322.722049,428.894019 256.002584,455.907439 C189.280392,428.894019 181.146366,372.184929 181.000458,319.544897 L330.999255,319.544897 Z M330.997891,319.544897 C331.0538,299.757328 329.975172,280.545209 330.467441,263.708526 C305.536277,252.338618 272.731541,250 256.002584,250 C239.269536,250 206.4648,252.338618 181.533636,263.708526 C182.024541,280.543846 180.950004,299.757328 181.001822,319.544897 L330.997891,319.544897 Z" id="Shape" stroke="#000000" stroke-width="2"></path>
            <g id="Group" transform="translate(181.000000, 250.000000)" fill-rule="nonzero">
                <path d="M149.999255,69.5448965 C149.854711,122.184929 141.722049,178.894019 75.0025839,205.907439 C8.28039203,178.894019 0.146366387,122.184929 0.000458467236,69.5448965 L149.999255,69.5448965 Z" id="Path" fill="#128BBF"></path>
                <path d="M74.1544089,205.907439 C104.208713,193.517538 122.826291,173.2977 133.63575,151.737419 C131.931218,151.134696 128.537154,151.080151 127.163984,151.596965 C125.533088,151.486512 63.0681343,146.664732 55.7331931,143.865209 C49.3514261,141.433865 25.0025306,145.933829 13.6380763,150.156977 C24.240264,173.091793 42.6055712,192.901179 74.1544089,205.907439 L74.1544089,205.907439 Z" id="Path" fill="#E8ECE9"></path>
                <path d="M28.1265964,173.180429 C29.1615881,172.84225 31.1402086,172.922703 31.9174751,173.06452 C32.835195,173.232246 33.0015573,173.315428 33.3356455,172.311799 C33.6683701,171.306807 34.4197278,171.559078 35.0033594,172.060892 C35.5856275,172.562706 37.0828882,172.311799 37.6665199,171.474533 C38.2501516,170.641358 38.4165139,170.724539 39.0001455,171.306807 C39.5837772,171.893166 39.8333207,171.72544 40.418316,171.559078 C41.000584,171.395443 42.0001215,170.724539 42.500572,169.804092 C43.0010225,168.883645 43.7482893,168.549557 44.164195,169.051371 C44.5814644,169.553185 44.9987338,169.804092 45.5823655,169.720911 C46.1659971,169.63773 46.3323594,170.222725 46.2491783,170.972719 C46.1659971,171.72544 46.4987217,171.893166 47.9155286,170.724539 C49.1659731,171.976347 49.5791516,171.474533 49.5791516,170.13818 C49.5791516,168.801827 49.2491542,163.866867 48.7500673,163.197327 C48.2496168,162.52915 47.7491663,160.603711 47.6659851,159.098269 C47.5091682,156.256474 47.4996228,156.088748 44.0810139,154.332398 C44.0810139,153.327406 43.8314704,152.910137 41.4178534,153.077863 C41.5010346,152.742411 41.0837652,151.737419 40.5846783,151.318786 C40.0855914,150.900153 40.0010466,150.733791 40.2505901,149.565164 C41.2514911,149.649708 42.3342097,149.483346 42.9178414,148.64608 C43.4987458,147.808814 45.4146395,147.97654 46.5819029,148.478354 C47.7491663,148.980168 49.2491542,149.064713 51.4964089,148.729261 C52.3309477,148.059721 53.7463909,147.307 55.2477425,146.469734 C56.7450032,145.633831 57.1622725,145.29838 57.2454537,144.127025 C57.4595429,141.124322 56.4109149,137.687986 55.5777398,136.100726 C54.7472919,134.510739 54.4977485,132.503482 53.3304851,129.993048 C52.0623135,127.260343 52.0800406,126.566257 50.6632338,124.893089 C50.2759642,124.432183 49.8300587,124.055823 49.7468775,123.138103 C49.6636963,122.217656 49.3296081,120.96312 48.3327979,120.042673 C45.8128182,117.721783 44.8323715,110.255934 43.832834,104.737341 C43.2573841,101.57373 43.6651081,94.1174267 42.3342097,92.9460724 C40.0842278,91.1051781 39.0001455,91.4406299 37.5001576,90.854271 C36.4160754,89.3488285 35.9183521,86.3393072 34.9188147,83.6611469 C33.3356455,83.9134176 32.2515633,85.586586 31.1688447,86.1715813 C30.0847625,86.7579402 29.9184002,86.7579402 29.9184002,88.2633827 C29.9184002,89.7660979 29.0852251,91.8578993 27.5866008,94.2006078 C26.0866128,96.540589 23.5870874,95.8751398 21.5048314,99.3851117 C16.9216863,93.7833384 16.8385052,92.1933512 16.504417,90.6033639 C16.1716924,89.0161039 15.4216984,88.6820157 12.8403554,86.4224884 C12.8403554,85.7543119 12.5076308,83.0788789 12.7571743,81.5734364 C10.8399169,79.9834491 9.42311014,80.2343562 8.5094811,81.4057105 C7.59312482,82.5784283 6.92631199,84.330687 5.50950517,85.0002271 C4.65860291,86.0856729 2.09771437,88.8211055 0.000458467236,92.077443 C1.90953406,121.1813 8.45220883,150.073796 28.1265964,173.180429 L28.1265964,173.180429 Z" id="Path" fill="#69522B"></path>
                <path d="M149.997891,69.5448965 C150.0538,49.757328 148.975172,30.5452095 149.467441,13.7085264 C124.536277,2.3386176 91.7315406,0 75.0025839,0 C58.2695364,0 25.4647996,2.3386176 0.533636007,13.7085264 C1.02454116,30.5438458 -0.0499956734,49.757328 0.00182209266,69.5448965 L149.997891,69.5448965 Z" id="Path" fill="#BCA76B"></path>
            </g>
            <g id="Group" transform="translate(156.000000, 66.000000)" fill-rule="nonzero">
                <path d="M193.103879,2.16841281e-15 L181.124926,2.16841281e-15 L117.241864,41.8540697 L117.241864,2.16841281e-15 L82.758917,2.16841281e-15 L82.758917,41.8540697 L18.875855,2.16841281e-15 L6.89690194,2.16841281e-15 C3.08802688,2.16841281e-15 0,3.08802688 0,6.89690194 L0,12.3672358 L54.8088078,48.2759698 L0,48.2759698 L0,82.758917 L54.8088078,82.758917 L0,118.668432 L0,124.137985 C0,127.94686 3.08802688,131.034887 6.89690194,131.034887 L18.875855,131.034887 L82.758917,89.1808171 L82.758917,131.034887 L117.241864,131.034887 L117.241864,89.1808171 L181.124145,131.034887 L193.103098,131.034887 C196.911973,131.034887 200,127.94686 200,124.137985 L200,118.667651 L145.191973,82.758917 L200,82.758917 L200,48.2759698 L145.191192,48.2759698 L200,12.3672358 L200,6.89690194 C200,5.06780166 199.273745,3.31354567 197.980449,2.02010319 C196.687153,0.726660717 194.93298,2.16841281e-15 193.103879,2.16841281e-15 Z" id="Path" fill="#F5F5F5"></path>
                <g fill="#FF4B55">
                    <polygon id="Path" points="200 55.1728718 110.344962 55.1728718 110.344962 2.94904143e-15 89.6550377 2.94904143e-15 89.6550377 55.1728718 0 55.1728718 0 75.8620151 89.6550377 75.8620151 89.6550377 131.034887 110.344962 131.034887 110.344962 75.8620151 200 75.8620151"></polygon>
                    <path d="M75.8620151,48.2759698 L3.28673159,1.16562955 C1.35547404,2.38829058 0,4.4414236 0,6.89690194 L0,7.25471584 L63.1947781,48.2759698 L75.8620151,48.2759698 Z M129.909101,48.2759698 L198.951558,3.45860726 C197.751554,1.42813058 195.634358,5.55113681e-15 193.103879,5.55113681e-15 L191.612467,5.55113681e-15 L117.241864,48.2759698 L129.909101,48.2759698 Z M69.9018355,82.758917 L0.991410122,127.490342 C2.17969601,129.570037 4.32970441,131.034887 6.89690194,131.034887 L8.19768827,131.034887 L82.5690725,82.758917 L69.9018355,82.758917 Z M199.890625,124.680956 L135.30756,82.7596983 L122.641104,82.7596983 L195.979672,130.364572 C198.177337,129.345036 199.683592,127.208309 199.890625,124.680956 Z" id="Shape"></path>
                </g>
            </g>
        </g>
    </g>
</svg>