<?xml version="1.0" encoding="UTF-8"?>
<svg width="512px" height="501px" viewBox="0 0 512 501" version="1.1" xmlns="http://www.w3.org/2000/svg" xmlns:xlink="http://www.w3.org/1999/xlink">
    <title>waua</title>
    <g id="Page-1" stroke="none" stroke-width="1" fill="none" fill-rule="evenodd">
        <g id="waua" fill-rule="nonzero">
            <ellipse id="Oval" fill="#008751" cx="256" cy="250.467583" rx="256" ry="250.467583"></ellipse>
            <g id="WAUA" transform="translate(29.025000, 192.600000)" fill="#FFFFFF">
                <polygon id="Path" points="-1.0658141e-14 0 22.5 0 37.2 60.3 39 71.55 40.2 71.55 42.6 60.3 61.5 0 81.45 0 99.9 60.3 102.3 71.25 103.5 71.25 105.3 60.3 119.85 0 142.35 0 114.6 107.4 92.85 107.4 74.55 42.6 72.15 31.05 70.95 31.05 68.55 42.6 49.35 107.4 28.5 107.4"></polygon>
                <path d="M180.75,0 L204,0 L244.35,107.4 L222,107.4 L213,81.75 L171.9,81.75 L162.9,107.4 L140.55,107.4 L180.75,0 Z M206.4,63.15 L196.95,36.15 L193.05,23.25 L191.85,23.25 L187.95,36.15 L178.35,63.15 L206.4,63.15 Z" id="Shape"></path>
                <path d="M297.15,109.8 C288.75,109.8 281.425,108 275.175,104.4 C268.925,100.8 264.075,95.6 260.625,88.8 C257.175,82 255.45,73.95 255.45,64.65 L255.45,0 L275.55,0 L275.55,65.85 C275.55,73.25 277.425,79.225 281.175,83.775 C284.925,88.325 290.25,90.6 297.15,90.6 C304.05,90.6 309.375,88.325 313.125,83.775 C316.875,79.225 318.75,73.25 318.75,65.85 L318.75,0 L338.85,0 L338.85,64.65 C338.85,73.55 337.15,81.4 333.75,88.2 C330.35,95 325.5,100.3 319.2,104.1 C312.9,107.9 305.55,109.8 297.15,109.8 Z" id="Path"></path>
                <path d="M391.65,0 L414.9,0 L455.25,107.4 L432.9,107.4 L423.9,81.75 L382.8,81.75 L373.8,107.4 L351.45,107.4 L391.65,0 Z M417.3,63.15 L407.85,36.15 L403.95,23.25 L402.75,23.25 L398.85,36.15 L389.25,63.15 L417.3,63.15 Z" id="Shape"></path>
            </g>
        </g>
    </g>
</svg>