<svg viewBox="0 0 640 480" xmlns="http://www.w3.org/2000/svg" xmlns:xlink="http://www.w3.org/1999/xlink"><path d="m0 0h640v480h-640z" fill="#74acdf" stroke-width=".876356"/><path d="m0 160h640v160h-640z" fill="#fff" stroke-width=".876356"/><g id="a" transform="matrix(.96 0 0 .96 -64 0)"><path id="b" d="m396.8 251.3 28.5 62s.5 1.2 1.3.9c.8-.4.3-1.6.3-1.6l-23.7-64m-.7 24.2c-.4 9.4 5.4 14.6 4.7 23-.8 8.5 3.8 13.2 5 16.5 1 3.3-1.2 5.2-.3 5.7 1 .5 3-2.1 2.4-6.8-.7-4.6-4.2-6-3.4-16.3s-4.2-12.7-3-22" fill="#f6b40e" stroke="#85340a" stroke-width="1.1"/><use height="100%" transform="matrix(.92387953 .38268343 -.38268343 .92387953 126.119045 -134.043256)" width="100%" xlink:href="#b"/><use height="100%" transform="matrix(.70710678 .70710678 -.70710678 .70710678 293.933983 -209.619408)" width="100%" xlink:href="#b"/><use height="100%" transform="matrix(.38268343 .92387953 -.92387953 .38268343 477.89651 -215.222671)" width="100%" xlink:href="#b"/><path id="c" d="m404.3 274.4c.5 9 5.6 13 4.6 21.3 2.2-6.5-3.1-11.6-2.8-21.2m-7.7-23.8 19.5 42.6-16.3-43.9" fill="#85340a"/><use height="100%" transform="matrix(.92387953 .38268343 -.38268343 .92387953 126.119045 -134.043256)" width="100%" xlink:href="#c"/><use height="100%" transform="matrix(.70710678 .70710678 -.70710678 .70710678 293.933983 -209.619408)" width="100%" xlink:href="#c"/><use height="100%" transform="matrix(.38268343 .92387953 -.92387953 .38268343 477.89651 -215.222671)" width="100%" xlink:href="#c"/></g><use height="100%" transform="matrix(0 1 -1 0 560 -80)" width="100%" xlink:href="#a"/><use height="100%" transform="matrix(-1 0 0 -1 640 480)" width="100%" xlink:href="#a"/><use height="100%" transform="matrix(0 -1 1 0 80 560)" width="100%" xlink:href="#a"/><circle cx="320" cy="240" fill="#f6b40e" r="26.7" stroke="#85340a" stroke-width="1.4"/><path id="d" d="m329 234.3c-1.7 0-3.5.8-4.5 2.4 2 1.9 6.6 2 9.7-.2a7 7 0 0 0 -5.1-2.2zm0 .4c1.8 0 3.5.8 3.7 1.6-2 2.3-5.3 2-7.4.4 1-1.4 2.4-2 3.8-2z" fill="#843511" stroke-width=".96"/><use height="100%" transform="matrix(-1 0 0 1 640.2 0)" width="100%" xlink:href="#f"/><use height="100%" transform="matrix(-1 0 0 1 640.2 0)" width="100%" xlink:href="#e"/><use height="100%" transform="translate(18.1)" width="100%" xlink:href="#g"/><use height="100%" transform="matrix(-1 0 0 1 640.2 0)" width="100%" xlink:href="#h"/><path d="m316 243.7a1.8 1.8 0 1 0 1.8 2.9c.7.5 1.7.6 2.2.6h.2c.6 0 1.6-.1 2.3-.6.3.5.9.7 1.5.7a1.8 1.8 0 0 0 .3-3.6c.5.2.8.6.8 1.2a1.2 1.2 0 0 1 -2.4 0 3 3 0 0 1 -2.6 1.7 3 3 0 0 1 -2.5-1.7c0 .7-.6 1.2-1.3 1.2-.6 0-1.2-.6-1.2-1.2s.3-1 .8-1.2z" fill="#85340a" stroke-width=".96"/><path d="m318 249.1c-2.1 0-3 2-4.8 3.1 1-.4 1.8-1.2 3.3-2 1.4-.8 2.6.2 3.5.2.8 0 2-1 3.5-.2 1.4.8 2.3 1.6 3.3 2-1.9-1.2-2.7-3-4.8-3-.4 0-1.2.2-2 .6z" fill="#85340a" stroke-width=".96"/><path d="m317.2 251.6c-.8 0-1.8.2-3.4.6 3.7-.8 4.5.5 6.2.5 1.6 0 2.5-1.3 6.1-.5-4-1.2-4.9-.4-6.1-.4-.8 0-1.4-.3-2.8-.2z" fill="#85340a" stroke-width=".96"/><path d="m314 252.2h-.8c4.3.5 2.3 3 6.8 3s2.5-2.5 6.8-3c-4.5-.4-3.1 2.3-6.8 2.3-3.5 0-2.4-2.3-6-2.3z" fill="#85340a" stroke-width=".96"/><path d="m323.7 258.9a3.7 3.7 0 0 0 -7.4 0 3.8 3.8 0 0 1 7.4 0z" fill="#85340a" stroke-width=".96"/><path id="e" d="m303.4 234.3c4.7-4.1 10.7-4.8 14-1.7a8 8 0 0 1 1.5 3.4c.4 2.4-.3 4.9-2.1 7.5l.8.4c1.6-3.1 2.2-6.3 1.6-9.4l-.6-2.3c-4.5-3.7-10.7-4-15.2 2z" fill="#85340a" stroke-width=".96"/><path id="f" d="m310.8 233c2.7 0 3.3.6 4.5 1.7 1.2 1 1.9.8 2 1 .3.2 0 .8-.3.6-.5-.2-1.3-.6-2.5-1.6s-2.5-1-3.7-1c-3.7 0-5.7 3-6.1 2.8-.5-.2 2-3.5 6.1-3.5z" fill="#85340a" stroke-width=".96"/><use height="100%" transform="translate(-18.4)" width="100%" xlink:href="#d"/><circle id="g" cx="310.9" cy="236.3" fill="#85340a" r="1.8" stroke-width=".96"/><path id="h" d="m305.9 237.5c3.5 2.7 7 2.5 9 1.3 2-1.3 2-1.7 1.6-1.7s-.8.4-2.4 1.3c-1.7.8-4.1.8-8.2-.9z" fill="#85340a" stroke-width=".96"/></svg>