<svg viewBox="0 88 512 334" xmlns="http://www.w3.org/2000/svg"><path d="M503.172 423.724H8.828A8.829 8.829 0 010 414.896V97.104a8.829 8.829 0 018.828-8.828h494.345a8.829 8.829 0 018.828 8.828v317.792a8.83 8.83 0 01-8.829 8.828z" fill="#4173cd"/><path d="M0 317.79h512v17.655H0zm0 35.31h512v17.655H0z" fill="#ffe15a"/><path d="M65.232 175.942l-32.848-11.217 32.848-11.216 11.217-32.844 11.216 32.844 32.848 11.216-32.848 11.217-11.216 32.845z" fill="#ff4b55"/><path d="M76.449 126.567l9.714 28.445 28.445 9.714-28.445 9.714-9.714 28.445-9.714-28.445-28.445-9.714 28.445-9.714zm0-11.808l-3.612 10.574-9.108 26.673-26.672 9.108-10.574 3.612 10.574 3.61 26.672 9.108 9.108 26.672 3.612 10.574 3.612-10.574 9.108-26.672 26.672-9.108 10.574-3.61-10.574-3.61-26.672-9.108-9.108-26.672z" fill="#f5f5f5"/></svg>