<svg height="336" width="512" xmlns="http://www.w3.org/2000/svg"><g fill="none"><path d="M503.172 335.724H8.828A8.829 8.829 0 010 326.896V9.104A8.829 8.829 0 018.828.276h494.345a8.829 8.829 0 018.828 8.828v317.792a8.829 8.829 0 01-8.829 8.828z" fill="#f7931a"/><path d="M393.283 135.072c5.713-35.304-23.408-54.283-63.228-66.943l12.917-47.824-31.547-7.255-12.576 46.564c-8.282-1.907-16.797-3.707-25.259-5.49l12.666-46.87L254.736 0 241.81 47.807c-6.863-1.443-13.6-2.869-20.139-4.37l.036-.149-43.494-10.024-8.39 31.092s23.4 4.95 22.906 5.257c12.773 2.943 15.09 10.745 14.696 16.93l-14.714 54.482c.88.207 2.021.505 3.279.97l-3.324-.763-20.633 76.32c-1.563 3.582-5.524 8.955-14.453 6.915.315.423-22.923-5.281-22.923-5.281L119 252.516l41.05 9.444c7.636 1.766 15.118 3.615 22.475 5.356l-13.052 48.379 31.502 7.255 12.935-47.857c8.596 2.156 16.95 4.146 25.124 6.02l-12.88 47.632L257.69 336l13.052-48.28c53.779 9.394 94.227 5.605 111.231-39.283 13.717-36.15-.673-57.002-28.969-70.608 20.607-4.402 36.128-16.914 40.27-42.757zm-72.311 92.095c-9.745 35.74-75.607 16.427-96.972 11.574l17.3-63.356c21.356 4.869 89.83 14.509 79.68 51.782zm12.016-93.112c-8.936 33.112-64.088 16.289-81.988 12.164l15.778-58.527c17.9 4.125 75.526 11.823 66.21 46.363z" fill="#fff"/></g></svg>