<svg height="336" width="512" xmlns="http://www.w3.org/2000/svg"><g fill="none"><path d="M503.172 335.724H8.828A8.829 8.829 0 010 326.896V9.104A8.829 8.829 0 018.828.276h494.345a8.829 8.829 0 018.828 8.828v317.792a8.829 8.829 0 01-8.829 8.828z" fill="#35baeb"/><path d="M224.493 210.582L152 138.216v86.975h66.812a35.536 35.536 0 015.681-14.61zm-5.68 28.879H152a104.596 104.596 0 0025.317 61.38l47.176-47.618a30.629 30.629 0 01-5.68-13.762zm105.373-85.773c-17.025-15.134-38.697-24.038-61.47-25.29v66.627a36.067 36.067 0 0114.294 5.603zm-36.153 98.841l47.175 47.093A103.048 103.048 0 00360 239.105h-67.151a40.457 40.457 0 01-4.816 13.424zm4.832-27.321h66.813a104.597 104.597 0 00-25.318-61.38l-47.192 47.262a33.207 33.207 0 015.697 14.118zM187.39 310.727A100.812 100.812 0 00248.878 336v-66.78a36.067 36.067 0 01-14.295-5.603zm75.325-41.524v66.695a103.27 103.27 0 0061.488-25.628l-46.854-46.772a39.607 39.607 0 01-14.634 5.705zM152 116.65c17.907 17.875 74.053 74.431 83.515 83.707a42.66 42.66 0 0113.092-5.332V86.13L152.17 0C152 0 152 113.467 152 116.65z" fill="#fff"/></g></svg>