<svg viewBox="0 0 640 480" xmlns="http://www.w3.org/2000/svg"><path d="m0 0h640v480h-640z" fill="#039" stroke-width="2.05565"/><circle cx="320" cy="249.8" fill="none" r="30.4" stroke="#fc0" stroke-width="27.4847"/><circle cx="320" cy="249.8" fill="none" r="88.3" stroke="#fc0" stroke-width="27.4847"/><g stroke-width="1.96319"><path d="m402.9-169.4h119.8v119.8h-119.8z" fill="#039" transform="matrix(.70710678 .70710678 -.70710678 .70710678 0 0)"/><path d="m175.7 236.1h59.2v27.5h-59.2z" fill="#fc0"/><path d="m434.8 236.1h88.3v27.5h-88.3z" fill="#fc0"/><path d="m124.2 389.2h54.8v27.5h-54.8z" fill="#fc0" transform="matrix(.70710678 -.70710678 .70710678 .70710678 0 0)"/><path d="m306.3 48.6h27.5v107.1h-27.5z" fill="#fc0"/><circle cx="225.1" cy="159.6" fill="#fc0" r="13.7"/><circle cx="144.3" cy="249.8" fill="#fc0" r="13.7"/><circle cx="320" cy="381.4" fill="#fc0" r="13.7"/><circle cx="320" cy="425.5" fill="#fc0" r="13.7"/><circle cx="408.3" cy="249.8" fill="#fc0" r="13.7"/><path d="m-94.2 388.8h27.5v27.5h-27.5z" fill="#fc0" transform="matrix(.70710678 -.70710678 .70710678 .70710678 0 0)"/><path d="m35.8 548.4h27.5v27.5h-27.5z" fill="#fc0" transform="matrix(.70710678 -.70710678 .70710678 .70710678 0 0)"/></g></svg>