<svg height="336" width="512" xmlns="http://www.w3.org/2000/svg"><g fill="none"><path d="M503.172 335.724H8.828A8.829 8.829 0 010 326.896V9.104A8.829 8.829 0 018.828.276h494.345a8.829 8.829 0 018.828 8.828v317.792a8.829 8.829 0 01-8.829 8.828z" fill="#2573c2"/><g fill="#fff"><path d="M485.667 75.666a50.483 50.483 0 00-6.753-22.359c-3.517-7.03-9.777-12.515-17.093-15.327a50.495 50.495 0 00-24.058-5.274H125.578l-22.37 67.006h282.853l-44.669 136.965H58.61l-22.369 67.006h313.663a86.675 86.675 0 0027.364-5.274c8.793-4.992 18.852-10.054 27.363-17.085a134.567 134.567 0 0022.37-22.359 151.917 151.917 0 0013.787-25.804l41.432-130.215a48.275 48.275 0 003.447-27.28z"/><path d="M214.81 138.173H48.563L26.22 200.012h167.933z"/></g></g></svg>