<svg height="336" viewBox="0 0.276 512.001 335.448" width="512" xmlns="http://www.w3.org/2000/svg"><g fill="none"><path d="M503.172 335.724H8.828A8.829 8.829 0 010 326.896V9.104A8.829 8.829 0 018.828.276h494.345a8.829 8.829 0 018.828 8.828v317.792a8.829 8.829 0 01-8.829 8.828z" fill="#c2a633"/><g fill="#fff"><path d="M260.48 118H239v42.173h33.795v17.657H239V220h22.533c5.79 0 47.532.65 47.467-49.064C308.935 121.22 268.515 118 260.48 118z"/><path d="M256.5 19C173.933 19 107 85.933 107 168.5S173.933 318 256.5 318 406 251.067 406 168.5 339.067 19 256.5 19zm-48.268 230.245v-71.978h-19.085v-17.632h19.084V87.652h46.468c10.992 0 83.803-2.283 83.803 82.147 0 85.827-76.127 79.446-76.127 79.446z"/></g></g></svg>