<svg height="336" width="512" xmlns="http://www.w3.org/2000/svg"><g fill="none" fill-rule="evenodd"><path d="M503.172 335.724H8.828A8.829 8.829 0 010 326.896V9.104A8.829 8.829 0 018.828.276h494.345a8.829 8.829 0 018.828 8.828v317.792a8.829 8.829 0 01-8.829 8.828z" fill="#5db842" fill-rule="nonzero"/><path d="M89.341 10h334v316h-334z"/><g fill="#fff" fill-rule="nonzero"><path d="M197.689 255.885l-7.829 10.843c.12 9.39-.369 18.955-2.683 28.063 65.127 46.984 174.177 36.86 219.908-30.325-86.55 79.168-183.118 27.794-209.396-8.58z"/><path d="M91.42 209.804c7.305-8.524 27.177-8.894 39.53-7.836-10.17-23.787-19.152-90.051 42.41-145.988-27.28 56.496 88.8 84.757 20.647 195.062-29.155-47.614-53.642-128.047-35.28-169.462-36.703 58.741 15.352 154.797 25.393 171.462l-3.128.79c2.69 5.463 4.762 17.717.862 33.285-11.855-25.606-39.086-78.075-73.874-78.64 26.761 4.067 66.575 70.032 70.24 83.48-74.058 3.415-58.99-87.614-86.8-82.153z"/><path d="M299.847 57.706c-37.584-.102-76.195 18.663-100.825 61.02 30.21 39.88 34.066 75.887 10.71 122.51 47.986 63.631 137.673 54.62 180.96.55-13.816-7.802-30.927-18.499-44.243-25.134-16.05 22.94-85.025 36.562-105.438-23.036h168.682c12.575-83.151-47.207-135.738-109.846-135.91zm60.527 91.11H241.011c24.403-61.733 106.483-47.402 119.363 0z"/><path d="M188.528 101.128c-11.836-15.564-19.327-42.81-2.492-54.814 80.604-57.472 190.616-29.447 235.597 48.45-72.34-87.375-192.626-64.404-233.105 6.364z"/></g></g></svg>