<svg height="336" width="512" xmlns="http://www.w3.org/2000/svg"><g fill="none"><path d="M503.172 335.724H8.828A8.829 8.829 0 010 326.896V9.104A8.829 8.829 0 018.828.276h494.345a8.829 8.829 0 018.828 8.828v317.792a8.829 8.829 0 01-8.829 8.828z" fill="#bea9d2"/><g fill="#fff"><path d="M350.844 0H158.812l-97.52 168 97.52 168h193.565l98.915-168.61zm-19.658 299.743H180.081l-76.054-130.956 76.054-130.935H329.91l78.354 130.581z"/><path d="M182.292 127.749h55.114v25.84h-55.114v30.998h86.135v-56.838h25.844v79.234H182.292V238h143V95h-143z"/></g></g></svg>