<svg viewBox="0 88 512 334" xmlns="http://www.w3.org/2000/svg"><path d="M503.172 423.725H8.828A8.829 8.829 0 010 414.897V97.104a8.829 8.829 0 018.828-8.828h494.345a8.829 8.829 0 018.828 8.828v317.793a8.83 8.83 0 01-8.829 8.828z" fill="#41479b"/><path d="M259.59 126.686l3.54 10.613 11.187.087c1.449.011 2.049 1.859.884 2.72l-9 6.646 3.374 10.666c.437 1.38-1.135 2.524-2.314 1.681l-9.101-6.506-9.101 6.506c-1.178.842-2.751-.3-2.314-1.681l3.374-10.666-9-6.646c-1.165-.861-.565-2.709.884-2.72l11.187-.087 3.54-10.613c.457-1.374 2.402-1.374 2.86 0zm0 227.862l3.54 10.613 11.187.087c1.449.011 2.049 1.859.884 2.72l-9 6.646 3.374 10.666c.437 1.38-1.135 2.524-2.314 1.681l-9.101-6.506-9.101 6.506c-1.178.842-2.751-.3-2.314-1.681l3.374-10.666-9-6.646c-1.165-.861-.565-2.709.884-2.72l11.187-.087 3.54-10.613c.457-1.374 2.402-1.374 2.86 0zm113.931-113.931l3.54 10.613 11.187.087c1.449.011 2.049 1.859.884 2.72l-9 6.646 3.374 10.666c.437 1.38-1.135 2.524-2.314 1.681l-9.101-6.506-9.101 6.506c-1.178.842-2.751-.3-2.314-1.681l3.374-10.666-9-6.646c-1.165-.861-.565-2.709.884-2.72l11.187-.087 3.54-10.613c.457-1.374 2.402-1.374 2.86 0zm-227.863 0l3.54 10.613 11.187.087c1.449.011 2.049 1.859.884 2.72l-9 6.646 3.374 10.666c.437 1.38-1.135 2.524-2.314 1.681l-9.101-6.506-9.101 6.506c-1.178.842-2.751-.3-2.314-1.681l3.374-10.666-9-6.646c-1.165-.861-.565-2.709.884-2.72l11.187-.087 3.54-10.613c.458-1.374 2.403-1.374 2.86 0zm17.104-59.496l3.54 10.613 11.187.087c1.449.011 2.049 1.859.884 2.72l-9 6.646 3.374 10.666c.437 1.38-1.135 2.524-2.314 1.681l-9.101-6.506-9.101 6.506c-1.178.842-2.751-.3-2.314-1.681l3.374-10.666-9-6.646c-1.165-.861-.565-2.709.884-2.72l11.187-.087 3.54-10.613c.458-1.374 2.401-1.374 2.86 0zm197.334 113.931l3.54 10.613 11.187.087c1.449.011 2.049 1.859.884 2.72l-9 6.646 3.374 10.666c.437 1.38-1.135 2.524-2.314 1.681l-9.101-6.506-9.101 6.506c-1.178.842-2.751-.3-2.314-1.681l3.374-10.666-9-6.646c-1.165-.861-.565-2.709.884-2.72l11.187-.087 3.54-10.613c.458-1.374 2.402-1.374 2.86 0zm-41.701-155.633l3.54 10.613 11.187.087c1.449.011 2.049 1.859.884 2.72l-9 6.646 3.374 10.666c.437 1.38-1.135 2.524-2.314 1.681l-9.101-6.506-9.101 6.506c-1.178.842-2.751-.3-2.314-1.681l3.374-10.666-9-6.646c-1.165-.861-.565-2.709.884-2.72l11.187-.087 3.54-10.613c.457-1.374 2.4-1.374 2.86 0zM204.463 336.754l3.54 10.613 11.187.087c1.449.011 2.049 1.859.884 2.72l-9 6.646 3.374 10.666c.437 1.38-1.135 2.524-2.314 1.681l-9.101-6.506-9.101 6.506c-1.178.842-2.751-.3-2.314-1.681l3.374-10.666-9-6.646c-1.165-.861-.565-2.709.884-2.72l11.187-.087 3.54-10.613c.458-1.374 2.401-1.374 2.86 0zm152.773-155.633l-3.54 10.613-11.187.087c-1.449.011-2.049 1.859-.884 2.72l9 6.646-3.374 10.666c-.437 1.38 1.135 2.524 2.314 1.681l9.101-6.506 9.101 6.506c1.178.842 2.751-.3 2.314-1.681l-3.374-10.666 9-6.646c1.165-.861.565-2.709-.884-2.72l-11.187-.087-3.54-10.613c-.458-1.374-2.402-1.374-2.86 0zM159.902 295.052l-3.54 10.613-11.187.087c-1.449.011-2.049 1.859-.884 2.72l9 6.646-3.374 10.666c-.437 1.38 1.135 2.524 2.314 1.681l9.101-6.506 9.101 6.506c1.178.842 2.751-.3 2.314-1.681l-3.374-10.666 9-6.646c1.165-.861.565-2.709-.884-2.72l-11.187-.087-3.54-10.613c-.459-1.374-2.402-1.374-2.86 0zm41.701-155.633l-3.54 10.613-11.187.087c-1.449.011-2.049 1.859-.884 2.72l9 6.646-3.374 10.666c-.437 1.38 1.135 2.524 2.314 1.681l9.101-6.506 9.101 6.506c1.178.842 2.751-.3 2.314-1.681l-3.374-10.666 9-6.646c1.165-.861.565-2.709-.884-2.72l-11.187-.087-3.54-10.613c-.459-1.374-2.402-1.374-2.86 0zm113.931 197.335l-3.54 10.613-11.187.087c-1.449.011-2.049 1.859-.884 2.72l9 6.646-3.374 10.666c-.437 1.38 1.135 2.524 2.314 1.681l9.101-6.506 9.101 6.506c1.178.842 2.751-.3 2.314-1.681l-3.374-10.666 9-6.646c1.165-.861.565-2.709-.884-2.72l-11.187-.087-3.54-10.613c-.459-1.374-2.402-1.374-2.86 0z" fill="#ffe15a"/></svg>