<svg height="336" width="512" xmlns="http://www.w3.org/2000/svg"><g fill="none"><path d="M503.172 335.724H8.828A8.829 8.829 0 010 326.896V9.104A8.829 8.829 0 018.828.276h494.345a8.829 8.829 0 018.828 8.828v317.792a8.829 8.829 0 01-8.829 8.828z"/><path d="M216.43 7.078l-10.747 3.59c-6.568 2.393-6.568 2.393-10.747 4.188-5.374 2.393-5.374 2.393-8.359 3.59-4.776 2.992-4.776 2.992-7.761 4.188-4.777 2.992-4.777 2.992-6.568 4.787-4.776 2.991-4.776 2.991-7.164 4.786-5.97 3.59-6.568 3.59-8.359 5.385l-8.955 7.18c11.94-11.368 30.449-22.736 49.554-30.514 6.567-3.59 13.135-5.385 19.105-7.18" fill="#417ba4"/><path d="M122.694 74.09c-1.194 1.196-2.985 4.187-4.18 5.384 1.195-1.795 2.389-4.188 4.18-5.385" fill="#d37d41"/><path d="M225.385 294.867c-3.582 4.786-7.165 10.17-8.359 14.359 1.791-4.786 4.777-9.573 8.359-14.36" fill="#e8b521"/><path d="M100.007 209.906c-.597 3.59 0 6.582.597 8.975-.597-2.393-1.194-5.385-.597-8.975m35.225 71.2c-2.985-3.59-6.568-7.18-8.359-10.77 2.986 3.59 7.165 8.376 10.15 11.966-.597-.598-1.194-1.197-1.791-1.197" fill="#417ba4"/><path d="M216.43 327.175c-2.389-2.991-2.986-5.384-2.389-10.17 0 3.589.597 7.179 2.388 10.17M94.036 149.476c0-1.196.597-2.991.597-4.188.597-4.188 1.194-8.376 2.388-12.564v1.196l-1.194 5.385z" fill="#e8b521"/><path d="M122.694 74.09c2.388-2.993 3.582-5.386 6.568-8.377l-2.389 2.991c-2.985 2.992-5.373 7.778-7.761 11.368.597-2.393 1.791-4.786 3.582-5.983" fill="#d37d41"/><path d="M325.956 99.107h-2.387c0-.598.596-1.196.596-1.196h.597c1.194 0 1.194 1.196 1.194 1.196" fill="#eff3c9"/><path d="M139.77 54.241c2.386-3.59 5.37-6.58 8.95-10.17 5.371-4.785 5.371-4.785 8.355-7.178 4.774-4.188 4.774-4.188 7.758-5.384 4.774-3.59 4.774-3.59 7.16-4.786 5.372-2.99 5.372-2.99 7.162-4.187 4.774-2.991 4.774-2.991 7.758-4.188 5.37-2.99 5.37-2.99 8.354-3.59 5.37-2.392 6.564-2.99 10.742-4.187 7.16-2.392 7.16-2.392 10.741-4.187C238.233 1 251.362 3.99 248.975 15.955c-.597 4.188-3.58 8.375-7.758 12.563-3.58 1.196-11.338 0-12.532-1.197 3.58-4.187 5.37-7.776 6.564-10.767 2.984-11.965-14.918-12.563-40.579-2.393-20.29 8.973-38.789 21.535-47.143 32.303-2.984 2.991-5.37 4.786-7.758 7.777m0 0c-2.984 2.991-4.177 4.786-4.774 7.777.597-2.991 1.79-4.786 4.774-7.777" fill="#417ba4"/><path d="M248.975 1.598c4.177 0 10.144-.598 14.322-.598 14.918 0 22.08 5.384 19.096 16.75-3.58 13.759-22.677 32.902-47.144 49.652-4.774 2.393-10.144-4.188-8.354-7.179 0-.598.597-.598.597-.598 22.08-14.955 38.192-31.107 41.772-43.071C272.248 5.188 262.7.402 246.588 1.598zm-128.899 77.17c-.596 1.794-2.387 4.187-3.58 5.982.597-2.393 1.79-4.188 3.58-5.982" fill="#d37d41"/><path d="M333.713 17.75c8.355 4.188 11.935 11.366 8.952 22.134-8.355 32.304-70.417 80.759-138.447 110.071-12.531 5.384-25.66 10.17-36.998 13.76-6.565.597-7.161-7.778-4.178-11.965.597-1.196 1.194-1.196 2.387-2.393 10.742-2.99 22.08-7.178 34.015-11.964 64.45-27.518 122.931-74.179 130.689-104.09 2.984-10.767-1.194-17.946-10.742-21.535 4.178 1.795 10.145 4.187 14.322 5.982m73.4 70.59l2.388 3.589c2.387 5.384 2.387 5.384 2.387 8.375v.598c-2.387-.598-6.565-8.973-7.161-12.563 0-4.187-.597-7.178-2.984-10.17z" fill="#e8b521"/><path d="M422.032 126.027c.597 3.59.597 7.777-.596 12.562-8.355 31.107-61.466 77.17-125.915 110.67-7.16 2.991-11.338-2.393-10.145-7.179.597-2.392 2.387-3.589 3.581-4.187 65.046-34.098 119.35-80.76 128.301-112.464 1.194-5.384 1.194-10.768 0-14.956 1.79 5.384 4.178 10.768 4.774 15.554" fill="#417ba4"/><path d="M426.806 155.34v5.383c0 2.991 0 4.786-.596 8.375-4.774 19.143-28.048 43.67-60.272 68.197-4.774 3.589-7.758-1.197-7.161-4.786.597-2.991 2.984-4.786 3.58-5.384 33.418-24.527 57.288-50.25 62.062-69.991.597-3.59 1.194-7.179.597-10.768z" fill="#d37d41"/><path d="M134.398 72.786c-.596-2.393-1.193-3.59-.596-6.58-1.194 2.99-.597 4.187.596 6.58m72.804-21.536c.597.598 1.194 2.991 0 4.188-7.16 4.187-14.919 8.374-23.273 11.366-24.467 10.767-44.757 11.964-49.53 4.785 2.983-3.589 6.564-7.178 8.95-10.768 4.178 5.384 19.693 4.188 39.386-4.187 6.565-2.393 13.129-5.384 18.5-8.973 2.387-.599 4.774 2.99 5.967 3.589" fill="#417ba4"/><path d="M116.496 99.705c-1.194-2.392-2.387-4.785-2.387-8.375 0 2.991 0 5.384 2.387 8.375m57.288-7.178c0 3.59-.597 8.375-31.031 12.562-8.355 1.197-20.29.599-26.257-5.384 2.387-4.187 4.177-7.776 7.16-11.964 5.372 7.179 23.274 7.179 47.144-.598 2.984-1.197 2.984 5.384 2.984 5.384" fill="#d37d41"/><path d="M104.56 129.616c-2.386-2.991-2.983-6.58-2.386-10.768-.597 4.188 0 7.777 2.387 10.768M296.715 5.187c2.984.599 4.774 1.197 6.564 1.197 8.951 3.59 12.532 10.17 10.145 19.741-7.161 26.92-60.272 68.795-118.157 93.321-45.95 19.143-81.158 22.733-90.706 8.974 1.193-3.59 2.984-7.777 4.177-11.965 8.355 11.965 41.176 8.974 82.949-8.375C244.2 84.75 293.134 46.464 299.699 22.536c2.387-8.973-.597-14.956-8.355-17.947 1.193-.598 1.193-.598 5.37.599" fill="#417ba4"/><path d="M106.351 161.321c-.597 2.393-1.193 4.786-2.984 4.188-7.16-3.59-10.144-8.973-8.95-17.946-.598 4.785.596 8.973 2.983 11.964.597-4.188 1.193-8.973 2.387-13.76 1.193 2.394 3.58 3.59 6.564 4.787 1.79 3.589 0 10.767 0 10.767" fill="#e8b521"/><path d="M94.416 184.054v-4.786zm262.57-152.545l7.162 4.786c5.37 4.785 7.757 11.964 5.37 21.535-8.95 35.295-78.77 90.33-153.961 122.036-72.207 31.107-124.721 29.91-121.14-.598-.598 4.786.596 9.571 2.983 13.16-.597-4.187-.597-8.973-.597-13.758 47.143 50.25 260.184-80.161 262.57-135.197.597-10.17-4.773-13.759-7.757-15.553z" fill="#d37d41"/><path d="M101.577 218.75c-.597-2.991-1.193-5.384-.597-8.973-.596 2.99 0 5.982.597 8.973" fill="#417ba4"/><path d="M389.211 61.42c4.177 4.785 4.774 11.366 2.984 19.74-9.548 37.688-82.352 95.117-163.51 129.215-76.384 32.902-131.882 31.705-127.705-1.196-.596 5.384.597 10.767 3.58 14.357-1.193-4.188-2.983-8.375-3.58-13.76 12.532 17.947 60.869 13.76 122.334-12.562 78.772-33.5 149.785-90.33 159.93-126.821 2.387-8.973.596-15.554-4.178-20.34 3.58 3.59 7.161 7.777 10.145 11.367" fill="#417ba4"/><path d="M371.309 154.143c1.193 4.187 0 7.178-1.194 8.973-31.03 28.116-76.98 56.83-125.318 77.17-71.61 29.91-125.317 31.705-130.091 6.58-.597-2.393 0-.598.596-1.196 0 .598 0 4.187 2.984 8.375-.597-1.197-1.193-2.393-2.387-3.59-.597-.598-.597-1.196-1.193-2.393l-3.58-7.178c13.724 17.946 62.658 14.357 126.51-13.759 48.337-20.34 94.287-49.652 125.318-77.17 5.37-2.393 7.161 1.795 8.355 4.188" fill="#e8b521"/><path d="M192.283 283.955c.597 1.197 1.194 4.188-1.193 4.786-25.66 4.188-43.563 2.393-52.514-7.179-2.984-3.589-7.161-8.375-10.145-11.964 7.758 10.17 26.854 12.563 54.304 8.375 5.371 0 8.952 4.786 9.548 5.982" fill="#417ba4"/><path d="M269.86 286.946c.598.599.598 3.59-3.58 5.384-48.933 19.143-87.125 23.33-102.64 12.563-3.581-2.991-8.355-6.58-11.936-8.973 14.919 12.562 54.901 8.375 107.415-11.965 7.758-2.392 10.742 2.991 10.742 2.991" fill="#d37d41"/><path d="M426.806 184.054c-.596 4.187-1.193 8.973-1.193 12.562 0 .598 0 1.196-.597 2.393-8.951 30.509-68.626 77.768-134.269 105.884-42.966 18.545-77.577 23.33-94.883 16.75-4.177-2.393-10.145-4.188-13.725-6.58 57.884 23.928 236.91-73.58 245.264-134z" fill="#417ba4"/><path d="M414.871 231.91c-24.466 50.849-139.043 107.68-184.396 100.5-4.774-.598-11.338-2.392-15.515-3.589 16.112 4.786 46.546-.598 83.545-16.151 59.675-25.724 113.98-68.197 122.334-95.715-1.79 4.786-3.58 10.768-5.968 14.956" fill="#e8b521"/><path d="M377.873 283.357c0 .598-1.194 2.991-4.177 4.786-15.516 12.562-36.999 25.723-58.482 34.696-18.5 7.777-34.612 11.965-46.547 12.563h-17.902c14.322.598 34.611-4.188 59.675-14.357 24.467-10.768 48.934-24.527 66.24-39.483.596 0 .596-.598 1.193-.598 0 0 0 .599.597.599.596 0 .596 1.196-.597 1.794M134.398 72.786c-.596-2.393-1.193-3.59-.596-6.58 0-.599 0-1.197.596-2.394 2.387-2.99 5.371-5.383 8.952-8.374-.597 2.392-.597 4.187.596 5.383-3.58 4.188-6.564 7.777-9.548 11.965" fill="#417ba4"/><path d="M116.496 99.705c-1.194-2.392-2.387-4.785-2.387-8.375 0-.598 0-1.196.597-2.99l7.16-10.769c-.596 4.188-.596 7.179 1.79 8.974-2.983 5.384-5.37 8.973-7.16 13.16" fill="#d37d41"/><path d="M104.56 129.616c-2.386-2.991-2.983-6.58-2.386-10.768 0-1.196 0-2.393.597-3.59 1.193-4.187 2.983-7.776 4.774-11.963-1.194 4.785-.597 8.973 1.193 12.562-1.193 4.786-3.58 8.973-4.177 13.76" fill="#417ba4"/><path d="M97.997 160.723c-2.387-3.59-3.58-7.178-2.984-11.964l1.193-8.973 1.194-5.384c-1.194 5.384-.597 10.768 2.387 13.759-1.194 2.99-1.79 8.375-1.79 12.562" fill="#e8b521"/><path d="M97.4 192.429c-2.387-2.393-2.984-4.786-2.984-8.375 0-4.188-.597-10.768-.597-14.956 0 4.188 1.194 7.179 2.984 10.17 0 4.187.597 8.973.597 13.16" fill="#d37d41"/><path d="M104.56 223.536c-1.193-1.197-2.386-2.991-2.983-4.786-1.193-4.188-2.984-10.768-4.177-14.955.597 2.393 1.193 4.187 2.984 6.58 1.193 4.786 2.387 8.973 4.177 13.16M133.205 65.01c0-.598.597-2.393.597-2.991 1.79-2.991 2.983-4.786 5.37-7.777 2.984-2.393 5.371-4.786 8.355-7.178-1.79 2.99-3.58 5.982-4.177 8.375-3.58 2.99-7.161 5.982-10.145 9.57" fill="#417ba4"/><path d="M115.302 88.938c0-1.197.597-2.992 1.194-4.188.597-2.393 2.387-3.59 3.58-5.384 2.387-3.59 4.774-8.375 7.758-11.366l1.79-2.991c-3.58 4.187-5.37 7.777-7.757 13.759-1.79 2.99-4.774 6.58-6.565 10.17" fill="#d37d41"/><path d="M102.174 115.857c0-.598.597-2.393.597-2.99 1.193-4.188 4.177-10.769 5.37-14.956 0 2.393-.596 3.589-1.193 5.384-1.79 4.187-2.984 8.375-4.774 12.562" fill="#417ba4"/></g></svg>