<svg height="512pt" viewBox="0 0 512 353.102" width="512pt" xmlns="http://www.w3.org/2000/svg"><path d="M512 17.656v105.93H158.898L5.914 4.59A17.011 17.011 0 0117.656 0h476.688c9.742.027 17.629 7.918 17.656 17.656zm0 0" fill="#4c8056"/><path d="M512 229.516v105.933c-.027 9.738-7.914 17.625-17.656 17.653H17.656a16.994 16.994 0 01-11.742-4.59l152.98-118.996zm0 0" fill="#c03a2b"/><path d="M158.898 123.586H512v105.93H158.898zm0 0" fill="#e6e7e8"/><path d="M158.898 123.586v105.93L5.914 348.512A17.352 17.352 0 010 335.449V17.656A17.36 17.36 0 015.914 4.59zm0 0" fill="#2c2f38"/></svg>