<svg height="336" width="512" xmlns="http://www.w3.org/2000/svg"><g fill="none"><path d="M503.172 335.725H8.828A8.829 8.829 0 010 326.897V9.104A8.829 8.829 0 018.828.276h494.345a8.829 8.829 0 018.828 8.828v317.793a8.829 8.829 0 01-8.829 8.828z" fill="#79ceb8"/><g fill="#fff"><path d="M135.137 146.41c-.338 4.365 1.957 30.382 2.875 45.581 1.108 18.618.04 37.148 3.149 55.86 2.998 23.493 13.291 47.133 32.646 60.764 20.976 14.794 47.787 20.833 73.304 23.602 21.339 2.323 50.245-1.718 71.06-9.608 26.148-9.89 38.198-33.433 42.924-46.132 6.336-18.43 5.147-41.634-5.023-58.252-10.415-16.994-31.485-26.437-50.72-31.64-24.137-6.522-50.868-4.348-75.004 2.244-17.127 5.078-29.784 13.202-45.504 26.899-6.147 5.36-5.215 11.981-1.649 15.938 4.147 4.597 9.683 5.515 18.587 0 6.967-4.321 13.991-14.561 24.245-15.953 3.603-.367 4.523 2.136 3.01 5.025-.918.326-8.077 19.441-1.013 36.15 5.59 12.117 18.059 22.52 31.133 25.114 15.074 2.988 33.795-1.754 44.197-13.047 9.482-10.327 13.98-28.278 8.536-41.192-1.703-4.013-6.713-7.494-11.05-7.025-2.121.23-4.093 2.432-4.525 4.512-.365 1.77 2.77 3.39 2.012 5.025-1.174 5.848-9.264 9.025-15.06 5.024-4.363-2.62-5.104-10.684-2.512-15.059 3.607-6.107 13.02-7.633 20.085-7.04 12.022 1.027 25.745 7.052 31.634 17.575 7.524 13.455 6.036 33.059-2.014 46.202-9.24 15.089-28.904 22.398-46.193 26.114-22.244 3.186-46.735 1.862-65.779-6.027-22.936-7.322-40.857-25.855-45.693-47.2-3.986-17.616-2.243-38.219-3.148-58.373-.54-11.996-1.15-27.452-9.048-37.663-4.715-6.121-12.726-11.387-20.438-10.93-3.161-.378-5.322 1.15-5.024 3.512z"/><path d="M174.59 26.423c-8.13 1.838-11.965 11.131-11.926 18.315 8.2 43.285 21.3 93.755 32.565 127.394 3.62 4.324 10.008 8.604 15.412 6.984 5.05-1.513 7.456-8.197 8.442-13.388-6.702-51.184-17.747-110.153-24.434-128.836-2.526-7.066-12.763-12.39-20.058-10.47zm67.171-22.978c-8.321.754-13.574 10.86-14.548 18.45 2.014 46.947 7.89 102.199 14.32 139.39 2.092 6.431 8.033 11.564 14.289 9.634 6.252-.176 9.833-6.715 10.25-12.904.595-55.078-2.037-119.016-6.021-139.738-1.515-7.836-10.496-15.711-18.29-14.832zM313.67 23.06c-7.521-.797-13.977 7.254-16.18 13.832-6.496 42.094-11.048 92.255-11.9 126.459.73 6.092 5.107 11.699 11.011 11.093 5.59.944 9.925-4.245 11.397-9.675 10.254-48.848 19.21-106.167 19.316-125.294.042-7.23-6.55-15.82-13.643-16.415zm54.205 41.026c-6.241-1.433-12.518 4.471-15.1 9.633-9.97 33.757-19.166 74.34-23.556 102.222-.04 5.068 3.052 10.108 8.076 10.226 4.594 1.365 8.794-2.43 10.603-6.713 13.871-38.905 27.542-84.866 29.677-100.507.81-5.918-3.811-13.617-9.7-14.861z"/></g></g></svg>