<svg viewBox="0 88 512 334" xmlns="http://www.w3.org/2000/svg"><path d="M503.172 423.725H8.828A8.829 8.829 0 010 414.897V97.104a8.829 8.829 0 018.828-8.828h494.345a8.829 8.829 0 018.828 8.828v317.793a8.83 8.83 0 01-8.829 8.828z" fill="#ff4b55"/><path d="M297.951 277.962l67.433-49.478h-83.509L256 148.846l-25.875 79.638h-83.509l67.433 49.478-25.675 79.022 67.56-48.289.066.047.066-.047 67.56 48.289zm13.527-31.823l-19.273 14.141-4.595-14.141zm-76.694 25.139l8.169-25.14h26.094l8.169 25.14L256 286.846zM256 205.984l7.31 22.5h-14.622zm-55.478 40.155h23.868l-4.595 14.141zm21.215 65.293l7.302-22.472 11.911 8.739zm61.225-22.472l7.302 22.472-19.212-13.732z" fill="#5a8250"/></svg>