<svg height="336" width="512" xmlns="http://www.w3.org/2000/svg"><g fill="none"><path d="M503.172 335.725H8.828A8.829 8.829 0 010 326.897V9.104A8.829 8.829 0 018.828.276h494.345a8.829 8.829 0 018.828 8.828v317.793a8.829 8.829 0 01-8.829 8.828z" fill="#6093c3"/><path d="M407.66 9.418c-10.02 8.173-17.48 19.07-21.418 31.378l-40.98 150.832L205.99.54s-31.056-1.763-42.358 2.372C152.331 7.047 137.38 18.2 131.041 42.206 124.7 66.213 51 335.89 51 335.89s35.794 1.25 47-4.968c11.238-6.218 22.475-13.045 29.263-36.859 4.674-16.314 40.532-150.415 40.532-150.415l139.72 192.274s33.552.993 44.79-4.103c13.447-6.09 24.973-20.897 29.423-37.724C386.178 277.236 461 .348 461 .348s-37.363-3.077-53.34 9.07zM318.693 284L181 93.881 191.23 52 331 245.264z" fill="#fff"/></g></svg>