<svg height="336" width="512" xmlns="http://www.w3.org/2000/svg"><g fill="none"><path d="M503.172 335.725H8.828A8.829 8.829 0 010 326.897V9.104A8.829 8.829 0 018.828.276h494.345a8.829 8.829 0 018.828 8.828v317.793a8.829 8.829 0 01-8.829 8.828z" fill="#f2c869"/><g fill="#fff"><path d="M315.507 18C266.634 18 227 31.896 227 49.054v27.553C231.732 86.495 265.156 99 315.507 99S399.267 86.465 404 76.607V49.054C404.015 31.896 364.396 18 315.507 18zM134.658 261.657l-1.254-2.582V256c-5.33 3.985-8.404 8.418-8.404 13.164v27.493c4.732 9.865 38.152 22.343 88.5 22.343s83.753-12.507 88.5-22.343v-14.269c-17.852 5.552-41.392 8.806-67.468 8.806-50.452-.06-91.53-12.164-99.874-29.537z"/><path d="M146 248.414v8.075c4.732 9.94 38.152 22.511 88.5 22.511s83.753-12.602 88.5-22.511v-27.7c-.06-2.03-.627-4.03-1.642-5.789v4.33l-1.254 2.617c-8.359 17.49-49.362 29.7-99.844 29.7-29.465 0-55.751-4.226-74.26-11.233zm140-65.822v-27.538C286 137.91 246.366 124 197.493 124 148.619 124 109 137.896 109 155.054v27.553c4.717 9.888 38.156 22.393 88.507 22.393 50.352 0 83.776-12.55 88.493-22.408z"/><path d="M298.477 183v2.208l-1.254 2.565c-8.359 17.237-49.362 29.272-99.844 29.272-25.062 0-47.825-2.979-65.379-8.092v15.859c4.732 9.797 38.152 22.188 88.5 22.188s83.753-12.42 88.5-22.188v-27.316c0-5.247-3.836-10.198-10.523-14.496zM227 93v19.414c26.736 3.25 50.86 10.92 62.667 23.434 8.002.738 16.645 1.152 25.84 1.152 50.337 0 83.76-12.381 88.493-22.118V93c-18.466 11.687-53.636 17.73-88.507 17.73S245.466 104.687 227 93zm70 57.13a23.51 23.51 0 01.522 4.892v13.672A59.48 59.48 0 01310.27 177h5.338c50.279 0 83.664-12.386 88.391-22.126V133c-18.445 11.706-53.56 17.75-88.391 17.75-6.203-.029-12.48-.22-18.609-.62zm23.405 46.68v8.066A38.279 38.279 0 01330.434 215c41.94-2.177 69.321-13.15 73.566-21.903V171c-17.86 11.391-51.296 17.46-85 17.848a24.072 24.072 0 011.405 7.962zm14.699 32.323V254c39.263-2.626 64.83-12.94 68.896-21.331V211c-15.002 9.477-41.059 15.214-69 17.003.045.353.104.793.104 1.13zM314 277.353V296h1.83c48.696 0 88.17-13.892 88.17-31.044V249c-15.885 10.213-44.264 16.165-74.01 17.6A50.033 50.033 0 01314 277.354z"/></g></g></svg>