<svg height="336" width="512" xmlns="http://www.w3.org/2000/svg"><g fill="none"><path d="M503.172 335.725H8.828A8.829 8.829 0 010 326.897V9.104A8.829 8.829 0 018.828.276h494.345a8.829 8.829 0 018.828 8.828v317.793a8.829 8.829 0 01-8.829 8.828z" fill="#008fbb"/><g fill="#fff"><path d="M45.492 183.735h46.78c10.914 0 19.49 8.569 19.49 19.474s-8.576 19.473-19.49 19.473h-46.78C34.576 222.682 26 214.114 26 203.21s8.576-19.474 19.492-19.474zm304.067-72.053h116.95c10.915 0 19.491 8.569 19.491 19.474s-8.576 19.474-19.492 19.474H349.56c-10.915 0-19.491-8.569-19.491-19.474s8.576-19.474 19.491-19.474z"/><path d="M447.017 175.416v-43.632c0-10.519 8.576-19.09 19.102-19.09h.78c10.525 0 19.101 8.571 19.101 19.09v43.632c0 10.518-8.576 19.089-19.102 19.089h-.78c-10.915 0-19.101-8.571-19.101-19.09zm-343.05-58.826l105.253 70.123h35.085c10.915 0 19.492 8.57 19.492 19.479 0 10.908-8.577 19.478-19.492 19.478h-46.78c-7.017 0-13.254-3.506-16.762-9.739l1.17 1.948-97.458-66.227H45.492c-10.916 0-19.492-8.57-19.492-19.479s8.576-19.478 19.492-19.478h46.78c5.457 0 10.914 2.337 14.423 6.622m156.712-2.727l110.322 70.123h36.644c10.915-.39 20.271 8.57 20.271 19.479-.39 10.908-9.356 19.868-20.271 19.478h-49.119c-7.017 0-14.034-3.506-17.542-9.739l1.17 1.948-102.136-66.227h-40.543c-10.915.39-20.27-8.57-20.27-19.479.389-10.908 9.355-19.868 20.27-19.478h49.119c5.847 0 11.305 2.337 15.203 6.622"/></g></g></svg>