<?xml version="1.0" encoding="UTF-8"?>
<svg width="512px" height="336px" viewBox="0 0 512 336" version="1.1" xmlns="http://www.w3.org/2000/svg" xmlns:xlink="http://www.w3.org/1999/xlink">
    <title>oecs</title>
    <g id="Page-1" stroke="none" stroke-width="1" fill="none" fill-rule="evenodd">
        <g id="oecs" transform="translate(0.000000, 0.276000)" fill-rule="nonzero">
            <path d="M503.172,335.449 L8.828,335.449 C3.95265896,335.449 -3.55271368e-15,331.496341 -3.55271368e-15,326.621 L-3.55271368e-15,8.828 C-3.55271368e-15,3.95265896 3.95265896,0 8.828,0 L503.173,0 C508.048341,0 512.001,3.95265896 512.001,8.828 L512.001,326.621 C512.001,331.496732 508.047732,335.449 503.172,335.449 L503.172,335.449 Z" id="Path" fill="#008751"></path>
            <g transform="translate(97.000000, 9.724000)" id="Shape">
                <path d="M123.418947,20.8623227 C118.348286,21.4860241 109.089445,23.2795247 108.646768,23.7192773 C108.51454,23.8514905 110.978007,23.96071 114.116987,23.9635842 C154.067122,23.9894521 201.272555,48.9748703 233.674189,87.2419653 C255.845393,113.431673 268.792249,139.469048 275.921068,172.220554 L276.547715,175.094754 L278.016596,172.220554 C282.405994,163.623823 288.764442,146.571196 290.195955,139.549526 C290.963452,135.790073 289.902753,132.717553 282.955029,118.567868 C251.717576,54.9273378 183.924802,13.4123971 123.418947,20.8623227 M98.0282763,24.4694434 C4.34179025,38.6191286 -6.2048383,161.327338 79.1742735,243.834115 C88.0306818,252.393481 91.7215707,255.296423 84.3541658,247.906856 C8.04417715,171.378414 16.6591256,54.9417088 100.767698,26.090492 L106.890434,23.9894521 L103.777324,24.0296908 C102.064108,24.0526844 99.4770363,24.2510042 98.0282763,24.4694434 M295.686295,159.122826 C294.26628,169.820598 287.062723,190.399868 280.367957,202.876769 C278.531136,206.302815 278.249433,207.268546 277.717646,211.979359 C271.71564,264.982476 231.256715,297.596021 177.796317,292.528807 C171.83168,291.962589 165.585339,292.560423 165.57959,293.695731 C165.57959,293.850938 167.669369,294.351049 170.227695,294.808047 C252.919127,309.575685 312.490763,247.967214 297.755953,162.922518 C296.640637,156.487185 296.154843,155.596183 295.686295,159.122826 M95.3405965,258.124636 C96.3438053,259.74281 115.160439,273.1567 119.751054,275.525041 C123.168863,277.286925 123.439068,276.048145 120.04713,274.177041 C114.344075,271.035541 106.183301,265.818868 100.615348,261.75475 C97.5798507,259.538742 95.2054938,257.903322 95.3405965,258.124636" fill="#041C44"></path>
                <path d="M148.588748,1.40277582 C144.237312,1.74794202 139.707561,2.173647 138.522636,2.34910651 C133.104192,3.14298878 126.250609,4.38271075 123.66218,5.03565015 C122.738974,5.26863735 120.797652,5.71160065 119.348132,6.01649746 C117.898612,6.32427067 116.279406,6.73847012 115.753092,6.93694069 C115.226778,7.13541126 111.991243,8.19967375 108.563013,9.30420563 C105.134783,10.4058611 101.416074,11.7289982 100.300173,12.2409948 C99.1813969,12.750115 98.0885048,13.1700672 97.8670502,13.1700672 C97.4759101,13.1700672 92.1121107,15.6121181 90.4756486,16.5354377 C90.0154835,16.7943124 89.3338637,17.0042885 88.9571035,17.0042885 C88.5803433,17.0042885 88.1978313,17.1682424 88.1115502,17.3638366 C88.0223931,17.5623072 87.0876831,18.1692244 86.0350553,18.7128612 C81.4449086,21.0801261 77.8498686,23.0159333 77.4069596,23.3610995 C76.4693733,24.0917013 70.8984998,27.5519925 70.6597891,27.5519925 C70.5246155,27.5519925 69.9522852,27.9834503 69.3857069,28.5098288 C68.8191287,29.0390836 68.0742363,29.4705414 67.7291128,29.4705414 C67.3839889,29.4705414 67.0992616,29.6373717 67.0992616,29.8444715 C67.0992616,30.0515712 66.4607824,30.5980843 65.678502,31.0611823 C64.8990971,31.521404 63.9816432,32.1685906 63.6422714,32.4993749 C63.3028997,32.8272827 62.2704042,33.6182887 61.3471981,34.2568463 C60.4239917,34.8954036 59.3454797,35.7554427 58.9514634,36.1725188 C58.5574471,36.5867179 57.2603567,37.6653624 56.0754316,38.5656711 C53.4151021,40.5877698 39.2161329,54.7625953 36.7456217,57.8633384 C35.7533906,59.1088131 34.6720027,60.4031865 34.3470111,60.7397237 C34.0220196,61.0733843 33.2282345,62.10313 32.5868794,63.0264498 C31.9455243,63.9497693 31.1517397,64.9823916 30.823872,65.3218051 C30.4931284,65.6612185 29.8460212,66.5787852 29.3858561,67.3582857 C28.922815,68.1406623 28.3763689,68.7792199 28.1692947,68.7792199 C27.9622204,68.7792199 27.7954105,69.0639821 27.7954105,69.4091484 C27.7954105,69.7543143 27.3640057,70.4992981 26.8348159,71.065946 C26.308502,71.6325938 25.8770973,72.2251293 25.8770973,72.3833305 C25.8770973,72.5386551 25.0142877,73.9394547 23.958784,75.4927027 C22.9061564,77.0459507 22.0433468,78.4553791 22.0433468,78.6279623 C22.0433468,78.7976692 21.6378263,79.5110125 21.1402728,80.2128504 C19.0637778,83.143887 12.6818632,96.329236 10.5507236,102.099265 C9.96401309,103.681276 9.31690595,105.407108 9.1069556,105.933486 C8.89988132,106.459864 8.45122035,107.86354 8.10897258,109.048611 C7.76960082,110.236558 7.34107207,111.421629 7.15988207,111.686256 C6.97869204,111.950884 6.72560125,112.704497 6.5961798,113.363189 C6.46675839,114.024757 5.81965122,116.610627 5.16103993,119.115959 C3.39515637,125.832318 2.25337174,131.625357 1.47684315,137.812462 C-0.490362641,153.459997 -0.493238679,164.08824 1.47396711,179.281305 C2.74517319,189.124295 6.34021298,204.029723 9.10120356,210.921541 C9.31402991,211.44792 9.96401309,213.173751 10.5449715,214.755763 C11.9283428,218.509445 12.6876153,220.278422 14.6605731,224.348507 C15.557895,226.198022 16.2912831,227.95837 16.2912831,228.263267 C16.2912831,228.568164 16.4523409,228.890319 16.6507871,228.979487 C16.8463573,229.065778 17.8472164,230.757093 18.8710837,232.733169 C20.8325374,236.521369 23.866751,241.695985 24.677792,242.642316 C24.9423869,242.950089 25.8051965,244.293361 26.5961052,245.628004 C27.387014,246.965523 28.1951789,248.061425 28.3936251,248.067178 C28.5920713,248.070054 28.7531291,248.380704 28.7531291,248.754634 C28.7531291,249.128564 28.922815,249.505371 29.1327653,249.591662 C29.3398396,249.68083 30.2572938,250.831384 31.1689959,252.148769 C32.0806978,253.469029 33.1563339,254.869829 33.5589782,255.26677 C33.9616229,255.660835 35.0401348,256.955208 35.9575888,258.137402 C40.4298184,263.927566 55.3564238,278.740949 58.3733809,280.386241 C58.8249179,280.630734 59.2994632,280.973023 59.4317608,281.14273 C59.5611822,281.315313 61.1803883,282.569417 63.0268005,283.932824 C64.8703371,285.29623 66.595956,286.584851 66.8605509,286.797703 C69.2045169,288.693241 81.1745615,296.013641 81.9309578,296.013641 C82.1667924,296.013641 82.4313873,296.177595 82.5176684,296.373189 C82.6816023,296.73849 91.2205406,301.053068 94.5423576,302.450991 C95.5317125,302.86519 97.0416291,303.506624 97.8986868,303.871925 C100.159248,304.841267 103.452304,306.069483 105.925692,306.869118 C107.113493,307.254554 108.51412,307.749292 109.04331,307.967897 C109.569624,308.189379 110.970251,308.635219 112.158053,308.96025 C113.345854,309.282405 114.85577,309.722492 115.514382,309.935345 C117.438447,310.553768 127.461418,312.900898 130.85226,313.525073 C155.203621,318.009359 182.810651,316.349684 206.828392,308.954498 C208.671929,308.38785 210.61325,307.812573 211.14244,307.680259 C211.668754,307.547945 212.586208,307.243048 213.178671,307.001432 C215.413348,306.089618 216.463099,305.681171 218.090933,305.08576 C219.014139,304.749222 221.122271,303.866172 222.778865,303.121188 C224.432584,302.376205 226.103558,301.766411 226.491822,301.766411 C226.880087,301.766411 227.199326,301.550682 227.199326,301.288931 C227.199326,301.024304 227.492681,300.808575 227.852185,300.808575 C228.637342,300.808575 234.561967,297.840146 234.789174,297.333902 C234.875455,297.135431 235.361504,296.974354 235.867686,296.974354 C236.373868,296.974354 236.78514,296.8104 236.78514,296.611929 C236.78514,296.410582 237.414991,295.970495 238.185768,295.628205 C238.956544,295.288792 240.903618,294.158373 242.517072,293.114245 C244.127649,292.072993 245.654822,291.221583 245.910789,291.221583 C246.16388,291.221583 246.37383,291.031742 246.37383,290.798755 C246.37383,290.568644 247.020938,290.111299 247.811846,289.783391 C248.602755,289.455483 249.249862,289.024025 249.249862,288.822678 C249.249862,288.624208 249.896969,288.19275 250.687878,287.864842 C251.478787,287.536934 252.125894,287.125611 252.125894,286.950152 C252.125894,286.777568 252.764373,286.256943 253.546654,285.793845 C254.326058,285.333623 255.243513,284.686437 255.582884,284.355652 C255.922256,284.027744 256.954752,283.233862 257.877958,282.592428 C258.798288,281.950995 259.842287,281.145607 260.196039,280.803317 C260.546915,280.461027 261.625427,279.595235 262.591774,278.879015 C264.99326,277.104285 279.781816,262.302408 282.114278,259.339731 C283.152526,258.022347 284.11312,256.8344 284.254046,256.704963 C284.392095,256.572649 285.249153,255.494004 286.157979,254.306057 C287.066805,253.120987 287.938242,252.042342 288.096424,251.910029 C288.254606,251.777715 290.36849,248.651084 292.792984,244.957806 C295.220355,241.267404 297.371627,238.031471 297.575825,237.766843 C298.234436,236.915433 305.61721,222.018635 306.485772,219.789436 C306.948813,218.604366 307.613176,216.984961 307.964052,216.193955 C308.786597,214.341563 311.061538,207.990505 311.570596,206.126607 C311.786299,205.335601 312.413274,203.178313 312.965472,201.33455 C318.631254,182.367666 320.506427,157.878124 317.739684,139.011914 C316.658295,131.622481 316.28729,129.341508 315.878892,127.506374 C315.047719,123.790085 313.37962,116.944288 312.95972,115.520477 C311.70577,111.300821 309.554498,104.869223 309.148977,104.141498 C308.895886,103.684153 308.685936,103.016832 308.685936,102.657283 C308.685936,102.300612 308.386829,101.380168 308.021573,100.61505 C307.653441,99.8470552 306.986201,98.3599642 306.53754,97.3043308 C304.869442,93.3953235 299.796122,83.3049645 298.038866,80.4141975 C297.040883,78.7717815 296.22409,77.2242864 296.22409,76.9797938 C296.22409,76.7324246 296.054404,76.4591681 295.84733,76.3700001 C295.640256,76.2837087 294.903992,75.2395807 294.213744,74.05451 C293.523496,72.8665631 292.508257,71.3765955 291.956059,70.7437907 C291.403861,70.1109863 290.952324,69.42353 290.952324,69.2193067 C290.952324,69.0150834 290.673349,68.5634908 290.336853,68.2154483 C289.997481,67.8674057 289.200821,66.8261543 288.562341,65.9028348 C287.923863,64.979515 287.273879,64.1165996 287.115697,63.9871624 C286.960392,63.8548485 286.313285,62.9919331 285.677682,62.0686136 C285.044955,61.1452938 284.187897,60.0666494 283.776625,59.6725847 C283.362476,59.2756437 282.059633,57.7655413 280.877584,56.3158433 C278.136726,52.9475965 267.4724,42.2819605 264.343277,39.7795056 C263.028931,38.7238723 261.628303,37.527296 261.231411,37.1188493 C260.837394,36.7104027 259.758882,35.8561164 258.835676,35.2233116 C257.91247,34.5876303 257.049661,33.9404439 256.917363,33.785119 C256.785066,33.6269178 255.922256,32.9797311 255.001926,32.3469265 C254.07872,31.7112454 253.21591,31.058306 253.083613,30.8914756 C252.741365,30.4600179 244.386492,24.8913364 242.335882,23.7292768 C241.392543,23.1942692 239.862494,22.3284772 238.936412,21.8020988 C231.366696,17.516285 219.664123,12.2064782 213.057878,10.0635713 C211.740655,9.6349899 210.230738,9.10285867 209.704424,8.87850064 C209.175234,8.65414259 206.911797,7.99832679 204.671369,7.42304979 C202.428064,6.84489637 200.101354,6.17757504 199.494511,5.9359587 C198.890545,5.69721872 197.90119,5.49874816 197.297223,5.49874816 C196.696132,5.49874816 196.049025,5.34629975 195.864959,5.1622111 C195.678017,4.97524607 194.941753,4.75664082 194.225621,4.67610203 C193.512365,4.59268685 191.956432,4.33093581 190.768631,4.08931947 C177.262785,1.35963002 161.637304,0.364400784 148.588748,1.40277582 M214.996323,20.1481774 C261.746221,26.2346082 290.308093,56.172024 294.435199,103.416649 C294.662405,106.002519 294.113083,105.628589 293.379695,102.697553 C287.495334,79.1255769 267.397623,54.8977854 243.661732,42.7594406 C228.280714,34.8954036 202.413684,28.7773326 189.810912,30.0228073 L188.134185,30.1896377 L190.52992,31.0841934 C221.306337,42.5724755 254.446852,70.9077448 274.570447,102.936293 C280.794179,112.842563 290.805646,133.704984 291.001216,137.176781 C291.073117,138.497041 291.754737,135.387669 292.853381,128.705826 C293.859992,122.584879 294.77457,111.036193 294.486967,108.064887 C294.328785,106.4311 294.334537,106.433977 294.990273,108.398548 C297.941081,117.237679 298.990833,140.424219 297.009247,153.022786 C296.669875,155.19158 296.55771,157.13314 296.759032,157.337364 C296.960354,157.541587 297.558569,160.207996 298.090635,163.265593 C311.101803,238.376637 265.63174,297.483474 194.861224,297.448957 C184.766352,297.443204 165.844939,295.251399 165.844939,294.089339 C165.844939,293.908127 164.711782,294.054823 163.328411,294.414371 C148.283888,298.340637 127.202575,299.356 110.958747,296.936961 C46.1387417,287.280936 8.7445756,229.327529 24.5224863,162.980831 C26.30275,155.499353 26.2883698,155.94807 24.9625191,150.278715 C10.5219633,88.4364354 37.6745799,37.5157906 91.3068217,25.8549254 C94.5509856,25.150211 102.022916,24.2268914 104.487676,24.2268914 L107.124997,24.2268914 L100.999049,26.3295289 C65.1320558,38.6347043 40.2860168,68.9575558 33.8034411,108.329515 C32.1986153,118.086213 31.2466487,142.846135 32.6702843,137.812462 C34.9107131,129.890897 49.6187401,105.4445 57.3265055,96.8239744 L59.0406205,94.9083019 L57.5134474,97.0655907 C45.3277005,114.263497 32.2158714,139.299553 32.8601027,144.146262 C32.9377555,144.750303 33.2598711,147.186601 33.5704825,149.559618 C38.1318688,184.222935 56.8893487,220.543049 84.5769072,248.314547 C91.9481768,255.709733 88.2553518,252.804584 79.3942978,244.23871 C56.8174477,222.418453 39.4404635,195.558769 29.9236741,167.775765 C28.9314431,164.876369 27.9708485,162.330768 27.7925345,162.123668 C27.6142205,161.913692 26.9556092,165.149625 26.3343863,169.314631 C17.179977,230.446443 57.2804891,276.920197 119.109421,276.833905 L121.505156,276.831029 L119.109421,275.447488 C113.144531,272.013084 96.5124393,260.06458 95.5691009,258.540096 C95.4339274,258.318615 97.8095297,259.955278 100.846619,262.17297 C106.38298,266.214292 114.579671,271.460818 120.185057,274.550056 C121.833024,275.458993 123.038081,276.34492 122.862643,276.520379 C122.24142,277.141678 136.000356,275.884698 143.075395,274.676617 C195.318513,265.75407 246.100607,229.140564 274.302976,180.066558 L276.882776,175.576521 L275.772628,170.476691 C264.524467,118.831197 230.121375,72.1676015 183.152898,44.856325 C173.667746,39.3422951 158.761272,32.5108803 157.861075,33.2673699 C157.636744,33.4543346 155.407819,34.1043976 152.902795,34.7141913 C123.619039,41.8217388 95.4339274,58.0272924 71.2119871,81.679807 C67.0647491,85.7326335 65.3420061,87.1995898 66.6592288,85.5600504 C83.2798168,64.8730888 116.618778,40.9386886 142.957477,30.7764202 L147.156484,29.1570154 L140.323032,27.6066439 C131.25778,25.5529049 132.042936,25.6967242 125.672526,24.9028419 C122.58942,24.5174063 117.495968,24.2010039 114.355341,24.2010039 C107.62255,24.1952512 107.573658,24.0428027 113.875043,22.7254184 C128.491037,19.6678211 145.491262,19.607417 161.289304,22.558588 C166.443153,23.522177 166.026129,23.5308062 171.116705,22.3601175 C173.357134,21.8423682 177.780471,21.0772497 180.944106,20.6544211 C184.107741,20.2344689 187.233988,19.8087639 187.892599,19.7109668 C191.507771,19.1730828 209.779201,19.4693505 214.996323,20.1481774 M158.283851,72.6163177 C163.719551,87.4066897 167.760376,98.532547 167.760376,98.7051301 C167.760376,98.785669 166.845798,98.6763662 165.724146,98.4606375 C162.298792,97.7961926 151.519424,97.9658992 147.435459,98.748276 C142.638238,99.665843 142.8108,100.295771 145.370468,91.2035179 C146.578402,86.9119513 148.884979,78.6567262 150.495557,72.8550575 C153.961175,60.3744226 153.880646,60.6189156 154.234398,61.5882572 C154.3782,61.9851984 156.201604,66.9469625 158.283851,72.6163177 M212.847927,86.8774349 C211.826936,89.710674 210.877845,92.3540721 210.73692,92.7510131 C210.59887,93.1450778 208.516623,98.9697575 206.109385,105.694746 C203.702146,112.416858 201.640031,118.198392 201.530742,118.540682 C201.409949,118.908859 199.51752,117.335476 196.888827,114.683449 C193.17587,110.93552 185.269658,104.944009 182.931444,104.106981 C182.111775,103.810714 179.290388,105.835689 206.58393,87.1391857 C210.93249,84.1592507 214.539034,81.7229529 214.59943,81.7229529 C214.659827,81.7229529 213.871795,84.0441954 212.847927,86.8774349 M112.63835,96.2429446 C120.941454,101.000485 127.910079,105.041807 128.120029,105.220143 C128.329979,105.401355 126.710774,106.853929 124.524989,108.447446 C120.671107,111.254798 115.393588,116.380517 112.307606,120.315411 C111.479309,121.371045 110.697028,122.124657 110.567607,121.992344 C110.360532,121.785244 96.4692988,91.4307523 94.5768698,87.050018 L93.8722421,85.421984 L95.7071503,86.5063813 C96.7137613,87.1046693 104.33237,91.4854036 112.63835,96.2429446 M164.990757,109.106139 L167.653963,109.63827 L167.19955,111.381359 C166.946459,112.339195 165.692509,116.901142 164.409799,121.514864 C156.995389,148.170324 157.751785,146.090698 156.592744,142.989955 C155.485472,140.030155 148.557111,121.201338 146.431724,115.382411 C145.442369,112.66998 144.729113,110.351613 144.849906,110.230805 C146.204518,108.876028 160.012346,108.105157 164.990757,109.106139 M185.194881,118.255919 C188.393029,120.718105 194.268761,127.095051 194.012795,127.8199 C193.94377,128.01837 191.404234,129.873639 188.372896,131.944636 C185.341559,134.015633 178.712305,138.557445 173.641861,142.034995 C168.571417,145.515421 164.320642,148.360166 164.196972,148.360166 C163.95251,148.360166 166.676112,140.507635 171.783945,126.488134 C173.52682,121.707582 174.950456,117.680643 174.950456,117.536823 C174.950456,117.39588 175.378985,116.282719 175.899546,115.066009 L176.848637,112.854069 L179.373793,114.283632 C180.765792,115.071761 183.382981,116.857996 185.194881,118.255919 M136.3311,116.121642 C137.467133,118.48603 148.936748,143.700422 150.07278,146.326562 L150.952846,148.368795 L149.650003,147.689968 C146.653178,146.125215 119.55233,130.523702 119.152562,130.129637 C117.668529,128.677063 131.902011,114.459091 134.956357,114.341022 C135.238208,114.33253 135.856555,115.132165 136.3311,116.121642 M219.770536,132.784541 C235.988479,134.343541 247.110095,135.465331 247.535747,135.58614 C247.78021,135.655173 242.281237,139.02342 235.312612,143.070494 C228.346863,147.117568 220.489544,151.696773 217.852222,153.247144 L213.057878,156.066002 L212.753018,150.655521 C212.433779,145.058076 211.199961,138.914117 209.491598,134.415451 C208.948028,132.988764 208.505119,131.749042 208.505119,131.659874 C208.505119,131.570706 209.313284,131.619605 210.302639,131.772053 C211.291994,131.924501 215.551397,132.37897 219.770536,132.784541 M200.61904,141.471223 C201.536494,144.586349 201.942015,147.295903 202.143337,151.596099 L202.413684,157.469677 L200.532759,157.469677 C199.500263,157.469677 196.934843,157.26833 194.832464,157.026714 C192.730085,156.782221 185.939773,156.120653 179.744801,155.556881 C173.549828,154.990233 167.878293,154.38044 167.142029,154.202104 C165.942724,153.908713 167.504409,152.881843 181.99961,144.448282 C200.639172,133.601434 198.410247,133.958106 200.61904,141.471223 M103.811808,136.975434 C102.112073,142.892158 101.453462,147.618059 101.44771,153.920218 L101.441958,160.676847 L96.1356791,158.168639 C93.2165068,156.787974 86.9438812,153.787905 82.1984287,151.501178 C77.4529761,149.214452 71.6779043,146.455999 69.3655746,145.371602 C64.3037588,142.998584 64.3353951,142.952562 71.8936069,141.652436 C75.1895391,141.085788 83.4926431,139.578562 90.3491031,138.304324 C105.333229,135.517106 104.197196,135.629285 103.811808,136.975434 M129.414244,144.862482 C134.291994,147.215365 140.731429,150.304602 143.722502,151.731289 L149.163954,154.320036 L136.532422,156.618267 C113.872168,160.743003 112.969093,160.88107 112.598085,160.282782 C110.996136,157.691159 111.835937,147.399453 114.338085,138.931376 L114.64582,137.893001 L117.596629,139.239149 C119.218711,139.97838 124.536493,142.509599 129.414244,144.862482 M139.258901,173.022292 C132.747564,180.814419 127.268724,187.191364 127.081782,187.191364 C124.94489,187.191364 114.553787,171.828592 114.553787,168.667445 C114.553787,167.905203 114.096498,168.03464 140.438074,161.32691 C144.78951,160.219501 148.887855,159.143733 149.546467,158.936634 C150.205078,158.729534 150.823425,158.625984 150.918333,158.706523 C151.013243,158.789938 145.767361,165.230164 139.258901,173.022292 M169.198392,159.359462 C170.912507,159.638472 175.982951,160.510017 180.463809,161.298146 C184.944666,162.086275 191.309325,163.190807 194.605257,163.751702 C197.90119,164.309721 200.670808,164.838976 200.765718,164.922391 C201.890246,165.94926 195.424926,178.34648 191.027474,183.595883 L189.822416,185.034076 L179.238619,174.486372 C166.224575,161.516751 163.178857,158.136999 164.88722,158.559827 C165.545831,158.723781 167.484277,159.083329 169.198392,159.359462 M173.023514,176.632155 L184.139377,189.805998 L182.822155,190.855879 C179.12933,193.801297 169.112111,197.759203 165.002261,197.900146 L162.72732,197.977808 L162.393701,193.424491 C162.209635,190.91916 161.617172,183.259346 161.076478,176.40492 C160.535784,169.550495 160.092875,163.406536 160.092875,162.756473 C160.092875,161.22336 159.293338,160.366197 173.023514,176.632155 M155.761571,180.800037 L155.804712,198.837847 L152.554796,198.535827 C146.391459,197.963426 133.262374,193.438873 133.805944,192.075466 C134.326506,190.755205 155.048315,162.348026 155.350299,162.534992 C155.551621,162.658676 155.735687,170.879385 155.761571,180.800037 M224.769079,183.961184 C232.252514,191.543335 238.266296,197.854124 238.136875,197.986437 C238.007454,198.115875 235.976975,197.888641 233.627257,197.480194 C231.277539,197.071747 226.336517,196.217461 222.646568,195.58178 C218.953743,194.943222 212.057018,193.752399 207.317318,192.935505 C202.577618,192.115736 198.631702,191.379381 198.551173,191.298842 C198.47352,191.218303 199.425487,189.903795 200.670808,188.373559 C203.86608,184.450169 207.305814,178.519063 209.080326,173.876578 C209.914375,171.696278 210.72254,169.970447 210.880721,170.042357 C211.036027,170.114266 217.285644,176.376156 224.769079,183.961184 M106.915047,177.722305 C109.549492,183.006224 112.428399,187.257521 116.000431,191.157899 C117.936001,193.272043 118.732661,194.457113 118.309885,194.600932 C117.959009,194.721741 112.951837,196.021867 107.185394,197.491699 C101.41895,198.958656 92.9260274,201.136079 88.3157484,202.329779 C83.7025935,203.520602 79.8515867,204.418035 79.7538016,204.323114 C79.61,204.179295 104.496304,173.89096 104.835675,173.798667 C104.896072,173.781657 105.830782,175.547758 106.915047,177.722305 M189.76202,206.966512 C190.078383,210.987698 190.52992,216.6513 190.765755,219.550696 C192.11749,236.115798 192.310184,239.020947 192.08873,239.245305 C191.953556,239.380495 185.997294,232.580721 178.856107,224.132778 C166.319484,209.310766 165.913964,208.767129 167.173666,208.493872 C174.185431,206.980894 181.404271,204.210935 186.215872,201.182101 C187.533095,200.353702 188.741028,199.669123 188.89921,199.666231 C189.057392,199.660494 189.445656,202.945326 189.76202,206.966512 M133.797316,204.205182 C138.140124,206.264674 144.162535,208.027898 149.546467,208.810275 C151.786895,209.138182 153.685076,209.451708 153.762729,209.50636 C153.840382,209.561011 150.512813,214.324305 146.368451,220.091457 C142.224089,225.858609 137.001216,233.164627 134.760787,236.328651 C132.520358,239.492674 130.507136,242.288521 130.291433,242.538766 C130.072855,242.789011 129.894541,233.889476 129.894541,222.763619 C129.894541,211.634885 129.977946,202.531126 130.084359,202.531126 C130.187896,202.531126 131.858871,203.284739 133.797316,204.205182 M277.035206,209.615663 C258.988106,243.743971 215.062472,279.146519 176.27343,290.821766 C171.33816,292.308857 171.479085,292.41816 179.169594,293.06247 C232.157605,297.503609 271.812332,265.262208 278.018809,212.696271 C278.703304,206.914737 278.614147,206.635728 277.035206,209.615663" fill="#94D344"></path>
                <path d="M153.85,0.221853335 C154.310134,0.339983016 155.06648,0.339983016 155.526615,0.221853335 C155.986749,0.100842405 155.610014,2.22044605e-15 154.686869,2.22044605e-15 C153.763725,2.22044605e-15 153.38699,0.100842405 153.85,0.221853335 M163.435173,0.221853335 C163.895307,0.339983016 164.651653,0.339983016 165.111787,0.221853335 C165.574797,0.100842405 165.195186,2.22044605e-15 164.274918,2.22044605e-15 C163.351773,2.22044605e-15 162.975038,0.100842405 163.435173,0.221853335 M187.520327,18.9410874 C177.880514,20.1483152 168.465016,21.7704376 167.225529,22.4388787 C166.840166,22.646326 167.99913,23.1274884 170.101368,23.6317005 C172.036808,24.0984568 176.842335,25.5361816 180.776484,26.8298458 C186.114041,28.5845038 188.673539,29.1837959 190.841921,29.1924396 C238.87419,29.3537874 282.9378,60.7071359 293.239056,102.052528 C293.972395,104.988482 294.521681,105.36304 294.294489,102.772831 C292.353297,80.5154681 286.745411,65.4957103 274.81643,50.6056069 C272.938506,48.2603002 271.451698,46.1541344 271.517842,45.9236373 C271.583986,45.6960216 271.368298,45.563486 271.040452,45.6297537 C270.709731,45.6960216 270.494043,45.4799309 270.560187,45.1485915 C270.626331,44.8172521 270.410644,44.601161 270.079922,44.667429 C269.752076,44.7336969 269.536389,44.5176059 269.602533,44.1891479 C269.668677,43.8578085 269.452989,43.6417174 269.122268,43.7079854 C268.791546,43.7742533 268.575858,43.5581623 268.642002,43.2268229 C268.708147,42.8983649 268.572982,42.6822738 268.342915,42.7485418 C267.623955,42.9531078 261.555934,37.7611638 261.886656,37.2252584 C262.062082,36.9400186 261.972931,36.8564635 261.688223,37.0322174 C261.406391,37.2079712 259.465199,36.1678536 257.374464,34.7243664 C239.897988,22.6636133 210.621944,16.0483506 187.520327,18.9410874 M142.225857,30.1979826 C115.250485,41.0630328 82.9921949,64.366275 66.5337667,84.8862669 C65.2166322,86.5285576 66.9392598,85.0591393 71.0862202,80.9995117 C95.3065391,57.3073057 123.489764,41.0745578 152.77156,33.955083 C158.86834,32.4712587 158.86834,32.4539715 152.846332,30.4515292 C146.582754,28.3655317 146.766808,28.3712942 142.225857,30.1979826 M153.568168,60.8742461 C153.415748,61.2718535 151.974953,66.3485491 150.364483,72.1599536 C148.754013,77.9713582 146.44759,86.2404365 145.239737,90.5392045 C142.68024,99.6467158 142.50769,99.0157302 147.30459,98.0966234 C151.388282,97.312934 162.166927,97.1429423 165.592052,97.8085023 C166.71363,98.0245933 167.628146,98.1340792 167.628146,98.0534055 C167.628146,97.8805327 163.587592,86.7360047 158.152256,71.9208129 C156.070148,66.2419443 154.246866,61.2718535 154.103074,60.8742461 C153.870131,60.2346173 153.809738,60.2346173 153.568168,60.8742461 M206.449101,86.4680522 C179.157386,105.19593 181.978584,103.167557 182.798199,103.464322 C185.136256,104.302754 193.041938,110.304319 196.754647,114.058538 C199.383164,116.715015 201.275466,118.291038 201.396252,117.922243 C201.505534,117.579379 203.56751,111.788143 205.974588,105.05475 C208.381665,98.318477 210.463773,92.4840227 210.601813,92.0892968 C210.742729,91.6916894 211.691756,89.0438557 212.712679,86.2058618 C213.736478,83.3678682 214.524458,81.04273 214.464065,81.04273 C214.403673,81.04273 210.79737,83.4831166 206.449101,86.4680522 M94.4495389,86.3787345 C96.3418412,90.7668205 110.232145,121.17225 110.439206,121.379697 C110.568618,121.512233 111.350847,120.757356 112.179088,119.699951 C115.264864,115.758453 120.542029,110.624133 124.395654,107.81207 C126.581292,106.215879 128.200389,104.760867 127.990453,104.57935 C127.780517,104.400715 120.812358,100.352613 112.50981,95.5870878 C104.204386,90.8215634 96.5862874,86.4334775 95.5797438,85.8341855 L93.7449583,84.7479685 L94.4495389,86.3787345 Z M294.346254,107.428869 C294.435405,108.339332 294.323247,112.012877 294.101808,115.591343 C288.237972,209.838667 178.263,294.912213 90.7943472,272.865178 C44.3955555,261.170339 18.1247634,218.300787 26.3582914,167.721111 C27.4309794,161.13466 27.474117,160.316396 26.8500599,158.190062 C25.9758047,155.205126 26.0016873,155.164789 24.3308246,162.483067 C19.312485,184.492645 19.9940589,208.441279 26.1771135,227.310336 C46.4316498,289.123858 116.205263,314.815625 187.06882,286.553817 C259.738404,257.571706 307.854072,181.660414 296.28457,114.245817 C295.418942,109.200815 294.055794,104.403597 294.346254,107.428869 M208.370162,131.063451 C208.370162,131.152768 208.813041,132.394571 209.356575,133.823652 C211.064823,138.329867 212.298558,144.484136 212.617777,150.090975 L212.922616,155.510534 L217.71664,152.686946 C220.353784,151.133973 228.210578,146.547084 235.17586,142.493219 C242.144019,138.439353 247.642624,135.065454 247.398177,134.996305 C246.972553,134.875294 235.851682,133.751622 219.634825,132.190005 C215.415968,131.783754 211.15685,131.328522 210.167562,131.175818 C209.178273,131.023114 208.370162,130.974133 208.370162,131.063451 M90.2220552,137.71905 C83.3660542,138.995427 75.0635059,140.505183 71.7677944,141.072781 C64.2100886,142.375089 64.1784544,142.421188 69.2399313,144.798188 C71.5521063,145.884405 77.3267915,148.647487 82.0719264,150.938051 C86.8170612,153.228614 93.089267,156.233719 96.0082439,157.6167 L101.314167,160.129117 L101.319919,153.36115 C101.325671,147.048415 101.984238,142.314584 103.683859,136.387931 C104.069221,135.039523 105.205178,134.927156 90.2220552,137.71905 M208.94533,173.350999 C207.170937,178.001275 203.731433,183.942334 200.536376,187.872307 C199.291137,189.405112 198.339234,190.721826 198.416882,190.8025 C198.497406,190.883173 202.443057,191.620764 207.18244,192.441909 C211.921823,193.260173 218.818086,194.452995 222.510664,195.092624 C226.200366,195.729372 231.141058,196.585092 233.490618,196.994224 C235.840179,197.403356 237.870522,197.630972 237.999934,197.501317 C238.206995,197.29387 211.487572,169.853208 210.745605,169.510343 C210.587434,169.438313 209.779323,171.16704 208.94533,173.350999 M92.0280821,188.488886 C85.1116885,196.838639 79.5325604,203.750666 79.6274629,203.848627 C79.7252415,203.943707 83.5759905,203.044769 88.1888366,201.851948 C92.798807,200.656244 101.291161,198.475167 107.057219,197.005749 C112.823276,195.53345 117.830113,194.231142 118.180965,194.110131 C118.603713,193.96607 117.807106,192.779011 115.871666,190.66132 C112.299873,186.754397 109.421158,182.495965 106.78689,177.203179 C105.702698,175.024983 104.76805,173.255919 104.707658,173.272957 C104.647265,173.287612 98.9416,180.136253 92.0280821,188.488886 M186.082407,200.702344 C181.271128,203.73626 174.052771,206.510867 167.041475,208.026385 C165.781857,208.3001 166.187351,208.844649 178.723135,223.691534 C185.863843,232.153654 191.819707,238.964839 191.954871,238.829422 C192.176311,238.604687 191.983629,235.694663 190.631985,219.101763 C190.396166,216.197502 189.944659,210.524395 189.628317,206.496461 C189.311975,202.468527 188.923737,199.178183 188.765565,199.18393 C188.607394,199.186826 187.399542,199.872555 186.082407,200.702344 M150.090414,209.051253 C144.442042,208.381213 137.086209,205.994828 130.683662,202.760255 C129.532501,202.180269 129.504933,202.858648 129.903619,222.285869 C130.127608,233.355965 130.469765,242.397396 130.660028,242.377219 C130.973549,242.341924 132.655145,239.959152 142.04697,226.21343 C143.691416,223.807989 146.91073,219.115015 149.199747,215.785641 C151.488765,212.456268 153.257727,209.654864 153.131188,209.55979 C153.006444,209.462501 151.636223,209.235286 150.090414,209.051253 M272.814845,268.923681 L270.919667,270.963579 L272.955761,269.06486 C274.077339,268.021861 274.994731,267.102755 274.994731,267.024962 C274.994731,266.661929 274.577735,267.024962 272.814845,268.923681" fill="#FBFBFA"></path>
                <path d="M148.51287,108.704318 C144.556785,109.565275 144.704055,109.048701 146.791828,114.733893 C148.925804,120.539619 155.882161,139.32572 156.993907,142.278805 C158.016137,144.990823 158.148969,144.766974 160.490856,136.395593 C166.344129,115.488666 167.221976,112.34043 167.643573,110.741918 L168.099822,109.002783 L165.425855,108.471859 C161.807626,107.748654 152.307246,107.880668 148.51287,108.704318 M176.378724,114.418208 C175.856059,115.632159 175.425799,116.742794 175.425799,116.883418 C175.425799,117.026911 173.99641,121.044714 172.246492,125.814421 C167.11802,139.802117 164.383412,147.636833 164.628863,147.636833 C164.753032,147.636833 169.020983,144.798542 174.111916,141.326012 C179.202849,137.856352 185.85889,133.324843 188.902477,131.258544 C191.946063,129.192246 194.495861,127.341186 194.565165,127.143166 C195.08783,125.679537 185.333337,116.716966 179.867009,113.637606 L177.33165,112.211286 L176.378724,114.418208 Z M132.110999,115.468577 C126.841032,118.961196 118.29069,128.365726 119.402437,129.447663 C119.803821,129.840834 147.014178,145.406952 150.023112,146.968156 L151.331219,147.645443 L150.447597,145.607842 C149.306974,142.987661 137.791013,117.830471 136.65039,115.471447 C135.590621,113.278874 135.420249,113.278874 132.110999,115.468577 M182.503437,143.733824 C167.949664,152.148253 166.381668,153.172792 167.58582,153.465518 C168.325059,153.64345 174.019511,154.25186 180.239517,154.817222 C186.459522,155.379714 193.277271,156.039782 195.388146,156.28372 C197.499021,156.524788 200.074807,156.725679 201.111475,156.725679 L203,156.725679 L202.728561,150.865426 C202.526425,146.574985 202.119266,143.871578 201.198104,140.76352 C198.980386,133.267446 201.218318,132.911584 182.503437,143.733824 M114.568505,138.229433 C112.056247,146.6783 111.213052,156.946658 112.821475,159.532401 C113.193982,160.129332 114.100705,159.991579 136.852526,155.8762 L149.535099,153.583183 L144.071659,151.000309 C141.068499,149.576858 134.603044,146.494629 129.705584,144.147084 C124.808124,141.799539 119.468853,139.274062 117.840216,138.536508 L114.877484,137.193414 L114.568505,138.229433 Z M149.919157,158.189307 C149.257884,158.395937 145.142978,159.469264 140.773959,160.57416 C114.325942,167.266673 114.785079,167.137529 114.785079,167.898042 C114.785079,171.052018 125.218171,186.379938 127.363697,186.379938 C127.782407,186.379938 151.542018,158.166348 151.296567,157.959718 C151.201275,157.879362 150.58043,157.982677 149.919157,158.189307 M166.612681,160.350312 C167.984316,161.908645 173.886679,167.918131 179.73129,173.703768 L190.357854,184.227543 L191.567781,182.792614 C195.983003,177.55512 202.474447,165.186025 201.345375,164.161485 C201.250082,164.078259 198.469272,163.550205 195.160021,162.993452 C191.850771,162.433829 185.460394,161.331803 180.96143,160.545462 C176.462466,159.75912 171.371533,158.889553 169.650492,158.611176 C167.929451,158.33567 165.983172,157.976937 165.3219,157.813356 C164.273682,157.555068 164.43539,157.876492 166.612681,160.350312 M160.508181,162.000481 C160.508181,162.649069 160.95288,168.779089 161.495759,175.617965 C162.038638,182.45684 162.633494,190.099276 162.818304,192.598924 L163.153272,197.141912 L165.437406,197.064426 C169.563862,196.923803 179.621559,192.974876 183.329306,190.036139 L184.651851,188.988641 L173.491071,175.844684 C159.705414,159.615627 160.508181,160.470846 160.508181,162.000481 M144.828224,176.197676 C139.024041,184.250502 134.204548,191.026241 134.11503,191.25296 C133.569264,192.613273 146.751401,197.127563 152.939642,197.698665 L156.20269,198 L156.159376,180.00311 C156.133387,170.104964 155.948577,161.902906 155.746441,161.779501 C155.544305,161.653228 150.62952,168.14198 144.828224,176.197676" fill="#FAC414"></path>
            </g>
        </g>
    </g>
</svg>