<svg height="336" width="512" xmlns="http://www.w3.org/2000/svg"><g fill="none" fill-rule="evenodd"><path d="M503.172 335.725H8.828A8.829 8.829 0 010 326.897V9.104A8.829 8.829 0 018.828.276h494.345a8.829 8.829 0 018.828 8.828v317.793a8.829 8.829 0 01-8.829 8.828z" fill="#3cb054" fill-rule="nonzero"/><path d="M138 30c191.067 6.858 264.748 118.151 227.76 217.475-10.48 27.638-21.615 42.765-45.033 58.525.953-3.982 1.935-7.987 2.677-12.063 13.854-77.49-12.398-170.726-140.8-222.231 102.16 59.01 143.386 163.992 95.745 231.762C197.263 315.838 138 248.632 138 171.202z" fill="#fff"/></g></svg>