<svg height="336" viewBox="0 0.276 512.001 335.448" width="512" xmlns="http://www.w3.org/2000/svg"><g fill="none" fill-rule="evenodd"><g fill-rule="nonzero"><path d="M503.172 335.724H8.828A8.829 8.829 0 010 326.896V9.104A8.829 8.829 0 018.828.276h494.345a8.829 8.829 0 018.828 8.828v317.792a8.829 8.829 0 01-8.829 8.828z" fill="#41479b"/><path d="M247.172.276h-15.333l-81.77 53.573V.276h-44.138v53.573L24.161.276H8.828A8.829 8.829 0 000 9.104v7.002l70.155 45.963H0v44.138h70.155L0 152.171v7.001A8.829 8.829 0 008.828 168h15.333l81.77-53.573V168h44.138v-53.573L231.838 168h15.333a8.829 8.829 0 008.828-8.828v-7.002l-70.154-45.963h70.154V62.069h-70.155l70.155-45.963V9.104a8.827 8.827 0 00-8.827-8.828z" fill="#f5f5f5"/><g fill="#ff4b55"><path d="M255.999 70.897H141.241V.276h-26.483v70.621H0v26.482h114.758V168h26.483V97.379h114.758z"/><path d="M97.103 62.069L4.207 1.768C1.735 3.333 0 5.961 0 9.104v.458l80.889 52.507zm69.18 0l88.374-57.366c-1.536-2.599-4.246-4.427-7.485-4.427h-1.909l-95.194 61.793zm-76.809 44.138L1.269 163.463C2.79 166.125 5.542 168 8.828 168h1.665l95.195-61.793zm166.385 53.66l-82.666-53.659H156.98l93.873 60.934c2.813-1.305 4.741-4.04 5.006-7.275z"/></g></g><g fill-rule="nonzero"><path d="M441.64 144c-.106 38.603-6.07 80.19-54.998 100-48.93-19.81-54.895-61.397-55.002-100z" fill="#128bbf"/><path d="M386.02 244c22.04-9.086 35.693-23.914 43.62-39.725-1.25-.442-3.739-.482-4.746-.103-1.196-.081-47.004-3.617-52.383-5.67-4.68-1.783-22.536 1.517-30.87 4.614 7.775 16.819 21.243 31.346 44.379 40.884z" fill="#e8ece9"/><path d="M352.266 220c.759-.248 2.21-.189 2.78-.085.673.123.795.184 1.04-.552.244-.737.795-.552 1.223-.184.427.368 1.525.184 1.953-.43.428-.611.55-.55.978-.123.428.43.611.307 1.04.185.427-.12 1.16-.612 1.527-1.287.367-.675.915-.92 1.22-.552.306.368.612.552 1.04.491.428-.061.55.368.489.918-.061.552.183.675 1.222-.182.917.918 1.22.55 1.22-.43s-.242-4.599-.608-5.09c-.367-.49-.734-1.902-.795-3.006-.115-2.084-.122-2.207-2.629-3.495 0-.737-.183-1.043-1.953-.92.061-.246-.245-.983-.611-1.29s-.428-.429-.245-1.286c.734.062 1.528-.06 1.956-.674.426-.614 1.831-.491 2.687-.123.856.368 1.956.43 3.604.184.612-.491 1.65-1.043 2.751-1.657 1.098-.613 1.404-.859 1.465-1.718.157-2.202-.612-4.722-1.223-5.886-.609-1.166-.792-2.638-1.648-4.479-.93-2.004-.917-2.513-1.956-3.74-.284-.338-.611-.614-.672-1.287-.061-.675-.306-1.595-1.037-2.27-1.848-1.702-2.567-7.177-3.3-11.224-.422-2.32-.123-7.788-1.099-8.647-1.65-1.35-2.445-1.104-3.545-1.534-.795-1.104-1.16-3.311-1.893-5.275-1.161.185-1.956 1.412-2.75 1.841-.795.43-.917.43-.917 1.534 0 1.102-.611 2.636-1.71 4.354-1.1 1.716-2.933 1.228-4.46 3.802-3.361-4.108-3.422-5.274-3.667-6.44-.244-1.164-.794-1.409-2.687-3.066 0-.49-.244-2.452-.061-3.556-1.406-1.166-2.445-.982-3.115-.123-.672.86-1.161 2.145-2.2 2.636-.624.796-2.502 2.802-4.04 5.19 1.4 21.343 6.198 42.531 20.626 59.476z" fill="#69522b"/><path d="M441.639 144c.041-14.511-.75-28.6-.389-40.947C422.967 94.715 398.91 93 386.642 93c-12.271 0-36.328 1.715-54.611 10.053.36 12.346-.428 26.436-.39 40.947z" fill="#bca76b"/></g><path d="M441.64 144c-.106 38.603-6.07 80.19-54.998 100-48.93-19.81-54.895-61.397-55.002-100zm-.001 0c.041-14.511-.75-28.6-.389-40.947C422.967 94.715 398.91 93 386.642 93c-12.271 0-36.328 1.715-54.611 10.053.36 12.346-.428 26.436-.39 40.947z" stroke="#000" stroke-width="2"/></g></svg>