<svg height="336" width="512" xmlns="http://www.w3.org/2000/svg"><g fill="none"><path d="M503.172 335.725H8.828A8.829 8.829 0 010 326.897V9.104A8.829 8.829 0 018.828.276h494.345a8.829 8.829 0 018.828 8.828v317.793a8.829 8.829 0 01-8.829 8.828z" fill="#5b6a72"/><g fill="#fff"><path d="M207.074 244.533c14.338 10.044 40.63-2.48 59.267-27.959.263-.337.545-.653.792-1.006 10.252-14.463 6.72-34.458-7.874-44.683-14.593-10.225-34.731-6.786-44.969 7.673-.252.356-.458.725-.692 1.087-17.857 26.03-20.86 54.853-6.524 64.888" fill-opacity=".1"/><path d="M222.317 225.671c10.07 6.826 28.657-1.861 41.9-19.404.194-.233.392-.45.573-.693 3.498-4.736 4.9-10.65 3.89-16.41-1.011-5.76-4.35-10.878-9.261-14.198-10.255-6.958-24.473-4.521-31.753 5.434-.186.246-.326.499-.488.744-12.701 17.918-14.936 37.697-4.86 44.527" fill-opacity=".403"/><path d="M160.201 141.502c-1.51 1.927-2.254 4.832 1.848 3.564 11.701-3.613 38.228-7.83 69.019 13.374 41.587 28.634 38.21-45.582 38.21-45.582-9.876-6.794-59.567-34.371-109.077 28.644m158.091 111.887c.177 4.194 2.67 2.546 3.978.518 42.807-66.415.187-103.004-9.528-109.832 0 0-71.054 21.47-30.153 50.245 30.284 21.303 35.192 47.108 35.703 59.069"/><path d="M293.814 206.872c5.885-7.27 36.832-43.57 67.75-83.591 30.92-40.02 12.059-108.889 8.348-111.632l-.049.058.033-.072c-3.712-2.744-71.904 1.821-97.422 45.83-25.518 44.008-47.69 86.791-52.232 95.047s-2.018 12.778 6.077 18.76c3.688 2.719 14.075 10.394 24.308 17.952 10.233 7.56 20.62 15.236 24.31 17.955 8.096 5.987 12.993 6.963 18.877-.307z"/></g><path d="M283.356 215h-.337c-3.711-.1-7.581-1.753-12.94-5.529a43695.772 43695.772 0 01-24.725-17.43l-.616-.433-16.463-11.597-8.887-6.262c-5.348-3.773-8.209-6.857-9.547-10.315-2.096-5.41.162-10.37 2.037-13.632.983-1.707 2.784-4.937 5.275-9.405 9.155-16.427 28.2-50.611 49.25-85.234 7.575-12.46 19.157-22.916 34.427-31.093 8.07-4.319 21.555-10.264 39.917-14.065 7.258-1.502 14.699-2.52 20.95-2.87 9.58-.536 11.28.664 12.1 1.242l.076.055c.839.595 2.523 1.956 5.186 10.964 1.782 6.037 3.33 13.422 4.358 20.794 2.82 20.221 4.296 58.159-17.492 85.048-25.503 31.489-51.263 60.946-63.643 75.094-3.37 3.855-5.807 6.64-7.082 8.142-1.857 2.186-3.68 3.768-5.575 4.841a12.62 12.62 0 01-6.269 1.685m82.888-199.951c-6.708 0-21.37 1.376-37.905 6.418-17.924 5.46-42.022 16.465-55.02 37.861-20.975 34.492-39.974 68.587-49.105 84.97-2.507 4.5-4.319 7.747-5.332 9.508-2.181 3.786-1.945 5.587-1.507 6.733.705 1.818 2.826 3.93 6.677 6.644l8.89 6.261 16.462 11.597.617.436c10.465 7.375 20.957 14.768 24.725 17.43 7.94 5.594 10.296 5.073 14.286.378 1.312-1.546 3.765-4.357 7.158-8.23 12.348-14.116 38.04-43.49 63.44-74.854 15.77-19.465 18.012-45.882 17.12-64.615-.973-20.292-5.824-36.434-7.762-40.423a27.008 27.008 0 00-2.744-.122" fill="#5b6a72"/><path d="M300.091 107.795c12.874 9.067 30.663 5.984 39.713-6.881s5.98-30.64-6.894-39.707-30.656-5.99-39.713 6.88c-9.057 12.87-5.974 30.639 6.894 39.708" fill="#fefefe"/><path d="M315.938 117c-12.315-.035-23.587-6.81-29.245-17.574-5.658-10.764-4.762-23.732 2.325-33.643 5.038-7.047 12.715-11.834 21.342-13.306s17.493.492 24.647 5.458c14.884 10.326 18.464 30.637 7.98 45.277-5.02 7.062-12.705 11.852-21.339 13.3a33.928 33.928 0 01-5.71.488m.103-56.974a25.6 25.6 0 00-4.3.364c-6.494 1.092-12.274 4.698-16.05 10.012-7.885 11.027-5.191 26.322 6.006 34.092a25.148 25.148 0 0018.551 4.107c6.493-1.107 12.272-4.71 16.064-10.012 7.895-11.025 5.198-26.316-6.008-34.09a24.943 24.943 0 00-14.263-4.473" fill="#5b6a72"/><path d="M127 327.666L172.48 264l3.3 2.334L130.3 330zm26.075-8.115l26.604-37.42 3.321 2.337-26.605 37.42z" fill="#fff"/></g></svg>