<svg viewBox="0 88 512 334" xmlns="http://www.w3.org/2000/svg"><path d="M503.172 423.721H8.828A8.829 8.829 0 010 414.893V97.101a8.829 8.829 0 018.828-8.828h494.345a8.829 8.829 0 018.828 8.828v317.792a8.829 8.829 0 01-8.829 8.828z" fill="#73af00"/><path d="M70.62 88.277h88.28v335.45H70.62z" fill="#ff4b55"/><path d="M150.069 126.526l-17.655 14.713H97.103l-17.655-14.713v-14.713l17.655-14.712h35.311l17.655 14.712z" fill="#f5f5f5"/><path d="M150.069 250.112l-17.655 14.714H97.103l-17.655-14.714V235.4l17.655-14.713h35.311l17.655 14.713zm0-61.793l-17.655 14.713H97.103l-17.655-14.713v-14.712l17.655-14.713h35.311l17.655 14.713zm0 123.586l-17.655 14.713H97.103l-17.655-14.713v-14.711l17.655-14.714h35.311l17.655 14.714z" fill="#73af00"/><path d="M97.1 176.547h35.31v8.828H97.1z" fill="#ff4b55"/><path d="M141.241 166.25l-8.827-7.356v44.138l8.827-7.357zm-52.965 29.425l8.827 7.357v-44.137l-8.827 7.355zm26.482-98.574H97.104l-17.656 14.712v7.357h35.31zm0 44.138h17.656l17.655-14.713v-7.356h-35.311z" fill="#ffb400"/><path d="M114.758 132.411l-17.655-13.189 17.655-13.294 17.656 13.294z" fill="#ff4b55"/><path d="M114.758 132.411l17.656-13.189-.069-.052h-17.587zm0-13.241v-13.242L97.173 119.17z" fill="#73af00"/><path d="M97.1 229.517h35.31V256H97.1z" fill="#ff4b55"/><path d="M132.41 238.337h8.828v8.828h-8.828z" fill="#ffb400"/><path d="M110.34 238.337h8.828v8.828h-8.828z" fill="#f5f5f5"/><path d="M110.34 291.307h8.828v8.828h-8.828z" fill="#ff4b55"/><path d="M123.59 300.138h8.828v8.828h-8.828zm-26.49 0h8.828v8.828H97.1z" fill="#ffb400"/><path d="M110.34 308.957h8.828v8.828h-8.828z" fill="#ff4b55"/><path d="M88.28 238.337h8.828v8.828H88.28z" fill="#ffb400"/><path d="M150.069 373.698l-17.655 14.713H97.103l-17.655-14.713v-14.711l17.655-14.714h35.311l17.655 14.714z" fill="#f5f5f5"/><path d="M114.758 344.273H97.104l-17.656 14.713v7.356h35.31z" fill="#ffb400"/><path d="M114.758 388.411h17.656l17.655-14.713v-7.356h-35.311z" fill="#ffb400"/><path d="M132.414 370.755l-17.656 8.828-17.655-8.828v-8.827l17.655-8.828 17.656 8.828z" fill="#ff4b55"/><path d="M280.01 136.34c-.94-.462-1.791.761-1.028 1.48 9.99 9.427 16.303 22.666 16.303 37.433 0 29.007-23.316 52.279-51.986 52.279a50.825 50.825 0 01-15.197-2.328c-.996-.311-1.641 1.025-.783 1.621 8.382 5.827 18.485 9.31 29.514 9.31 29.049 0 52.787-23.275 52.787-52.703-.001-20.682-12.14-38.503-29.61-47.092zm-71.837 34.06l-2.159 6.109 5.08 4.021c.658.521.275 1.579-.564 1.557l-6.477-.167-2.254 6.074c-.292.787-1.417.749-1.655-.055l-1.843-6.211-6.474-.267c-.839-.034-1.15-1.116-.459-1.591l5.338-3.672-1.747-6.24c-.226-.808.706-1.439 1.372-.928l5.142 3.942 5.395-3.59c.696-.465 1.584.227 1.305 1.018zm26.234 13.25l-2.159 6.109 5.08 4.021c.658.521.275 1.579-.564 1.557l-6.477-.167-2.254 6.074c-.292.787-1.417.749-1.655-.055l-1.843-6.211-6.474-.267c-.839-.034-1.15-1.116-.459-1.591l5.338-3.672-1.747-6.24c-.226-.808.706-1.439 1.372-.928l5.142 3.942 5.395-3.59c.697-.464 1.584.228 1.305 1.018zm-.265-27.295l-2.159 6.109 5.08 4.021c.658.521.275 1.579-.564 1.557l-6.477-.167-2.254 6.074c-.292.787-1.417.749-1.655-.055l-1.843-6.211-6.474-.267c-.839-.034-1.15-1.116-.459-1.591l5.338-3.672-1.747-6.24c-.226-.808.706-1.439 1.372-.928l5.142 3.942 5.395-3.59c.697-.464 1.585.228 1.305 1.018zm.894-26.345l-2.159 6.109 5.08 4.021c.658.521.275 1.579-.564 1.557l-6.477-.167-2.254 6.074c-.292.787-1.417.749-1.655-.055l-1.843-6.211-6.474-.267c-.839-.034-1.15-1.116-.459-1.591l5.338-3.672-1.747-6.24c-.226-.808.706-1.439 1.372-.928l5.142 3.942 5.395-3.59c.696-.465 1.584.227 1.305 1.018zm25.705 13.25l-2.159 6.109 5.08 4.021c.658.521.275 1.579-.564 1.557l-6.477-.167-2.254 6.074c-.292.787-1.417.749-1.655-.055l-1.843-6.211-6.474-.267c-.839-.034-1.15-1.116-.459-1.591l5.338-3.672-1.747-6.24c-.226-.808.706-1.439 1.372-.928l5.142 3.942 5.395-3.59c.696-.465 1.584.227 1.305 1.018z" fill="#f5f5f5"/><path d="M70.621 132.411l17.655 17.655-17.655 17.655zm88.275 35.31l-17.655-17.655 17.655-17.655zm-88.275 26.483l17.655 17.655-17.655 17.655zm88.275 35.31l-17.655-17.655 17.655-17.655zm-88.275 26.483l17.655 17.655-17.655 17.655zm88.275 35.31l-17.655-17.655 17.655-17.655zM70.621 317.79l17.655 17.655L70.621 353.1zm88.275 35.31l-17.655-17.655 17.655-17.655zM70.621 88.273h17.655l-17.655 17.655zm88.275 17.655l-17.655-17.655h17.655zm-48.556 52.969h8.828v44.14h-8.828z" fill="#ffb400"/></svg>