<svg height="336" width="512" xmlns="http://www.w3.org/2000/svg"><g fill="none"><path d="M503.172 335.725H8.828A8.829 8.829 0 010 326.897V9.104A8.829 8.829 0 018.828.276h494.345a8.829 8.829 0 018.828 8.828v317.793a8.829 8.829 0 01-8.829 8.828z" fill="#048657"/><path d="M406.638 47.114C395.604 32.526 382.216 20 382.216 20L207 271.063l29.763 39.536S241.177 316 247.946 316c6.766 0 10.1-5.107 10.1-5.107L424 75.998s-6.328-14.295-17.362-28.884zM202.755 264L244 205.073 197.821 145h-84.385l-.436.487zm-95.769-113L88 172h35z" fill="#fff"/></g></svg>