<svg viewBox="0 10 48 27" xmlns="http://www.w3.org/2000/svg"><path d="M8 28l2.5-8.3c.1-.4.5-.7.9-.7h9.2c.4 0 .8.3.9.7L24 28zm32 0l-2.5-8.3c-.2-.4-.5-.7-.9-.7h-9.2c-.4 0-.8.3-.9.7L24 28zm-8-9l-2.5-8.3c-.2-.4-.5-.7-.9-.7h-9.2c-.4 0-.8.3-.9.7L16 19zM16 37l-2.5-8.3c-.2-.4-.5-.7-.9-.7H3.4c-.4 0-.8.3-.9.7L0 37zm16 0l-2.5-8.3c-.2-.4-.5-.7-.9-.7h-9.2c-.4 0-.8.3-.9.7L16 37zm16 0l-2.5-8.3c-.2-.4-.5-.7-.9-.7h-9.2c-.4 0-.8.3-.9.7L32 37z" fill="#ffc107"/><path d="M37.3 19.4L24 28l2.5-8.3c.1-.4.5-.7.9-.7h9.2c.3 0 .5.1.7.4zM20.6 19h-9.2c-.4 0-.8.3-.9.7L8 28l13.3-8.6c-.2-.3-.4-.4-.7-.4zm8 9h-9.2c-.4 0-.8.3-.9.7L16 37l13.3-8.6c-.2-.3-.4-.4-.7-.4zm16 0h-9.2c-.4 0-.8.3-.9.7L32 37l13.3-8.6c-.2-.3-.4-.4-.7-.4zm-32 0H3.4c-.4 0-.8.3-.9.7L0 37l13.3-8.6c-.2-.3-.4-.4-.7-.4zm16-18h-9.2c-.4 0-.8.3-.9.7L16 19l13.3-8.6c-.2-.3-.4-.4-.7-.4z" fill="#ffd740"/></svg>