<svg height="336" width="512" xmlns="http://www.w3.org/2000/svg"><g fill="none"><path d="M503.172 335.725H8.828A8.829 8.829 0 010 326.897V9.104A8.829 8.829 0 018.828.276h494.345a8.829 8.829 0 018.828 8.828v317.793a8.829 8.829 0 01-8.829 8.828z" fill="#eee"/><path d="M256 0C163.23 0 88 75.212 88 167.959A166.802 166.802 0 0096.568 221H146.8V79.68L256 188.853 365.2 79.68V221h50.232A167.892 167.892 0 00424 167.959C424 75.212 348.77 0 256 0" fill="#fa6800"/><path d="M230.427 213.778L182.767 166v89.125H112C141.49 303.609 194.725 336 255.517 336S369.544 303.61 399 255.125h-70.768V166l-47.626 47.778-25.09 25.151z" fill="#4c4c4c"/></g></svg>