<svg height="336" width="512" xmlns="http://www.w3.org/2000/svg"><g fill="none" fill-rule="evenodd"><path d="M503.172 335.725H8.828A8.829 8.829 0 010 326.897V9.104A8.829 8.829 0 018.828.276h494.345a8.829 8.829 0 018.828 8.828v317.793a8.829 8.829 0 01-8.829 8.828z" fill="#ffd512" fill-rule="nonzero"/><path d="M386 144.704c0 71.758-55.42 96.143-102.209 96.143v18.692h36.09v25.334h-36.034V314h-56.342v-29.127h-34.498v-25.334h34.526v-18.944c-14.945 0-100.533-3.57-100.533-101.137V22h55.84v122.034c0 50.89 44.805 50.443 44.805 50.443V22h56.202v172.393s46.202 2.623 46.202-51.14V22H386z" fill="#fff"/></g></svg>