<svg height="336" width="512" xmlns="http://www.w3.org/2000/svg"><g fill="none"><path d="M503.172 335.725H8.828A8.829 8.829 0 010 326.897V9.104A8.829 8.829 0 018.828.276h494.345a8.829 8.829 0 018.828 8.828v317.793a8.829 8.829 0 01-8.829 8.828z" fill="#11aae2"/><path d="M269.33 80.614c0 11.58 4.659 23.25 10.49 33.662 4.66 9.3 6.943 25.531-9.316 33.661-11.602 6.93-26.781 2.31-33.724-9.3-6.944-9.3-15.088-18.6-25.579-25.531-19.747-11.58-43.041-11.58-62.79 0S117 145.65 117 167.707c0 22.058 11.602 42.962 31.406 54.573 19.748 11.58 43.042 11.58 62.79 0 10.491-5.82 18.634-15.06 24.408-25.531 4.658-8.13 17.463-18.6 33.723-9.3 11.603 6.93 15.09 22.081 9.317 33.661-5.83 10.47-9.317 22.082-9.317 33.662 0 22.081 11.603 42.961 31.44 54.543 19.747 11.58 43.042 11.58 62.79 0S395 276.823 395 254.772c0-22.052-11.632-42.962-31.44-54.573-10.49-5.82-22.122-8.13-34.897-8.13-10.49 0-24.407-6.93-24.407-24.362 0-13.95 10.49-24.361 24.407-24.361 11.603 0 24.407-2.31 34.897-8.13 19.747-11.58 31.44-32.492 31.44-54.542 0-22.05-11.632-42.961-31.44-54.543-9.316-5.82-20.92-8.132-31.406-8.132-10.43-.058-22.123 2.312-31.38 8.072-19.751 11.58-31.444 32.492-31.444 54.543z" fill="#fff"/></g></svg>