<svg height="336" width="512" xmlns="http://www.w3.org/2000/svg"><g fill="none"><path d="M503.172 335.725H8.828A8.829 8.829 0 010 326.897V9.104A8.829 8.829 0 018.828.276h494.345a8.829 8.829 0 018.828 8.828v317.793a8.829 8.829 0 01-8.829 8.828z" fill="#528e61"/><g transform="translate(55 52)"><path d="M400.286 177.979a2.674 2.674 0 002.456-2.669V57.188a2.677 2.677 0 00-2.456-2.669c-14.416-1.183-25.907-12.69-27.067-27.113A2.615 2.615 0 00370.608 25H32.188a2.677 2.677 0 00-2.669 2.456C28.337 41.855 16.855 53.337 2.456 54.519A2.674 2.674 0 000 57.188V175.31a2.677 2.677 0 002.456 2.669c14.399 1.182 25.881 12.664 27.063 27.063a2.674 2.674 0 002.669 2.456h338.366a2.677 2.677 0 002.669-2.456c1.182-14.399 12.664-25.881 27.063-27.063z" fill="#7dbe3b"/><circle cx="200.966" cy="115.966" fill="#cbe7af" r="115.966"/><path d="M207.367 191.248v-15.705c10.918-1.568 19.443-5.823 25.573-12.766 6.131-6.942 9.197-15.48 9.197-25.615 0-9.07-2.436-16.503-7.307-22.298s-14.025-10.512-27.463-14.151V67.875c5.431 2.352 8.79 6.83 10.078 13.438l21.248-2.772c-1.455-8.398-4.815-15.103-10.078-20.114-5.263-5.011-12.345-8.049-21.248-9.113V41H195.19v8.314c-9.63.952-17.342 4.55-23.137 10.792-5.795 6.243-8.693 13.956-8.693 23.138 0 9.07 2.562 16.783 7.685 23.138s13.171 11.1 24.145 14.235v35.19c-3.023-1.456-5.766-3.808-8.23-7.055-2.464-3.247-4.143-7.11-5.04-11.59L160 139.514c1.68 11.03 5.543 19.568 11.59 25.615s13.913 9.658 23.6 10.834v15.285zM195.19 96.682c-3.639-1.568-6.354-3.626-8.146-6.173-1.792-2.548-2.688-5.305-2.688-8.273 0-3.247.98-6.215 2.94-8.902 1.96-2.688 4.591-4.591 7.894-5.711zm12.178 60.3V124.23c5.04 1.455 8.665 3.54 10.876 6.256 2.212 2.716 3.318 5.95 3.318 9.7 0 4.2-1.316 7.853-3.948 10.96-2.631 3.108-6.047 5.054-10.246 5.837z" fill="#5ea570"/></g></g></svg>