<svg height="433" viewBox="0 0 512 433" width="512" xmlns="http://www.w3.org/2000/svg"><g fill="none" fill-rule="evenodd"><path d="m56.888889 368.355556h398.222222v21.333333h-398.222222z" fill="#d7ccc8"/><path d="m56.888889 140.8h398.222222v21.333333h-398.222222z" fill="#bcaaa4"/><path d="m163.555556 140.8h184.888889v22.755556h-184.888889z" fill="#5aa046"/><path d="m142.222222 162.133333h227.555556v206.222222h-227.555556z" fill="#4caf50"/><g fill="#d7ccc8"><path d="m369.777778 162.133333h56.888889v207.644444h-56.888889z"/><path d="m85.333333 162.133333h56.888889v207.644444h-56.888889z"/><path d="m0 411.022222h512v21.333333h-512z"/></g><path d="m28.444444 389.688889h455.111111v21.333333h-455.111111z" fill="#bcaaa4"/><path d="m256 .55655466 211.172199 103.23974134h-422.3443978z" fill="#d7ccc8" stroke="#d7ccc8"/><ellipse cx="256" cy="75.807752" fill="#bcaaa4" rx="21.333333" ry="20.341085"/><path d="m42.666667 103.822222h426.666667v36.977778h-426.666667z" fill="#d7ccc8"/><path d="m126.577778 153.162393c0 14.586895-4.602829 26.342216-13.808485 35.265963-9.205657 8.923747-20.7127273 14.415284-34.5212122 16.47461v22.65259h-22.7584287v-22.395174c-13.1265844-1.887716-24.6336551-7.036031-34.5212121-15.444947-9.8875571-8.408916-16.87703708-19.821016-20.96844-34.2363l29.4069585-12.098542c1.8752263 7.036032 5.1142536 13.214011 9.7170819 18.533937s10.0580322 9.009552 16.3656117 11.068879v-49.166416l-2.3014142-.772247c-30.6855219-12.012737-46.02828279-29.5170101-46.02828279-52.5128204 0-12.5275683 4.38973439-23.2961287 13.16920309-32.3056813 8.7794688-9.0095525 20.4996334-14.3723814 35.1604939-16.0884866v-22.1377577h22.7584287v22.6525892c12.4446839 2.0593263 22.3322412 6.4782973 29.6626712 13.2569131 7.33043 6.7786157 12.359446 14.3723814 15.087048 22.7812971l-28.6398202 12.8707893c-1.1933259-3.7754315-3.1537898-7.207642-5.8813917-10.2966314-2.7276019-3.0889895-6.1371044-5.4057316-10.2285073-6.9502263v46.077426c16.3656117 6.864421 28.5119642 14.157868 36.4390572 21.880342 7.927093 7.722473 11.89064 18.019105 11.89064 30.889894zm-87.965163-82.6304674c0 4.1186526 1.3211822 7.679571 3.9635466 10.6827551 2.6423644 3.0031842 6.9468612 6.049271 12.9134905 9.1382605v-37.5827049c-5.1142537 1.3728842-9.2056566 3.603821-12.2742088 6.6928105-3.0685522 3.0889894-4.6028283 6.7786157-4.6028283 11.0688788zm39.6354658 102.4514834c4.7733034-1.716105 8.5663749-4.247361 11.3792144-7.593766s4.2192592-7.33635 4.2192592-11.969834-1.150707-8.408916-3.4521212-11.326295c-2.3014141-2.917379-6.3501983-5.834758-12.1463524-8.752136z" fill="#fff" fill-rule="nonzero" transform="translate(192 140.8)"/></g></svg>