<svg viewBox="0 0 512 512" xmlns="http://www.w3.org/2000/svg" xmlns:xlink="http://www.w3.org/1999/xlink"><path d="m0 0h512v512h-512z" fill="#74acdf" stroke-width=".809543"/><path d="m0 170.7h512v170.7h-512z" fill="#fff" stroke-width=".809543"/><g id="a" transform="matrix(1.024 0 0 1.024 -153.6 0)"><path id="b" d="m396.8 251.3 28.5 62s.5 1.2 1.3.9c.8-.4.3-1.6.3-1.6l-23.7-64m-.7 24.2c-.4 9.4 5.4 14.6 4.7 23-.8 8.5 3.8 13.2 5 16.5 1 3.3-1.2 5.2-.3 5.7 1 .5 3-2.1 2.4-6.8-.7-4.6-4.2-6-3.4-16.3s-4.2-12.7-3-22" fill="#f6b40e" stroke="#85340a" stroke-width="1.1"/><use height="100%" transform="matrix(.92387953 .38268343 -.38268343 .92387953 126.119045 -134.043256)" width="100%" xlink:href="#b"/><use height="100%" transform="matrix(.70710678 .70710678 -.70710678 .70710678 293.933983 -209.619408)" width="100%" xlink:href="#b"/><use height="100%" transform="matrix(.38268343 .92387953 -.92387953 .38268343 477.89651 -215.222671)" width="100%" xlink:href="#b"/><path id="c" d="m404.3 274.4c.5 9 5.6 13 4.6 21.3 2.2-6.5-3.1-11.6-2.8-21.2m-7.7-23.8 19.5 42.6-16.3-43.9" fill="#85340a"/><use height="100%" transform="matrix(.92387953 .38268343 -.38268343 .92387953 126.119045 -134.043256)" width="100%" xlink:href="#c"/><use height="100%" transform="matrix(.70710678 .70710678 -.70710678 .70710678 293.933983 -209.619408)" width="100%" xlink:href="#c"/><use height="100%" transform="matrix(.38268343 .92387953 -.92387953 .38268343 477.89651 -215.222671)" width="100%" xlink:href="#c"/></g><use height="100%" transform="matrix(0 1 -1 0 512 0)" width="100%" xlink:href="#a"/><use height="100%" transform="matrix(-1 0 0 -1 512 512)" width="100%" xlink:href="#a"/><use height="100%" transform="matrix(0 -1 1 0 0 512)" width="100%" xlink:href="#a"/><circle cx="256" cy="256" fill="#f6b40e" r="28.4" stroke="#85340a" stroke-width="1.5"/><path id="d" d="m265.7 250c-2 0-3.8.8-4.9 2.5 2.2 2 7 2.2 10.3-.2a7.5 7.5 0 0 0 -5.4-2.4zm0 .4c1.9 0 3.6.8 3.9 1.7-2.2 2.4-5.7 2.2-7.9.4 1-1.5 2.5-2.1 4-2.1z" fill="#843511" stroke-width="1.024"/><use height="100%" transform="matrix(-1 0 0 1 512.3 0)" width="100%" xlink:href="#f"/><use height="100%" transform="matrix(-1 0 0 1 512.3 0)" width="100%" xlink:href="#e"/><use height="100%" transform="translate(19.3)" width="100%" xlink:href="#g"/><use height="100%" transform="matrix(-1 0 0 1 512.3 0)" width="100%" xlink:href="#h"/><path d="m251.6 260a2 2 0 1 0 2 3c.8.6 1.8.6 2.4.6h.3c.5 0 1.6 0 2.3-.6.4.5 1 .8 1.6.8a2 2 0 0 0 .4-3.9c.5.2.9.7.9 1.3a1.3 1.3 0 0 1 -2.7 0c-.2.5-1 1.7-2.7 1.8a3.3 3.3 0 0 1 -2.7-1.8c0 .7-.6 1.3-1.3 1.3a1.3 1.3 0 0 1 -.4-2.6z" fill="#85340a" stroke-width="1.024"/><path d="m253.8 265.8c-2.2 0-3 2-5 3.3 1-.5 2-1.3 3.5-2.2s2.8.2 3.7.2 2.2-1.1 3.7-.2 2.4 1.7 3.5 2.2c-2-1.4-2.8-3.3-5-3.3-.5 0-1.3.2-2.2.6-1-.4-1.8-.6-2.2-.6z" fill="#85340a" stroke-width="1.024"/><path d="m253 268.3c-.8 0-2 .3-3.6.8 4-1 4.8.4 6.6.4 1.7 0 2.6-1.3 6.6-.4-4.4-1.4-5.3-.5-6.6-.5-.9 0-1.5-.3-3-.3z" fill="#85340a" stroke-width="1.024"/><path d="m249.6 269h-.8c4.6.5 2.4 3.1 7.2 3.1s2.6-2.6 7.2-3c-4.8-.5-3.3 2.4-7.2 2.4-3.7 0-2.6-2.5-6.4-2.5z" fill="#85340a" stroke-width="1.024"/><path d="m260 276.1a4 4 0 0 0 -8 0 4 4 0 0 1 8 0z" fill="#85340a" stroke-width="1.024"/><path id="e" d="m238.3 249.9c5-4.4 11.4-5 14.9-1.8a8.6 8.6 0 0 1 1.6 3.7c.5 2.5-.3 5.2-2.3 8 .3 0 .7.1 1 .4 1.7-3.4 2.3-6.8 1.7-10l-.7-2.5c-4.8-4-11.4-4.4-16.2 2.2z" fill="#85340a" stroke-width="1.024"/><path id="f" d="m246.2 248.6c2.8 0 3.5.6 4.8 1.7s2 .9 2.2 1.1 0 .9-.4.7c-.5-.3-1.4-.7-2.7-1.8-1.3-1-2.6-1-4-1-3.8 0-6 3.2-6.5 3-.4-.2 2.2-3.7 6.6-3.7z" fill="#85340a" stroke-width="1.024"/><use height="100%" transform="translate(-19.6)" width="100%" xlink:href="#d"/><circle id="g" cx="246.3" cy="252.1" fill="#85340a" r="2" stroke-width="1.024"/><path id="h" d="m241 253.4c3.7 2.8 7.4 2.6 9.6 1.3s2.2-1.8 1.7-1.8c-.4 0-.9.5-2.6 1.4-1.8.8-4.4.8-8.8-1z" fill="#85340a" stroke-width="1.024"/></svg>