<?xml version="1.0" encoding="UTF-8"?>
<svg width="512px" height="512px" viewBox="0 0 512 512" version="1.1" xmlns="http://www.w3.org/2000/svg" xmlns:xlink="http://www.w3.org/1999/xlink">
    <title>btc</title>
    <g id="Page-1" stroke="none" stroke-width="1" fill="none" fill-rule="evenodd">
        <g id="btc" fill-rule="nonzero">
            <polygon id="Path" fill="#F7931A" points="0 0 512 0 512 512 0 512"></polygon>
            <path d="M454.957617,207.468623 C463.267447,156.117282 420.909573,128.511428 362.989496,110.096858 L381.777885,40.5345844 L335.891279,29.9818432 L317.598891,97.7113872 C305.552329,94.9375653 293.166858,92.3193801 280.858479,89.7259221 L299.281776,21.5512867 L253.434442,11 L234.632963,80.5375463 C224.650404,78.4386345 214.851119,76.3644499 205.339833,74.1811743 L205.392197,73.9644467 L142.128114,59.3840639 L129.924461,104.608851 C129.924461,104.608851 163.96087,111.80886 163.242323,112.255406 C181.821257,116.536139 185.191443,127.884518 184.618352,136.880893 L163.216142,216.127543 C164.496143,216.428635 166.155782,216.86209 167.985602,217.538454 L163.150687,216.428635 L133.139011,327.43969 C130.865553,332.649879 125.104091,340.465162 112.116438,337.497885 C112.57462,338.113159 78.7738482,329.816421 78.7738482,329.816421 L56,378.296485 L115.70917,392.03323 C126.816093,394.601961 137.699017,397.291419 148.400122,399.823786 L129.41537,470.193333 L175.236521,480.746075 L194.051091,411.135801 C206.554381,414.271805 218.705669,417.166354 230.59514,419.892176 L211.860569,489.175177 L257.731175,499.727918 L276.715928,429.502371 C354.940031,443.166389 413.773563,437.655109 438.506687,372.363386 C458.458713,319.781498 437.527776,289.451277 396.369904,269.660705 C426.343762,263.257787 448.919791,245.058491 454.944527,207.468623 L454.957617,207.468623 Z M349.777842,341.425163 C335.603278,393.410687 239.803879,365.319013 208.727474,358.260095 L233.891144,266.105791 C264.954458,273.187982 364.553135,287.209819 349.789479,341.425163 L349.777842,341.425163 Z M367.255684,205.989348 C354.257848,254.152321 274.036651,229.68247 248.000253,223.682463 L270.950102,138.552168 C296.9865,144.552168 380.806247,155.749282 367.255684,205.989348 Z" id="Shape" fill="#FFFFFF"></path>
        </g>
    </g>
</svg>