<svg viewBox="0 0 512 512" xmlns="http://www.w3.org/2000/svg"><path d="m0 0h512v512h-512z" fill="#039" stroke-width="1.89893"/><circle cx="256" cy="266.5" fill="none" r="32.5" stroke="#fc0" stroke-width="29.317"/><circle cx="256" cy="266.5" fill="none" r="94.2" stroke="#fc0" stroke-width="29.317"/><g stroke-width="2.09407"><path d="m369.4-120.3h127.7v127.7h-127.7z" fill="#039" transform="matrix(.70710678 .70710678 -.70710678 .70710678 0 0)"/><path d="m102.1 251.8h63.2v29.3h-63.2z" fill="#fc0"/><path d="m378.5 251.8h94.2v29.3h-94.2z" fill="#fc0"/><path d="m72.1 354.8h58.4v29.3h-58.4z" fill="#fc0" transform="matrix(.70710678 -.70710678 .70710678 .70710678 0 0)"/><path d="m241.3 51.8h29.3v114.2h-29.3z" fill="#fc0"/><circle cx="154.8" cy="170.3" fill="#fc0" r="14.7"/><circle cx="68.6" cy="266.5" fill="#fc0" r="14.7"/><circle cx="256" cy="406.8" fill="#fc0" r="14.7"/><circle cx="256" cy="453.9" fill="#fc0" r="14.7"/><circle cx="350.2" cy="266.5" fill="#fc0" r="14.7"/><path d="m-160.8 354.4h29.3v29.3h-29.3z" fill="#fc0" transform="matrix(.70710678 -.70710678 .70710678 .70710678 0 0)"/><path d="m-22.1 524.7h29.3v29.3h-29.3z" fill="#fc0" transform="matrix(.70710678 -.70710678 .70710678 .70710678 0 0)"/></g></svg>