<?xml version="1.0" encoding="UTF-8"?>
<svg width="512px" height="512px" viewBox="0 0 512 512" version="1.1" xmlns="http://www.w3.org/2000/svg" xmlns:xlink="http://www.w3.org/1999/xlink">
    <title>dash</title>
    <g id="Page-1" stroke="none" stroke-width="1" fill="none" fill-rule="evenodd">
        <g id="dash" fill-rule="nonzero">
            <polygon id="Path" fill="#2573C2" points="0 0 512 0 512 512 0 512"></polygon>
            <g id="Group" transform="translate(26.000000, 120.000000)" fill="#FFFFFF">
                <path d="M459.447,42.9835759 C458.974761,35.1051614 456.661864,27.4472206 452.694,20.6245759 C449.177,13.5945759 442.917,8.10957588 435.601,5.29757588 C428.139902,1.58080092 419.874719,-0.231094204 411.543,0.0235758772 L99.358,0.0235758772 L76.988,67.0295759 L359.841,67.0295759 L315.172,203.994576 L32.39,203.994576 L10.021,271.000576 L323.684,271.000576 C333.030092,270.73002 342.270837,268.949005 351.048,265.726576 C359.841,260.734576 369.9,255.672576 378.411,248.641576 C386.720651,242.093829 394.229167,234.589006 400.781,226.282576 C406.196117,218.144821 410.813189,209.503427 414.568,200.478576 L456,70.2635759 C459.769194,61.6966551 460.966782,52.218792 459.447,42.9835759 Z" id="Path"></path>
                <polygon id="Path" points="188.59 105.490576 22.343 105.490576 -2.84217094e-14 167.329576 167.933 167.329576"></polygon>
            </g>
        </g>
    </g>
</svg>