<svg viewBox="0 0 512 512" xmlns="http://www.w3.org/2000/svg" xmlns:xlink="http://www.w3.org/1999/xlink"><g fill-rule="evenodd"><path d="m0 0h512v512h-512z" fill="#fff" stroke-width="8.7099"/><g transform="matrix(5.20166651 -7.79956989 7.79956989 5.20166651 255.974425 255.992254)"><g id="a"><path id="b" d="m-6-26h12v2h-12zm0 3h12v2h-12zm0 3h12v2h-12z"/><use height="100%" width="100%" xlink:href="#b" y="44"/></g><path d="m0 17v10" stroke="#fff"/><path d="m0-12a12 12 0 0 1 0 24z" fill="#cd2e3a"/><path d="m0-12a12 12 0 0 0 0 24 6 6 0 0 0 0-12z" fill="#0047a0"/><circle cy="-6" fill="#cd2e3a" r="6"/></g><g transform="matrix(-5.20166651 -7.79956989 7.79956989 -5.20166651 256.02566 255.992228)"><use height="100%" width="100%" xlink:href="#a"/><path d="m0-23.5v3m0 37.5v3.5m0 3v3" stroke="#fff"/></g></g></svg>