<?xml version="1.0" encoding="UTF-8"?>
<svg width="512px" height="512px" viewBox="0 0 512 512" version="1.1" xmlns="http://www.w3.org/2000/svg" xmlns:xlink="http://www.w3.org/1999/xlink">
    <title>ld</title>
    <g id="Page-1" stroke="none" stroke-width="1" fill="none" fill-rule="evenodd">
        <g id="ld" fill-rule="nonzero">
            <polygon id="Path" fill="#79CEB8" points="0 0 512 0 512 512 0 512"></polygon>
            <g id="Group" transform="translate(81.000000, 18.000000)" fill="#FFFFFF">
                <path d="M0.0486099529,206.383896 C-0.439096187,212.682231 2.87239964,250.222617 4.19699797,272.153522 C5.79575064,299.017761 4.25471468,325.755024 8.74074541,352.754897 C13.0666123,386.65336 27.9185629,420.763931 55.8462325,440.432341 C86.1128715,461.778863 124.798934,470.492642 161.617862,474.488081 C192.40828,477.839979 234.117256,472.009149 264.151585,460.624529 C301.880994,446.354074 319.26815,412.383466 326.087379,394.059856 C335.229704,367.466885 333.514075,333.985425 318.839604,310.007021 C303.811617,285.48608 273.409344,271.860609 245.654825,264.353109 C210.827123,254.942401 172.256493,258.079304 137.430235,267.591016 C112.717386,274.918152 94.4543779,286.640414 71.7717137,306.404056 C62.9020994,314.138094 64.2468986,323.691652 69.3923426,329.401276 C75.3761218,336.034368 83.3641135,337.358967 96.2118516,329.401276 C106.264658,323.16643 116.399711,308.390954 131.195388,306.382412 C136.39422,305.852862 137.721704,309.464484 135.53857,313.633073 C134.213972,314.103464 123.884125,341.684834 134.076894,365.794543 C142.142804,383.278376 160.134543,398.289047 178.999247,402.031975 C200.749787,406.343413 227.762647,399.501098 242.771875,383.20623 C256.45362,368.30522 262.943863,342.403407 255.08862,323.769569 C252.631331,317.979141 245.402314,312.956345 239.14438,313.633073 C236.083952,313.964944 233.238519,317.142249 232.615178,320.143517 C232.088513,322.697481 236.61206,325.035008 235.518329,327.394178 C233.824343,335.83236 222.15114,340.416509 213.78799,334.643396 C207.492541,330.862952 206.423339,319.227265 210.163381,312.9145 C215.367985,304.102603 228.950168,301.90071 239.14438,302.75636 C256.491135,304.238237 276.292293,312.931815 284.789635,328.115637 C295.646147,347.530093 293.499085,375.817049 281.883599,394.781314 C268.551041,416.553498 240.177509,427.099782 215.230907,432.461664 C183.134649,437.058799 147.796155,435.148376 120.317233,423.7652 C87.2224751,413.200157 61.3639493,386.458566 54.3859999,355.65949 C48.6345304,330.241054 51.1495358,300.512624 49.8436954,271.432063 C49.0645199,254.122824 48.1843402,231.82109 36.7881772,217.087458 C29.9848208,208.25536 18.4256082,200.656956 7.29782784,201.316369 C2.73676539,200.770946 -0.381379484,202.975725 0.0486099529,206.383896 L0.0486099529,206.383896 Z" id="Path"></path>
                <path d="M56.9760369,33.2525451 C45.2451171,35.9046276 39.7115282,49.3136606 39.7673772,59.6795804 C51.5997261,122.136268 70.5019463,194.960317 86.7564127,243.498622 C91.9797743,249.737797 101.197132,255.913484 108.994658,253.575958 C116.281392,251.392824 119.753052,241.748363 121.175768,234.258177 C111.505335,160.403884 95.5683103,75.3164781 85.9195205,48.3584491 C82.2747107,38.1627936 67.5035635,30.4807004 56.9774798,33.2511022 L56.9760369,33.2525451 Z M153.898253,0.0971851062 C141.891736,1.18514496 134.31209,15.7672699 132.906688,26.7190143 C135.812724,94.4596656 144.291308,174.183747 153.569268,227.847295 C156.587852,237.126698 165.160225,244.533194 174.187117,241.748363 C183.208238,241.494409 188.375326,232.059171 188.977022,223.128954 C189.835558,143.65594 186.037799,51.3986765 180.289216,21.4985385 C178.103195,10.1918364 165.144353,-1.17113944 153.898253,0.0971851062 L153.898253,0.0971851062 Z M257.657013,28.4000133 C246.80483,27.250008 237.489354,38.8669374 234.310607,48.3584491 C224.937414,109.096621 218.369253,181.47481 217.139887,230.828362 C218.193217,239.618616 224.508867,247.709055 233.027853,246.834647 C241.093762,248.196761 247.34881,240.709462 249.472784,232.87442 C264.268461,162.390782 277.191231,79.6841896 277.344468,52.0855052 C277.404783,41.6532112 267.89307,29.2585492 257.658456,28.4000133 L257.657013,28.4000133 Z M335.87036,87.5971496 C326.865111,85.5294487 317.807918,94.0484341 314.082305,101.496775 C299.696416,150.205343 286.427346,208.763267 280.092385,248.994695 C280.035221,256.307401 284.496723,263.579705 291.745941,263.74997 C298.374704,265.719552 304.434958,260.24368 307.045196,254.063664 C327.059905,197.926956 346.786031,131.609021 349.86666,109.040348 C351.035424,100.501161 344.367701,89.3921391 335.87036,87.5971496 L335.87036,87.5971496 Z" id="Shape"></path>
            </g>
        </g>
    </g>
</svg>