<?xml version="1.0" encoding="UTF-8"?>
<svg width="512px" height="512px" viewBox="0 0 512 512" version="1.1" xmlns="http://www.w3.org/2000/svg" xmlns:xlink="http://www.w3.org/1999/xlink">
    <title>xx</title>
    <g id="Page-1" stroke="none" stroke-width="1" fill="none" fill-rule="evenodd">
        <g id="xx" fill-rule="nonzero">
            <polygon id="Path" fill="#EEEEEE" points="0 0 512 0 512 512 0 512"></polygon>
            <circle id="Oval" fill="#ACABB1" cx="253" cy="380" r="32"></circle>
            <path d="M322.4,135.5 C306.8,121.9 285,115.2 256.9,115.2 C229,115.2 207,122.4 190.9,136.6 C175.37102,150.828698 166.55046,170.938124 166.6,192 L166.4,192 L166.4,204.8 L224,204.8 L224.1,195.8 C223.853015,186.637817 227.189466,177.740613 233.4,171 C239.2,164.9 247.1,162 256.9,162 C277.6,162 287.9,173 287.9,195.4 C287.9,202.8 285.9,209.9 281.9,216.5 C275.212463,226.260853 267.164456,235.016007 258,242.5 C247.384326,251.240357 238.902477,262.287281 233.2,274.8 C228.7,285.8 226.4,301.5 226.4,320 L277.4,320 L278.2,306.9 C279.661494,293.874947 285.810354,281.826026 295.5,273 L311.7,257.8 C322.23992,248.236091 331.156063,237.023366 338.1,224.6 C343.126095,214.755191 345.73152,203.853547 345.700283,192.8 C345.6,168.1 337.9,149.1 322.4,135.5 L322.4,135.5 Z" id="Path" fill="#ACABB1"></path>
        </g>
    </g>
</svg>