<svg viewBox="0 0 512 512" xmlns="http://www.w3.org/2000/svg"><path d="m0 0h512v512h-512z" fill="#fedd00"/><path d="m0 0h256v256h-256z" fill="#012169"/><path d="m256 0v32l-95 96 95 93.5v34.5h-33.5l-95.5-94-93 94h-34v-34l93-93.5-93-91.5v-37h31l96 94 93-94z" fill="#fff"/><path d="m92 162 5.5 17-76.5 77h-21v-1.5zm62-6 27 4 75 73.5v22.5zm102-156-96 98-2-22 75-76zm-256 .5 96.5 94.5-29.5-4-67-66.5z" fill="#c8102e"/><path d="m88 0v256h80v-256zm-88 88v80h256v-80z" fill="#fff"/><path d="m0 104v48h256v-48zm104-104v256h48v-256z" fill="#c8102e"/><circle cx="128" cy="128" fill="#012169" r="43.6"/><path d="m128 84.4 25.6 78.8-67-48.7h82.8l-67 48.7m-49.1-58.3 15 46.3-39.3-28.6h48.7l-39.4 28.6m164.4-46.3 15 46.3-39.4-28.6h48.7l-39.4 28.6m-59.6 39 15 46.3-39.3-28.6h48.6l-39.3 28.6m15-217 15 46.5-39.3-28.7h48.6l-39.3 28.7" fill="#fedd00"/></svg>