<svg viewBox="0 0 512 512" xmlns="http://www.w3.org/2000/svg" xmlns:xlink="http://www.w3.org/1999/xlink"><defs><g id="a"><g id="b"><path d="m0 0v.5l1-.5z" transform="translate(0 -.3)"/><path d="m0 0v-.5l1 .5z" transform="matrix(.80901699 -.58778525 .58778525 .80901699 .213049 .255696)"/></g><use transform="scale(-1 1)" xlink:href="#b"/><use transform="matrix(.30901699 .95105652 -.95105652 .30901699 0 0)" xlink:href="#b"/><use transform="matrix(.30901699 -.95105652 .95105652 .30901699 0 0)" xlink:href="#b"/><use transform="matrix(-.30901699 .95105652 .95105652 .30901699 0 0)" xlink:href="#b"/></g></defs><path d="m0 0h512v512h-512z" fill="#00247d" fill-rule="evenodd"/><g transform="matrix(.60566 0 0 .60566 -148.7 90.5)"><use fill="#fff" height="100%" transform="matrix(45.4 0 0 45.4 900 120)" width="100%" xlink:href="#a"/><use fill="#cc142b" height="100%" transform="matrix(30 0 0 30 900 120)" width="100%" xlink:href="#a"/></g><g transform="matrix(.08429158 .59976576 -.59976576 .08429158 464.505397 -324.152333)"><use fill="#fff" height="100%" transform="matrix(5.62259328 -40.00682998 40.00682998 5.62259328 900.014856 119.948656)" width="100%" xlink:href="#a"/><use fill="#cc142b" height="100%" transform="matrix(3.47932752 -24.75670172 24.75670172 3.47932752 900.014856 119.948656)" width="100%" xlink:href="#a"/></g><g transform="matrix(.08429158 .59976576 -.59976576 .08429158 464.505397 -324.152333)"><use fill="#fff" height="100%" transform="matrix(6.31845878 -44.95817032 44.95817032 6.31845878 900.059711 380.000256)" width="100%" xlink:href="#a"/><use fill="#cc142b" height="100%" transform="matrix(4.17519303 -29.70804206 29.70804206 4.17519303 900.059711 380.000256)" width="100%" xlink:href="#a"/></g><g transform="matrix(.60566 0 0 .60566 -148.7 90.5)"><use fill="#fff" height="100%" transform="matrix(50.4 0 0 50.4 900 480)" width="100%" xlink:href="#a"/><use fill="#cc142b" height="100%" transform="matrix(35 0 0 35 900 480)" width="100%" xlink:href="#a"/></g><g stroke-width=".5"><path d="m0 0h256v256h-256z" fill="#012169"/><path d="m256 0v32l-95 96 95 93.5v34.5h-33.5l-95.5-94-93 94h-34v-34l93-93.5-93-91.5v-37h31l96 94 93-94z" fill="#fff"/><path d="m92 162 5.5 17-76.5 77h-21v-1.5zm62-6 27 4 75 73.5v22.5zm102-156-96 98-2-22 75-76zm-256 .5 96.5 94.5-29.5-4-67-66.5z" fill="#c8102e"/><path d="m88 0v256h80v-256zm-88 88v80h256v-80z" fill="#fff"/><path d="m0 104v48h256v-48zm104-104v256h48v-256z" fill="#c8102e"/></g></svg>