<?xml version="1.0" encoding="UTF-8"?>
<svg width="512px" height="512px" viewBox="0 0 512 512" version="1.1" xmlns="http://www.w3.org/2000/svg" xmlns:xlink="http://www.w3.org/1999/xlink">
    <title>oecs</title>
    <g id="Page-1" stroke="none" stroke-width="1" fill="none" fill-rule="evenodd">
        <g id="oecs" fill-rule="nonzero">
            <polygon id="Path" fill="#008751" points="0 0 512 0 512 512 0 512"></polygon>
            <g transform="translate(31.000000, 34.000000)" id="Shape">
                <path d="M174.445081,28.6065995 C167.288361,29.4869898 154.220447,32.018619 153.595653,32.6393551 C153.409027,32.8259816 156.88596,32.9801514 161.316311,32.9842085 C217.701862,33.0207224 284.327529,68.2890772 330.05914,122.305282 C361.351539,159.273562 379.624709,196.026814 389.686312,242.257448 L390.57076,246.314546 L392.643937,242.257448 C398.839126,230.122667 407.813428,206.051904 409.833862,196.140413 C410.917107,190.833728 409.420038,186.496691 399.614032,166.523596 C355.525546,76.6913274 259.842942,18.0906009 174.445081,28.6065995 M138.608733,33.6982578 C6.37978806,53.6713521 -8.50570528,226.881046 111.998225,343.344107 C124.498145,355.426146 129.70746,359.523815 119.309117,349.093015 C11.6053306,241.068719 23.7644539,76.7116129 142.475148,35.9864611 L151.116767,33.0207224 L146.72293,33.0775217 C144.304899,33.1099785 140.65351,33.3899183 138.608733,33.6982578 M417.58292,223.769252 C415.578714,238.869771 405.411625,267.918595 395.962643,285.530458 C393.370158,290.366519 392.972562,291.729704 392.221999,298.379288 C383.750778,373.196236 326.647121,419.232129 251.193208,412.079465 C242.774729,411.280217 233.958656,412.124094 233.950541,413.726647 C233.950541,413.94573 236.900052,414.651665 240.510868,415.296744 C357.221413,436.142115 441.300716,349.178215 420.50403,229.132735 C418.929877,220.048893 418.244227,218.791192 417.58292,223.769252 M134.815346,363.516 C136.231273,365.800146 162.789038,384.734623 169.268224,388.077672 C174.092114,390.564673 174.473481,388.816064 169.686105,386.174893 C161.636822,381.740485 150.11872,374.376852 142.260121,368.640114 C137.975825,365.512092 134.624662,363.203603 134.815346,363.516" fill="#041C44"></path>
                <path d="M209.607951,0.568109283 C203.469562,1.05496105 197.079632,1.65541157 195.408107,1.90289458 C187.764535,3.02265368 178.09647,4.77126301 174.445081,5.69222429 C173.142752,6.02084925 170.404212,6.64564238 168.359434,7.07569478 C166.314656,7.50980429 164.03051,8.09402644 163.288061,8.37396621 C162.545612,8.65390598 157.981377,10.1550323 153.145316,11.7129581 C148.309255,13.2668267 143.063427,15.1330918 141.489273,15.8552554 C139.911062,16.5733618 138.369365,17.165698 138.056967,17.165698 C137.505203,17.165698 129.938714,20.6101744 127.630225,21.912503 C126.98109,22.2776418 126.019557,22.5738099 125.488077,22.5738099 C124.956597,22.5738099 124.417004,22.8050645 124.29529,23.0809473 C124.16952,23.360887 122.850963,24.2169348 121.366065,24.9837262 C114.890937,28.3227182 109.819564,31.0531452 109.19477,31.539997 C107.872157,32.5704999 100.013557,37.4511891 99.6768185,37.4511891 C99.4861345,37.4511891 98.6787721,38.0597538 97.8795238,38.8022028 C97.0802755,39.5487088 96.0294868,40.1572736 95.542636,40.1572736 C95.0557835,40.1572736 94.6541312,40.3925853 94.6541312,40.6846964 C94.6541312,40.9768075 93.7534553,41.7476561 92.6499244,42.4008489 C91.5504504,43.0499846 90.2562364,43.9628318 89.7774988,44.429398 C89.2987612,44.8919071 87.842263,46.0076092 86.5399347,46.9082851 C85.2376058,47.8089607 83.716194,49.0220331 83.1603717,49.6103126 C82.6045493,50.1945343 80.774798,51.7159462 79.1032735,52.9858182 C75.3504576,55.8379583 55.3205637,75.831338 51.8355166,80.2048899 C50.4358175,81.9616134 48.9103487,83.7873078 48.4518966,84.2619884 C47.9934445,84.7326117 46.8736851,86.1850526 45.9689522,87.4873815 C45.0642193,88.7897101 43.9444603,90.2462081 43.4819511,90.7249457 C43.0153849,91.2036833 42.1025377,92.4978973 41.4534021,93.5973713 C40.8002093,94.7009013 40.0293606,95.6015781 39.7372496,95.6015781 C39.4451384,95.6015781 39.2098267,96.0032303 39.2098267,96.4900829 C39.2098267,96.9769337 38.601262,98.0277223 37.854756,98.8269707 C37.1123069,99.626219 36.5037422,100.461982 36.5037422,100.685122 C36.5037422,100.904205 35.2866128,102.880012 33.7976577,105.070845 C32.3127598,107.261678 31.0956304,109.249656 31.0956304,109.493082 C31.0956304,109.732451 30.5235795,110.738611 29.8217016,111.728543 C26.8924766,115.862726 17.8897757,134.460464 14.8834659,142.599003 C14.0558179,144.830407 13.1429708,147.264667 12.8468026,148.007116 C12.5546915,148.749565 11.9217842,150.729428 11.4389895,152.400953 C10.960252,154.076535 10.3557443,155.748059 10.1001471,156.121312 C9.8445499,156.494565 9.48752526,157.557525 9.30495587,158.4866 C9.12238647,159.419733 8.20953934,163.067063 7.28046385,166.600797 C4.78940553,176.074121 3.17873756,184.245116 2.08332106,192.971935 C-0.691734134,215.042549 -0.69579124,230.033527 2.07926395,251.463119 C3.87250136,265.34651 8.94387411,286.370393 12.8386884,296.0912 C13.1389137,296.833649 14.0558179,299.267908 14.8753517,301.499312 C16.8268159,306.793825 17.8978899,309.28894 20.6810592,315.029734 C21.9468739,317.638449 22.9814339,320.121393 22.9814339,320.551445 C22.9814339,320.981498 23.2086315,321.435892 23.4885712,321.561663 C23.7644539,321.683376 25.176324,324.06895 26.620651,326.856176 C29.387592,332.199374 33.6678306,339.498094 34.8119323,340.832879 C35.1851853,341.266989 36.4023148,343.161653 37.5180168,345.044147 C38.6337188,346.930698 39.7737634,348.476452 40.0537032,348.484566 C40.3336429,348.488623 40.5608405,348.92679 40.5608405,349.454212 C40.5608405,349.981635 40.8002093,350.513115 41.0963775,350.634829 C41.3884885,350.760598 42.6827028,352.383437 43.968803,354.241588 C45.254903,356.103797 46.7722579,358.079603 47.3402515,358.639483 C47.9082454,359.195305 49.4296573,361.021 50.7238714,362.688467 C57.0326592,370.855406 78.0889991,391.749461 82.3448947,394.070122 C82.9818592,394.414975 83.6512804,394.89777 83.8379072,395.137138 C84.0204765,395.380565 86.304623,397.149459 88.90928,399.072524 C91.5098801,400.995588 93.9441384,402.813168 94.3173915,403.113394 C97.6239264,405.787021 114.50957,416.112336 115.576587,416.112336 C115.909269,416.112336 116.282522,416.343591 116.404234,416.619473 C116.63549,417.134725 128.681013,423.220372 133.366962,425.192123 C134.762604,425.776345 136.892581,426.681078 138.101596,427.196328 C141.290475,428.563571 145.935853,430.295951 149.424957,431.423824 C151.100539,431.967476 153.076345,432.665297 153.822851,432.973637 C154.5653,433.286033 156.541107,433.914883 158.216688,434.373335 C159.89227,434.82773 162.022247,435.448466 162.951322,435.748692 C165.665521,436.620968 179.804509,439.93156 184.587827,440.81195 C218.939277,447.136968 257.883363,444.796021 291.76419,434.365221 C294.364791,433.565973 297.103331,432.754553 297.849837,432.567927 C298.592287,432.3813 299.886501,431.951248 300.722263,431.610451 C303.874628,430.324351 305.355469,429.748243 307.651787,428.908424 C308.954115,428.433743 311.927969,427.188214 314.264858,426.137426 C316.597688,425.086638 318.954862,424.226532 319.502571,424.226532 C320.050279,424.226532 320.500617,423.922251 320.500617,423.553055 C320.500617,423.179802 320.914441,422.875519 321.421578,422.875519 C322.529166,422.875519 330.886788,418.688594 331.207299,417.974544 C331.329012,417.694605 332.014662,417.467408 332.728711,417.467408 C333.442761,417.467408 334.022925,417.236152 334.022925,416.956213 C334.022925,416.672215 334.91143,416.05148 335.998733,415.568685 C337.086034,415.089948 339.83269,413.495508 342.108722,412.022781 C344.380697,410.554112 346.535016,409.353211 346.896098,409.353211 C347.253123,409.353211 347.54929,409.085442 347.54929,408.756817 C347.54929,408.43225 348.462138,407.787171 349.57784,407.324662 C350.693541,406.862152 351.606388,406.253588 351.606388,405.96959 C351.606388,405.689651 352.519236,405.081086 353.634938,404.618577 C354.75064,404.156067 355.663487,403.575902 355.663487,403.32842 C355.663487,403.084994 356.564163,402.350659 357.667693,401.697466 C358.767167,401.048331 360.061381,400.135484 360.540119,399.668917 C361.018856,399.206408 362.475355,398.086649 363.777683,397.181916 C365.075955,396.277184 366.548681,395.141195 367.047704,394.658401 C367.542671,394.175606 369.064083,392.95442 370.427268,391.944202 C373.814945,389.440973 394.676543,368.563145 397.96685,364.384334 C399.431463,362.526183 400.786533,360.850601 400.985331,360.668032 C401.180072,360.481405 402.389087,358.959994 403.67113,357.284412 C404.953173,355.612888 406.182474,354.091476 406.405614,353.90485 C406.628755,353.718223 409.610722,349.308157 413.030856,344.098843 C416.455046,338.893586 419.489756,334.32935 419.77781,333.956097 C420.706886,332.755197 431.121457,311.743485 432.346701,308.599234 C432.999893,306.927709 433.937082,304.643563 434.432049,303.527861 C435.592379,300.91509 438.801544,291.957016 439.51965,289.328017 C439.823932,288.212315 440.70838,285.169491 441.487342,282.568891 C449.479826,255.816386 452.125053,221.274252 448.222124,194.663745 C446.696655,184.241059 446.173293,181.023781 445.597184,178.435352 C444.424682,173.193581 442.071565,163.537687 441.479228,161.529424 C439.710334,155.577661 436.675624,146.505989 436.103573,145.479543 C435.746548,144.834464 435.450381,143.893218 435.450381,143.386081 C435.450381,142.883001 435.028442,141.584729 434.513191,140.505541 C433.993883,139.422296 433.052636,137.324776 432.419728,135.835821 C430.066611,130.322225 422.90989,116.089923 420.431003,112.01254 C419.02319,109.695937 417.870974,107.513218 417.870974,107.168365 C417.870974,106.819454 417.631605,106.43403 417.339494,106.30826 C417.047383,106.186548 416.008766,104.713821 415.035062,103.042296 C414.061358,101.366714 412.629203,99.2651371 411.85024,98.3725753 C411.071277,97.4800143 410.434313,96.5103672 410.434313,96.2223135 C410.434313,95.9342599 410.040775,95.2972955 409.566094,94.8063859 C409.087356,94.3154772 407.96354,92.8468082 407.062864,91.5444792 C406.162189,90.242151 405.245285,89.0250214 405.022143,88.8424524 C404.803061,88.6558254 403.890213,87.4386961 402.993595,86.1363677 C402.101033,84.834039 400.892018,83.3126271 400.311853,82.7568047 C399.727631,82.1969254 397.889766,80.0669485 396.222298,78.0221711 C392.355884,73.2713093 377.312163,58.2275889 372.89804,54.6979137 C371.043947,53.2089587 369.068139,51.5212056 368.50826,50.9450978 C367.952437,50.3689898 366.431026,49.1640318 365.128698,48.2714701 C363.826369,47.3748511 362.609239,46.4620043 362.422613,46.2429209 C362.235986,46.0197804 361.018856,45.1069332 359.720585,44.2143718 C358.418256,43.3177531 357.201128,42.3967918 357.014501,42.1614801 C356.531706,41.5529154 344.745836,33.6983732 341.853125,32.0593055 C340.522397,31.3046853 338.36402,30.0834987 337.057634,29.3410498 C326.379352,23.2959735 309.87102,15.8065701 300.551865,12.784032 C298.693714,12.1795243 296.563737,11.4289611 295.821288,11.1125075 C295.074782,10.7960538 291.881846,9.87103547 288.721367,9.05961586 C285.55683,8.24413906 282.274638,7.3028923 281.41859,6.96209606 C280.5666,6.62535688 279.170957,6.34541711 278.318966,6.34541711 C277.471033,6.34541711 276.558186,6.13039091 276.298532,5.87073662 C276.03482,5.60702523 274.996203,5.2986858 273.985986,5.18508703 C272.979825,5.06743117 270.784936,4.69823522 269.109354,4.35743898 C250.057221,0.507252774 228.015006,-0.896503203 209.607951,0.568109283 M303.286349,27.0082183 C369.234481,35.5930381 409.525523,77.8193162 415.347459,144.457154 C415.66797,148.104485 414.893064,147.577063 413.858504,143.44288 C405.557681,110.194959 377.206678,76.0220216 343.723447,58.9010675 C322.026086,47.8089607 285.536545,39.1795129 267.75834,40.9362364 L265.393052,41.1715481 L268.772615,42.4333057 C312.187622,58.637356 358.937565,98.6038304 387.325082,143.779619 C396.104642,157.752266 410.227402,187.178398 410.503283,192.075316 C410.604711,193.937524 411.566243,189.551801 413.116055,180.127162 C414.536039,171.493657 415.826197,155.204408 415.420487,151.013425 C415.197347,148.708993 415.205461,148.71305 416.130479,151.484049 C420.293061,163.951511 421.773902,196.65578 418.978562,214.42587 C418.499824,217.484922 418.341598,220.223464 418.625594,220.511517 C418.909591,220.799571 419.753467,224.560501 420.50403,228.873197 C438.858343,334.816203 374.715621,418.185514 274.882605,418.136828 C260.64219,418.128714 233.950541,415.037205 233.950541,413.398138 C233.950541,413.14254 232.352044,413.349452 230.400579,413.85659 C209.177899,419.394529 179.43937,420.826684 156.524879,417.414665 C65.0859993,403.794986 12.3356082,322.052572 34.592849,228.471544 C37.1041928,217.919031 37.0839073,218.551939 35.213585,210.555398 C14.8428949,123.327787 53.1459592,51.5049775 128.802727,35.0575011 C133.379133,34.0635121 143.919475,32.7611836 147.396408,32.7611836 L151.116767,32.7611836 L142.475148,35.7269224 C91.8790753,53.0831886 56.8298043,95.8531175 47.685105,151.386678 C45.4212442,165.148356 44.0783447,200.071856 46.086608,192.971935 C49.2470876,181.798686 69.995088,147.317408 80.8681113,135.158285 L83.2861417,132.456258 L81.1318224,135.499082 C63.9418973,159.756471 45.4455866,195.069454 46.3543769,201.905665 C46.4639184,202.757656 46.9183136,206.194018 47.35648,209.541124 C53.7910375,258.433214 80.2514323,309.662193 119.309117,348.833477 C129.70746,359.264277 124.498145,355.166607 111.998225,343.084569 C80.1500047,312.307422 55.6370175,274.422239 42.2120794,235.234727 C40.8123805,231.145172 39.4573098,227.55464 39.2057696,227.262529 C38.9542295,226.966361 38.0251541,231.530596 37.1488208,237.405274 C24.2350772,323.630783 80.8031978,389.181318 168.022695,389.059605 L171.402258,389.055548 L168.022695,387.104084 C159.608273,382.259909 136.146075,365.406723 134.815346,363.256461 C134.624662,362.944065 137.975825,365.252553 142.260121,368.380576 C150.070035,374.080799 161.632766,381.480946 169.54005,385.83827 C171.864767,387.120312 173.564691,388.369899 173.317208,388.617382 C172.440875,389.493715 191.850033,387.720763 201.830494,386.016782 C275.527683,373.431664 347.163866,321.78886 386.947771,252.570707 L390.586989,246.237577 L389.020948,239.044342 C373.153637,166.199143 324.622629,100.380839 258.366158,61.8586918 C244.985848,54.0812348 223.957908,44.4456263 222.688036,45.5126435 C222.371583,45.7763544 219.227332,46.6932586 215.693598,47.5533635 C174.384225,57.5784532 134.624662,80.4361446 100.455781,113.797663 C94.6054451,119.514115 92.1752438,121.583234 94.0333949,119.270689 C117.479365,90.0920382 164.509248,56.332924 201.664153,41.9991962 L207.587516,39.7150499 L197.947851,37.5282739 C185.159878,34.6315058 186.267466,34.8343607 177.280993,33.7146016 C172.931783,33.1709505 165.746662,32.7246697 161.316311,32.7246697 C151.818645,32.7165555 151.749674,32.5015292 160.638776,30.6433783 C181.256949,26.3306829 205.238457,26.2454839 227.524098,30.4080666 C234.794417,31.7671945 234.206138,31.7793658 241.387202,30.1281268 C244.547681,29.3978491 250.787498,28.318661 255.250306,27.7222676 C259.713114,27.1299313 264.12318,26.5294807 265.052255,26.3915394 C270.152028,25.632862 295.926773,26.0507431 303.286349,27.0082183 M223.28443,101.013747 C230.952345,121.875346 236.652568,137.568201 236.652568,137.811627 C236.652568,137.925226 235.362411,137.771056 233.780143,137.466774 C228.948138,136.529584 213.742135,136.768953 207.981056,137.872484 C201.213816,139.166699 201.457241,140.055203 205.068059,127.230715 C206.77204,121.177525 210.025833,109.533653 212.297808,101.350485 C217.186611,83.7467367 217.073012,84.0915903 217.572036,85.4588322 C217.774891,86.0187119 220.347091,93.0172061 223.28443,101.013747 M300.255697,121.12884 C298.815427,125.125081 297.476584,128.853555 297.277786,129.413434 C297.083046,129.969257 294.145707,138.18488 290.749916,147.670377 C287.354125,157.151815 284.445186,165.306583 284.291016,165.789376 C284.120617,166.308685 281.451046,164.089452 277.742859,160.348808 C272.505145,155.062409 261.352182,146.611473 258.053761,145.430858 C256.897488,145.012976 252.917475,147.869174 291.419337,121.498036 C297.553669,117.294882 302.641271,113.85852 302.72647,113.85852 C302.811668,113.85852 301.700024,117.132598 300.255697,121.12884 M158.894224,134.338751 C170.607067,141.049192 180.437416,146.749415 180.733584,147.000955 C181.029751,147.256553 178.745606,149.305387 175.662211,151.553019 C170.2257,155.512747 162.780924,162.742496 158.427658,168.292606 C157.259213,169.781561 156.155683,170.844521 155.973113,170.657895 C155.681002,170.365783 136.085218,127.551226 133.415647,121.372266 L132.421658,119.075948 L135.010086,120.605474 C136.430071,121.44935 147.177324,127.628311 158.894224,134.338751 M232.745583,152.482095 L236.502455,153.232658 L235.861434,155.691259 C235.50441,157.042273 233.735514,163.476831 231.926049,169.984416 C221.46685,207.581545 222.533867,204.648263 220.898856,200.274711 C219.336873,196.099958 209.563323,169.542193 206.565128,161.334683 C205.169486,157.508839 204.163326,154.238818 204.333724,154.068421 C206.244617,152.157526 225.722746,151.070224 232.745583,152.482095 M261.246698,165.387724 C265.758191,168.8606 274.046842,177.855187 273.685761,178.877575 C273.58839,179.157515 270.005972,181.774344 265.729791,184.695455 C261.45361,187.616565 252.101998,194.022723 244.949334,198.927755 C237.796669,203.836844 231.800279,207.849314 231.625823,207.849314 C231.28097,207.849314 235.123042,196.773436 242.328449,176.999139 C244.78705,170.256242 246.795314,164.576305 246.795314,164.37345 C246.795314,164.174651 247.399822,162.604555 248.134157,160.888403 L249.472999,157.768494 L253.035131,159.784872 C254.998767,160.896516 258.690726,163.415974 261.246698,165.387724 M192.316599,162.377358 C193.919152,165.712292 210.098861,201.276815 211.701414,204.980946 L212.942886,207.861485 L211.105021,206.90401 C206.877525,204.696948 168.647488,182.691248 168.083552,182.135425 C165.990089,180.086591 186.068668,160.032354 190.377306,159.865725 C190.774902,159.853842 191.647178,160.981715 192.316599,162.377358 M310.021133,185.880127 C332.899109,188.079074 348.587908,189.661343 349.188358,189.831741 C349.533211,189.929111 341.77604,194.679973 331.945691,200.38831 C322.119399,206.096648 311.035407,212.555548 307.315048,214.742324 L300.551865,218.718281 L300.121813,211.086878 C299.671474,203.191765 297.93098,194.525803 295.521063,188.180502 C294.754272,186.168181 294.129479,184.419572 294.129479,184.293802 C294.129479,184.168032 295.269523,184.237002 296.665165,184.452029 C298.060807,184.667055 304.069369,185.308076 310.021133,185.880127 M283.004915,198.132564 C284.29913,202.526401 284.871181,206.348187 285.155178,212.413549 L285.536545,220.698144 L282.883202,220.698144 C281.426704,220.698144 277.807773,220.414147 274.842034,220.073351 C271.876295,219.728497 262.297486,218.795365 253.558496,218.000174 C244.819507,217.200925 236.818909,216.340821 235.780292,216.08928 C234.088482,215.675456 236.291486,214.227072 256.739261,202.331661 C283.033315,187.032343 279.889064,187.535423 283.004915,198.132564 M146.442989,191.791319 C144.045244,200.136771 143.116169,206.802583 143.108055,215.691685 L143.09994,225.221809 L135.614595,221.684019 C131.496639,219.736611 122.648108,215.505058 115.953896,212.279666 C109.259685,209.054272 101.113031,205.163515 97.8511237,203.633989 C90.7106318,200.286883 90.75526,200.221969 101.417314,198.388161 C106.066748,197.588913 117.779591,195.462993 127.451713,193.665699 C148.589194,189.73437 146.98664,189.892597 146.442989,191.791319 M182.559278,202.915883 C189.440117,206.234589 198.523959,210.591912 202.743342,212.604233 L210.419372,216.255621 L192.600596,219.497243 C160.634719,225.315121 159.360791,225.509862 158.837425,224.665986 C156.577621,221.01054 157.762294,206.494243 161.291969,194.550146 L161.726078,193.085533 L165.888661,194.984256 C168.176864,196.026929 175.678439,199.597176 182.559278,202.915883 M196.446725,242.634874 C187.261455,253.625553 179.532683,262.62014 179.268972,262.62014 C176.254547,262.62014 161.596252,240.951178 161.596252,236.492427 C161.596252,235.417296 160.951173,235.599866 198.110135,226.138713 C204.248525,224.576729 210.02989,223.059375 210.958966,222.767264 C211.888041,222.475153 212.760317,222.329097 212.894201,222.442697 C213.028085,222.560352 205.627939,231.644195 196.446725,242.634874 M238.681117,223.363658 C241.099148,223.757196 248.251812,224.986497 254.572771,226.098142 C260.89373,227.209787 269.872089,228.767712 274.521523,229.558846 C279.170957,230.345924 283.077943,231.09243 283.211827,231.210085 C284.798153,232.658469 275.677796,250.144563 269.474492,257.548766 L267.774568,259.577316 L252.844447,244.699937 C234.486077,226.406481 230.18961,221.63939 232.599527,222.235784 C233.528602,222.467039 236.263087,222.974176 238.681117,223.363658 M244.077058,247.726532 L259.757743,266.308042 L257.899592,267.788883 C252.690277,271.943352 238.559405,277.525919 232.761811,277.724716 L229.552647,277.834258 L229.082023,271.411872 C228.822369,267.878139 227.986606,257.074087 227.223872,247.406021 C226.461138,237.737957 225.836344,229.071995 225.836344,228.15509 C225.836344,225.992657 224.708471,224.783642 244.077058,247.726532 M219.726354,253.605268 L219.787211,279.04733 L215.20269,278.621335 C206.508329,277.813972 187.987675,271.432157 188.754467,269.509092 C189.488801,267.646884 218.720194,227.578983 219.146189,227.842694 C219.430186,228.017149 219.689841,239.612336 219.726354,253.605268 M317.072369,258.064018 C327.628938,268.758529 336.11233,277.659803 335.929761,277.846429 C335.747192,278.028999 332.882881,277.708488 329.568232,277.13238 C326.253583,276.556272 319.283488,275.351314 314.078231,274.454695 C308.868916,273.554019 299.139995,271.87438 292.453897,270.722165 C285.767799,269.565892 280.201461,268.527275 280.087862,268.413676 C279.97832,268.300077 281.32122,266.445984 283.077943,264.287607 C287.58538,258.753725 292.437669,250.387989 294.940899,243.839832 C296.117456,240.764551 297.257501,238.330292 297.480641,238.431721 C297.699725,238.533147 306.5158,247.36545 317.072369,258.064018 M150.820598,249.264172 C154.5369,256.717062 158.598055,262.713453 163.636972,268.214878 C166.367399,271.196845 167.491215,272.86837 166.894821,273.071225 C166.399856,273.241623 159.336447,275.075432 151.201966,277.148609 C143.067484,279.217728 131.086873,282.288952 124.583344,283.972648 C118.075759,285.652286 112.643304,286.918101 112.505363,286.784216 C112.302508,286.581362 147.408579,243.860118 147.887316,243.729768 C147.972516,243.705948 149.291073,246.197007 150.820598,249.264172 M267.68937,290.51269 C268.13565,296.184513 268.772615,304.17294 269.105296,308.262495 C271.012133,331.627324 271.283958,335.724993 270.971562,336.041447 C270.780878,336.23213 262.378628,326.64115 252.304853,314.725452 C234.619962,293.819224 234.047911,293.052433 235.82492,292.667009 C245.716125,290.532975 255.899442,286.625989 262.686968,282.353865 C264.545119,281.185421 266.2491,280.219832 266.47224,280.215743 C266.69538,280.20766 267.243088,284.840867 267.68937,290.51269 M188.742295,286.617876 C194.868514,289.522758 203.364077,292.009759 210.958966,293.11329 C214.119445,293.575799 216.797129,294.018022 216.906671,294.095108 C217.016213,294.172193 212.32215,300.890748 206.475871,309.025229 C200.629594,317.159711 193.261903,327.464741 190.101423,331.927548 C186.940944,336.390356 184.100975,340.333856 183.796692,340.686824 C183.488354,341.039791 183.236813,328.48713 183.236813,312.794273 C183.236813,297.09736 183.354469,284.256644 183.504582,284.256644 C183.650637,284.256644 186.007811,285.319604 188.742295,286.617876 M390.802014,294.249278 C365.343723,342.386748 303.379662,392.321512 248.661578,408.789274 C241.699599,410.886794 241.898397,411.040964 252.747077,411.949754 C327.495054,418.213914 383.434324,372.7379 392.189543,298.594429 C393.155132,290.439662 393.029362,290.046124 390.802014,294.249278" fill="#94D344"></path>
                <path d="M217.215011,0.312396585 C217.864146,0.478737599 218.931163,0.478737599 219.580299,0.312396585 C220.229435,0.141998421 219.697955,2.30625019e-09 218.395626,2.30625019e-09 C217.093298,2.30625019e-09 216.561818,0.141998421 217.215011,0.312396585 M230.737319,0.312396585 C231.386455,0.478737599 232.453471,0.478737599 233.102607,0.312396585 C233.7558,0.141998421 233.220263,2.30625019e-09 231.921992,2.30625019e-09 C230.619663,2.30625019e-09 230.088184,0.141998421 230.737319,0.312396585 M264.715517,26.6713636 C251.116124,28.3712878 237.833184,30.655434 236.084574,31.5966808 C235.540923,31.8887919 237.175934,32.5663273 240.141673,33.2763196 C242.8721,33.9335694 249.651511,35.9580614 255.201621,37.7796985 C262.731596,40.2504713 266.342413,41.0943478 269.401465,41.1065191 C337.163119,41.3337166 399.325978,85.4830591 413.858504,143.702418 C414.893064,147.836602 415.66797,148.364025 415.347459,144.716693 C412.608918,113.37561 404.697577,92.2259567 387.868733,71.2588731 C385.219448,67.9563948 383.121928,64.9906563 383.215241,64.6660882 C383.308554,64.3455776 383.004272,64.1589512 382.541762,64.2522642 C382.075197,64.3455776 381.770914,64.0412955 381.864228,63.5747291 C381.95754,63.1081627 381.653258,62.8038802 381.186692,62.8971935 C380.724182,62.9905069 380.419901,62.6862244 380.513213,62.2237153 C380.606527,61.757149 380.302245,61.4528665 379.835679,61.5461798 C379.369112,61.6394932 379.064829,61.3352106 379.158143,60.8686442 C379.251456,60.4061353 379.060772,60.1018527 378.736205,60.195166 C377.72193,60.48322 369.161453,53.172329 369.628019,52.4177087 C369.875502,52.0160563 369.749732,51.8984005 369.34808,52.1458834 C368.950484,52.3933663 366.211943,50.9287536 363.262433,48.8961474 C338.607447,31.9131346 297.306187,22.598037 264.715517,26.6713636 M200.81622,42.5224464 C162.760639,57.8217636 117.252168,90.6355741 94.0333949,119.530228 C92.1752438,121.842774 94.6054451,119.773653 100.455781,114.057202 C134.624662,80.6956832 174.384225,57.8379922 215.693598,47.8129026 C224.294647,45.7234967 224.294647,45.6991542 215.799083,42.879471 C206.962724,39.9421319 207.222377,39.9502461 200.81622,42.5224464 M216.817415,85.7183708 C216.602389,86.2782505 214.569782,93.4268573 212.297808,101.610025 C210.025833,109.793192 206.77204,121.437063 205.068059,127.490254 C201.457241,140.314742 201.213816,139.426237 207.981056,138.132023 C213.742135,137.028492 228.948138,136.789123 233.780143,137.726313 C235.362411,138.030595 236.652568,138.184765 236.652568,138.071167 C236.652568,137.82774 230.952345,122.134884 223.28443,101.273286 C220.347091,93.2767454 217.774891,86.2782505 217.572036,85.7183708 C217.243411,84.8176953 217.158211,84.8176953 216.817415,85.7183708 M291.419337,121.757574 C252.917475,148.128713 256.897488,145.272516 258.053761,145.690397 C261.352182,146.871012 272.505145,155.321948 277.742859,160.608347 C281.451046,164.348991 284.120617,166.568224 284.291016,166.048916 C284.445186,165.566121 287.354125,157.411354 290.749916,147.929915 C294.145707,138.44442 297.083046,130.228795 297.277786,129.672973 C297.476584,129.113093 298.815427,125.384621 300.255697,121.388378 C301.700024,117.392137 302.811668,114.118059 302.72647,114.118059 C302.641271,114.118059 297.553669,117.55442 291.419337,121.757574 M133.415647,121.631804 C136.085218,127.810765 155.681002,170.625322 155.973113,170.917433 C156.155683,171.10406 157.259213,170.0411 158.427658,168.552145 C162.780924,163.002035 170.2257,155.772286 175.662211,151.812558 C178.745606,149.564926 181.029751,147.516091 180.733584,147.260494 C180.437416,147.008954 170.607067,141.30873 158.894224,134.59829 C147.177324,127.88785 136.430071,121.708889 135.010086,120.865013 L132.421658,119.335487 L133.415647,121.631804 Z M415.420487,151.272963 C415.546257,152.555007 415.38803,157.727807 415.075633,162.766723 C406.80321,295.478462 251.655718,415.272402 128.259076,384.227486 C62.8018528,367.759725 25.7402607,307.39416 37.3557329,236.171801 C38.8690305,226.897275 38.929887,225.745059 38.0494967,222.75092 C36.8161388,218.547767 36.8526527,218.490967 34.4954786,228.795996 C27.4158423,259.78817 28.3773745,293.51077 37.1001357,320.080706 C65.6742784,407.121691 164.107595,443.298836 264.078552,403.50276 C366.597367,362.692409 434.476677,255.800042 418.154971,160.872058 C416.933784,153.76808 415.01072,147.013011 415.420487,151.272963 M294.129479,184.55334 C294.129479,184.679111 294.754272,186.427719 295.521063,188.440041 C297.93098,194.785343 299.671474,203.451304 300.121813,211.346417 L300.551865,218.977819 L307.315048,215.001862 C311.035407,212.815086 322.119399,206.356186 331.945691,200.647849 C341.77604,194.939511 349.533211,190.18865 349.188358,190.09128 C348.587908,189.920881 332.899109,188.338613 310.021133,186.139666 C304.069369,185.567615 298.060807,184.926593 296.665165,184.711567 C295.269523,184.496541 294.129479,184.42757 294.129479,184.55334 M127.451713,193.925237 C117.779591,195.722532 106.066748,197.848451 101.417314,198.6477 C90.75526,200.481508 90.7106318,200.546422 97.8511237,203.893528 C101.113031,205.423053 109.259685,209.31381 115.953896,212.539204 C122.648108,215.764597 131.496639,219.99615 135.614595,221.943558 L143.09994,225.481347 L143.108055,215.951223 C143.116169,207.062121 144.045244,200.396309 146.442989,192.050858 C146.98664,190.152135 148.589194,189.993909 127.451713,193.925237 M294.940899,244.09937 C292.437669,250.647528 287.58538,259.013264 283.077943,264.547146 C281.32122,266.705522 279.97832,268.559616 280.087862,268.673215 C280.201461,268.786813 285.767799,269.825431 292.453897,270.981703 C299.139995,272.13392 308.868916,273.813559 314.078231,274.714234 C319.283488,275.610852 326.253583,276.815811 329.568232,277.391919 C332.882881,277.968027 335.747192,278.288538 335.929761,278.105968 C336.221873,277.813856 298.527373,239.174054 297.480641,238.691259 C297.257501,238.589831 296.117456,241.024091 294.940899,244.09937 M129.99957,265.415365 C120.242249,277.172836 112.371478,286.905815 112.505363,287.043755 C112.643304,287.177639 118.075759,285.911825 124.583344,284.232186 C131.086873,282.54849 143.067484,279.477267 151.201966,277.408147 C159.336447,275.33497 166.399856,273.501162 166.894821,273.330763 C167.491215,273.127909 166.367399,271.456384 163.636972,268.474417 C158.598055,262.972992 154.5369,256.9766 150.820598,249.523711 C149.291073,246.456545 147.972516,243.965487 147.887316,243.989306 C147.802118,244.010115 139.752835,253.653837 129.99957,265.415365 M262.686968,282.613404 C255.899442,286.885529 245.716125,290.792514 235.82492,292.926547 C234.047911,293.311972 234.619962,294.078764 252.304853,314.984991 C262.378628,326.900688 270.780878,336.491668 270.971562,336.300985 C271.283958,335.984531 271.012133,331.886862 269.105296,308.522033 C268.772615,304.432479 268.13565,296.444052 267.68937,290.772229 C267.243088,285.100405 266.69538,280.4672 266.47224,280.475282 C266.2491,280.479371 264.545119,281.44496 262.686968,282.613404 M212.016363,292.795967 C204.070748,291.705666 193.758514,288.152881 184.80968,283.429701 C183.200666,282.582715 183.145999,283.537818 183.255147,310.920546 C183.312844,326.523797 183.584378,339.271777 183.853019,339.248275 C184.295741,339.206661 186.721442,335.892938 200.279343,316.76875 C202.653208,313.422126 207.300127,306.893204 210.604034,302.261471 C213.907941,297.629738 216.466539,293.728437 216.290409,293.591196 C216.116845,293.450897 214.190851,293.095283 212.016363,292.795967 M385.044992,378.677376 L382.371364,381.549802 L385.24379,378.876174 C386.826059,377.407504 388.120273,376.113289 388.120273,376.003748 C388.120273,375.492554 387.531993,376.003748 385.044992,378.677376" fill="#FBFBFA"></path>
                <path d="M208.983159,153.070258 C203.424934,154.287388 203.631846,153.557111 206.565128,161.594221 C209.563323,169.801731 219.336873,196.359496 220.898856,200.534251 C222.335069,204.368208 222.521695,204.051754 225.812001,192.217199 C234.03574,162.661238 235.269098,158.210602 235.861434,155.950799 L236.502455,153.492196 L232.745583,152.741633 C227.662038,151.719245 214.314186,151.905872 208.983159,153.070258 M248.134157,161.147941 C247.399822,162.864093 246.795314,164.434191 246.795314,164.632989 C246.795314,164.835843 244.78705,170.515781 242.328449,177.258678 C235.123042,197.032975 231.28097,208.108853 231.625823,208.108853 C231.800279,208.108853 237.796669,204.096383 244.949334,199.187293 C252.101998,194.282262 261.45361,187.876104 265.729791,184.954993 C270.005972,182.033882 273.58839,179.417054 273.685761,179.137115 C274.420095,177.067994 260.715218,164.397677 253.035131,160.04441 L249.472999,158.028032 L248.134157,161.147941 Z M185.938841,162.632839 C178.534637,167.570328 166.521568,180.865438 168.083552,182.394964 C168.647488,182.950787 206.877525,204.956487 211.105021,207.163549 L212.942886,208.121024 L211.701414,205.240484 C210.098861,201.536353 193.919152,165.97183 192.316599,162.636896 C190.827644,159.537273 190.588275,159.537273 185.938841,162.632839 M256.739261,202.591199 C236.291486,214.486611 234.088482,215.934995 235.780292,216.34882 C236.818909,216.600359 244.819507,217.460464 253.558496,218.259713 C262.297486,219.054903 271.876295,219.988036 274.842034,220.332889 C277.807773,220.673686 281.426704,220.957683 282.883202,220.957683 L285.536545,220.957683 L285.155178,212.673089 C284.871181,206.607727 284.29913,202.78594 283.004915,198.392102 C279.889064,187.794962 283.033315,187.291882 256.739261,202.591199 M161.291969,194.809685 C157.762294,206.753782 156.577621,221.270079 158.837425,224.925525 C159.360791,225.769401 160.634719,225.574661 192.600596,219.756781 L210.419372,216.51516 L202.743342,212.863772 C198.523959,210.851451 189.440117,206.494127 182.559278,203.175421 C175.678439,199.856715 168.176864,196.286469 165.888661,195.243794 L161.726078,193.345072 L161.291969,194.809685 Z M210.958966,223.026803 C210.02989,223.318914 204.248525,224.836269 198.110135,226.398251 C160.951173,235.859405 161.596252,235.676835 161.596252,236.751966 C161.596252,241.210717 176.254547,262.879678 179.268972,262.879678 C179.857251,262.879678 213.239055,222.994346 212.894201,222.702235 C212.760317,222.588636 211.888041,222.734691 210.958966,223.026803 M234.41305,226.081798 C236.340172,228.284802 244.632881,236.780366 252.844447,244.959476 L267.774568,259.836855 L269.474492,257.808306 C275.677796,250.404102 284.798153,232.918009 283.211827,231.469625 C283.077943,231.351968 279.170957,230.605462 274.521523,229.818386 C269.872089,229.027251 260.89373,227.469325 254.572771,226.35768 C248.251812,225.246036 241.099148,224.016734 238.681117,223.623196 C236.263087,223.233715 233.528602,222.726577 232.599527,222.495323 C231.1268,222.130184 231.353998,222.584579 234.41305,226.081798 M225.836344,228.414629 C225.836344,229.331533 226.461138,237.997495 227.223872,247.665561 C227.986606,257.333625 228.822369,268.137678 229.082023,271.67141 L229.552647,278.093797 L232.761811,277.984255 C238.559405,277.785457 252.690277,272.20289 257.899592,268.048421 L259.757743,266.567581 L244.077058,247.986071 C224.708471,225.043181 225.836344,226.252196 225.836344,228.414629 M203.806301,248.485094 C195.651534,259.869312 188.880237,269.44812 188.754467,269.768631 C187.987675,271.691696 206.508329,278.073512 215.20269,278.880874 L219.787211,279.306869 L219.726354,253.864806 C219.689841,239.871874 219.430186,228.276688 219.146189,228.102232 C218.862193,227.92372 211.957011,237.096819 203.806301,248.485094" fill="#FAC414"></path>
            </g>
        </g>
    </g>
</svg>